G04 EAGLE Gerber RS-274X export*
G75*
%MOMM*%
%FSLAX34Y34*%
%LPD*%
%INSoldermask Bottom*%
%IPPOS*%
%AMOC8*
5,1,8,0,0,1.08239X$1,22.5*%
G01*
%ADD10C,0.228959*%
%ADD11C,0.736600*%
%ADD12C,1.127000*%
%ADD13C,0.889000*%
%ADD14C,0.228344*%
%ADD15C,0.777000*%
%ADD16C,0.228600*%
%ADD17C,1.270000*%
%ADD18C,1.627000*%

G36*
X774085Y896029D02*
X774085Y896029D01*
X774094Y896032D01*
X774120Y896034D01*
X777954Y896868D01*
X777963Y896872D01*
X777988Y896878D01*
X781664Y898249D01*
X781672Y898255D01*
X781697Y898264D01*
X785140Y900144D01*
X785147Y900151D01*
X785170Y900163D01*
X788311Y902515D01*
X788317Y902523D01*
X788338Y902538D01*
X791113Y905313D01*
X791117Y905321D01*
X791136Y905339D01*
X793487Y908480D01*
X793491Y908490D01*
X793507Y908510D01*
X795387Y911954D01*
X795389Y911963D01*
X795402Y911986D01*
X796773Y915663D01*
X796774Y915672D01*
X796783Y915697D01*
X797617Y919531D01*
X797616Y919540D01*
X797622Y919566D01*
X797902Y923480D01*
X797900Y923489D01*
X797902Y923515D01*
X797622Y927429D01*
X797621Y927433D01*
X797621Y927436D01*
X797618Y927442D01*
X797617Y927464D01*
X796783Y931298D01*
X796778Y931307D01*
X796773Y931332D01*
X795402Y935008D01*
X795396Y935016D01*
X795387Y935041D01*
X793507Y938484D01*
X793500Y938491D01*
X793487Y938514D01*
X791136Y941655D01*
X791128Y941661D01*
X791113Y941682D01*
X788338Y944457D01*
X788330Y944461D01*
X788311Y944480D01*
X785170Y946831D01*
X785161Y946835D01*
X785140Y946851D01*
X781697Y948731D01*
X781687Y948733D01*
X781664Y948746D01*
X777988Y950117D01*
X777979Y950118D01*
X777954Y950127D01*
X774120Y950961D01*
X774110Y950960D01*
X774085Y950966D01*
X770171Y951246D01*
X770146Y951241D01*
X770120Y951244D01*
X770079Y951226D01*
X770035Y951217D01*
X770016Y951198D01*
X769992Y951188D01*
X769967Y951150D01*
X769935Y951118D01*
X769930Y951093D01*
X769915Y951071D01*
X769904Y950997D01*
X769904Y940997D01*
X769906Y940990D01*
X769905Y940983D01*
X769926Y940924D01*
X769943Y940863D01*
X769949Y940858D01*
X769951Y940852D01*
X770001Y940813D01*
X770049Y940771D01*
X770056Y940770D01*
X770061Y940766D01*
X770134Y940749D01*
X772852Y940535D01*
X775484Y939903D01*
X777985Y938867D01*
X780293Y937453D01*
X782351Y935695D01*
X784109Y933637D01*
X785523Y931329D01*
X786559Y928828D01*
X787191Y926196D01*
X787403Y923497D01*
X787191Y920799D01*
X786559Y918167D01*
X785523Y915666D01*
X784109Y913358D01*
X782351Y911300D01*
X780293Y909542D01*
X777985Y908128D01*
X775484Y907092D01*
X772852Y906460D01*
X770134Y906246D01*
X770127Y906243D01*
X770120Y906244D01*
X770062Y906219D01*
X770003Y906196D01*
X769999Y906191D01*
X769992Y906188D01*
X769957Y906135D01*
X769920Y906084D01*
X769919Y906077D01*
X769915Y906071D01*
X769904Y905997D01*
X769904Y895997D01*
X769911Y895972D01*
X769909Y895946D01*
X769931Y895907D01*
X769943Y895863D01*
X769963Y895846D01*
X769975Y895823D01*
X770015Y895801D01*
X770049Y895771D01*
X770074Y895767D01*
X770097Y895755D01*
X770171Y895749D01*
X774085Y896029D01*
G37*
G36*
X3931Y896029D02*
X3931Y896029D01*
X3941Y896032D01*
X3967Y896034D01*
X7801Y896868D01*
X7809Y896872D01*
X7835Y896878D01*
X11511Y898249D01*
X11519Y898255D01*
X11543Y898264D01*
X14987Y900144D01*
X14994Y900151D01*
X15017Y900163D01*
X18158Y902515D01*
X18164Y902523D01*
X18185Y902538D01*
X20959Y905313D01*
X20964Y905321D01*
X20983Y905339D01*
X23334Y908480D01*
X23337Y908490D01*
X23353Y908510D01*
X25234Y911954D01*
X25236Y911963D01*
X25248Y911986D01*
X26620Y915663D01*
X26620Y915672D01*
X26630Y915697D01*
X27464Y919531D01*
X27463Y919540D01*
X27469Y919566D01*
X27749Y923480D01*
X27747Y923489D01*
X27749Y923515D01*
X27469Y927429D01*
X27467Y927433D01*
X27468Y927436D01*
X27465Y927442D01*
X27464Y927464D01*
X26630Y931298D01*
X26625Y931307D01*
X26620Y931332D01*
X25248Y935008D01*
X25243Y935016D01*
X25234Y935041D01*
X23353Y938484D01*
X23346Y938491D01*
X23334Y938514D01*
X20983Y941655D01*
X20975Y941661D01*
X20959Y941682D01*
X18185Y944457D01*
X18176Y944461D01*
X18158Y944480D01*
X15017Y946831D01*
X15008Y946835D01*
X14987Y946851D01*
X11543Y948731D01*
X11534Y948733D01*
X11511Y948746D01*
X7835Y950117D01*
X7825Y950118D01*
X7801Y950127D01*
X3967Y950961D01*
X3957Y950960D01*
X3931Y950966D01*
X18Y951246D01*
X-8Y951241D01*
X-33Y951244D01*
X-75Y951226D01*
X-119Y951217D01*
X-137Y951198D01*
X-161Y951188D01*
X-186Y951150D01*
X-218Y951118D01*
X-224Y951093D01*
X-238Y951071D01*
X-249Y950997D01*
X-249Y940997D01*
X-247Y940990D01*
X-249Y940983D01*
X-228Y940924D01*
X-210Y940863D01*
X-205Y940858D01*
X-202Y940852D01*
X-152Y940813D01*
X-105Y940771D01*
X-98Y940770D01*
X-92Y940766D01*
X-20Y940749D01*
X2698Y940535D01*
X5331Y939903D01*
X7831Y938867D01*
X10139Y937453D01*
X12198Y935695D01*
X13956Y933637D01*
X15370Y931329D01*
X16406Y928828D01*
X17038Y926196D01*
X17250Y923497D01*
X17038Y920799D01*
X16406Y918167D01*
X15370Y915666D01*
X13956Y913358D01*
X12198Y911300D01*
X10139Y909542D01*
X7831Y908128D01*
X5331Y907092D01*
X2698Y906460D01*
X-20Y906246D01*
X-26Y906243D01*
X-33Y906244D01*
X-91Y906219D01*
X-150Y906196D01*
X-155Y906191D01*
X-161Y906188D01*
X-196Y906135D01*
X-234Y906084D01*
X-234Y906077D01*
X-238Y906071D01*
X-249Y905997D01*
X-249Y895997D01*
X-242Y895972D01*
X-244Y895946D01*
X-223Y895907D01*
X-210Y895863D01*
X-190Y895846D01*
X-178Y895823D01*
X-139Y895801D01*
X-105Y895771D01*
X-79Y895767D01*
X-56Y895755D01*
X18Y895749D01*
X3931Y896029D01*
G37*
G36*
X388995Y896029D02*
X388995Y896029D01*
X389005Y896032D01*
X389031Y896034D01*
X392865Y896868D01*
X392873Y896872D01*
X392899Y896878D01*
X396575Y898249D01*
X396583Y898255D01*
X396607Y898264D01*
X400051Y900144D01*
X400058Y900151D01*
X400081Y900163D01*
X403222Y902515D01*
X403228Y902523D01*
X403249Y902538D01*
X406023Y905313D01*
X406028Y905321D01*
X406047Y905339D01*
X408398Y908480D01*
X408401Y908490D01*
X408417Y908510D01*
X410298Y911954D01*
X410300Y911963D01*
X410312Y911986D01*
X411684Y915663D01*
X411684Y915672D01*
X411694Y915697D01*
X412528Y919531D01*
X412527Y919540D01*
X412533Y919566D01*
X412813Y923480D01*
X412811Y923489D01*
X412813Y923515D01*
X412533Y927429D01*
X412531Y927433D01*
X412532Y927436D01*
X412529Y927442D01*
X412528Y927464D01*
X411694Y931298D01*
X411689Y931307D01*
X411684Y931332D01*
X410312Y935008D01*
X410307Y935016D01*
X410298Y935041D01*
X408417Y938484D01*
X408410Y938491D01*
X408398Y938514D01*
X406047Y941655D01*
X406039Y941661D01*
X406023Y941682D01*
X403249Y944457D01*
X403240Y944461D01*
X403222Y944480D01*
X400081Y946831D01*
X400072Y946835D01*
X400051Y946851D01*
X396607Y948731D01*
X396598Y948733D01*
X396575Y948746D01*
X392899Y950117D01*
X392889Y950118D01*
X392865Y950127D01*
X389031Y950961D01*
X389021Y950960D01*
X388995Y950966D01*
X385082Y951246D01*
X385056Y951241D01*
X385031Y951244D01*
X384989Y951226D01*
X384945Y951217D01*
X384927Y951198D01*
X384903Y951188D01*
X384878Y951150D01*
X384846Y951118D01*
X384840Y951093D01*
X384826Y951071D01*
X384815Y950997D01*
X384815Y940997D01*
X384817Y940990D01*
X384815Y940983D01*
X384836Y940924D01*
X384854Y940863D01*
X384859Y940858D01*
X384862Y940852D01*
X384912Y940813D01*
X384959Y940771D01*
X384966Y940770D01*
X384972Y940766D01*
X385044Y940749D01*
X387762Y940535D01*
X390395Y939903D01*
X392895Y938867D01*
X395203Y937453D01*
X397262Y935695D01*
X399020Y933637D01*
X400434Y931329D01*
X401470Y928828D01*
X402102Y926196D01*
X402314Y923497D01*
X402102Y920799D01*
X401470Y918167D01*
X400434Y915666D01*
X399020Y913358D01*
X397262Y911300D01*
X395203Y909542D01*
X392895Y908128D01*
X390395Y907092D01*
X387762Y906460D01*
X385044Y906246D01*
X385038Y906243D01*
X385031Y906244D01*
X384973Y906219D01*
X384914Y906196D01*
X384909Y906191D01*
X384903Y906188D01*
X384868Y906135D01*
X384830Y906084D01*
X384830Y906077D01*
X384826Y906071D01*
X384815Y905997D01*
X384815Y895997D01*
X384822Y895972D01*
X384820Y895946D01*
X384841Y895907D01*
X384854Y895863D01*
X384874Y895846D01*
X384886Y895823D01*
X384925Y895801D01*
X384959Y895771D01*
X384985Y895767D01*
X385008Y895755D01*
X385082Y895749D01*
X388995Y896029D01*
G37*
G36*
X774094Y412531D02*
X774094Y412531D01*
X774103Y412535D01*
X774129Y412536D01*
X777963Y413370D01*
X777972Y413375D01*
X777998Y413380D01*
X781674Y414752D01*
X781682Y414757D01*
X781706Y414766D01*
X785150Y416647D01*
X785157Y416654D01*
X785180Y416666D01*
X788321Y419017D01*
X788327Y419025D01*
X788348Y419041D01*
X791122Y421815D01*
X791127Y421824D01*
X791145Y421842D01*
X793497Y424983D01*
X793500Y424992D01*
X793516Y425013D01*
X795396Y428457D01*
X795399Y428466D01*
X795411Y428489D01*
X796782Y432165D01*
X796783Y432175D01*
X796792Y432199D01*
X797626Y436033D01*
X797626Y436043D01*
X797632Y436069D01*
X797911Y439982D01*
X797909Y439992D01*
X797911Y440018D01*
X797632Y443931D01*
X797630Y443936D01*
X797630Y443939D01*
X797628Y443945D01*
X797626Y443967D01*
X796792Y447801D01*
X796788Y447809D01*
X796782Y447835D01*
X795411Y451511D01*
X795405Y451519D01*
X795396Y451543D01*
X793516Y454987D01*
X793509Y454994D01*
X793497Y455017D01*
X791145Y458158D01*
X791138Y458164D01*
X791122Y458185D01*
X788348Y460959D01*
X788339Y460964D01*
X788321Y460983D01*
X785180Y463334D01*
X785171Y463337D01*
X785150Y463353D01*
X781706Y465234D01*
X781697Y465236D01*
X781674Y465248D01*
X777998Y466620D01*
X777988Y466620D01*
X777963Y466630D01*
X774129Y467464D01*
X774120Y467463D01*
X774094Y467469D01*
X770181Y467749D01*
X770155Y467743D01*
X770129Y467747D01*
X770088Y467729D01*
X770044Y467719D01*
X770026Y467701D01*
X770002Y467690D01*
X769977Y467652D01*
X769945Y467621D01*
X769939Y467595D01*
X769925Y467574D01*
X769914Y467500D01*
X769914Y457500D01*
X769916Y457493D01*
X769914Y457486D01*
X769935Y457427D01*
X769953Y457366D01*
X769958Y457361D01*
X769961Y457354D01*
X770010Y457316D01*
X770058Y457274D01*
X770065Y457273D01*
X770071Y457268D01*
X770143Y457252D01*
X772861Y457038D01*
X775493Y456406D01*
X777994Y455370D01*
X780302Y453956D01*
X782360Y452198D01*
X784118Y450139D01*
X785533Y447831D01*
X786569Y445331D01*
X787200Y442698D01*
X787413Y440000D01*
X787200Y437302D01*
X786569Y434669D01*
X785533Y432169D01*
X784118Y429861D01*
X782360Y427802D01*
X780302Y426044D01*
X777994Y424630D01*
X775493Y423594D01*
X772861Y422962D01*
X770143Y422748D01*
X770137Y422746D01*
X770129Y422747D01*
X770072Y422721D01*
X770013Y422699D01*
X770008Y422693D01*
X770002Y422690D01*
X769967Y422637D01*
X769929Y422587D01*
X769929Y422580D01*
X769925Y422574D01*
X769914Y422500D01*
X769914Y412500D01*
X769921Y412475D01*
X769919Y412449D01*
X769940Y412409D01*
X769953Y412366D01*
X769972Y412349D01*
X769985Y412326D01*
X770024Y412304D01*
X770058Y412274D01*
X770084Y412270D01*
X770107Y412257D01*
X770181Y412251D01*
X774094Y412531D01*
G37*
G36*
X389030Y412531D02*
X389030Y412531D01*
X389039Y412535D01*
X389065Y412536D01*
X392899Y413370D01*
X392908Y413375D01*
X392934Y413380D01*
X396610Y414752D01*
X396618Y414757D01*
X396642Y414766D01*
X400086Y416647D01*
X400093Y416654D01*
X400116Y416666D01*
X403257Y419017D01*
X403263Y419025D01*
X403284Y419041D01*
X406058Y421815D01*
X406063Y421824D01*
X406081Y421842D01*
X408433Y424983D01*
X408436Y424992D01*
X408452Y425013D01*
X410332Y428457D01*
X410335Y428466D01*
X410347Y428489D01*
X411718Y432165D01*
X411719Y432175D01*
X411728Y432199D01*
X412562Y436033D01*
X412562Y436043D01*
X412568Y436069D01*
X412847Y439982D01*
X412845Y439992D01*
X412847Y440018D01*
X412568Y443931D01*
X412566Y443936D01*
X412566Y443939D01*
X412564Y443945D01*
X412562Y443967D01*
X411728Y447801D01*
X411724Y447809D01*
X411718Y447835D01*
X410347Y451511D01*
X410341Y451519D01*
X410332Y451543D01*
X408452Y454987D01*
X408445Y454994D01*
X408433Y455017D01*
X406081Y458158D01*
X406074Y458164D01*
X406058Y458185D01*
X403284Y460959D01*
X403275Y460964D01*
X403257Y460983D01*
X400116Y463334D01*
X400107Y463337D01*
X400086Y463353D01*
X396642Y465234D01*
X396633Y465236D01*
X396610Y465248D01*
X392934Y466620D01*
X392924Y466620D01*
X392899Y466630D01*
X389065Y467464D01*
X389056Y467463D01*
X389030Y467469D01*
X385117Y467749D01*
X385091Y467743D01*
X385065Y467747D01*
X385024Y467729D01*
X384980Y467719D01*
X384962Y467701D01*
X384938Y467690D01*
X384913Y467652D01*
X384881Y467621D01*
X384875Y467595D01*
X384861Y467574D01*
X384850Y467500D01*
X384850Y457500D01*
X384852Y457493D01*
X384850Y457486D01*
X384871Y457427D01*
X384889Y457366D01*
X384894Y457361D01*
X384897Y457354D01*
X384946Y457316D01*
X384994Y457274D01*
X385001Y457273D01*
X385007Y457268D01*
X385079Y457252D01*
X387797Y457038D01*
X390429Y456406D01*
X392930Y455370D01*
X395238Y453956D01*
X397296Y452198D01*
X399054Y450139D01*
X400469Y447831D01*
X401505Y445331D01*
X402136Y442698D01*
X402349Y440000D01*
X402136Y437302D01*
X401505Y434669D01*
X400469Y432169D01*
X399054Y429861D01*
X397296Y427802D01*
X395238Y426044D01*
X392930Y424630D01*
X390429Y423594D01*
X387797Y422962D01*
X385079Y422748D01*
X385073Y422746D01*
X385065Y422747D01*
X385008Y422721D01*
X384949Y422699D01*
X384944Y422693D01*
X384938Y422690D01*
X384903Y422637D01*
X384865Y422587D01*
X384865Y422580D01*
X384861Y422574D01*
X384850Y422500D01*
X384850Y412500D01*
X384857Y412475D01*
X384855Y412449D01*
X384876Y412409D01*
X384889Y412366D01*
X384908Y412349D01*
X384921Y412326D01*
X384960Y412304D01*
X384994Y412274D01*
X385020Y412270D01*
X385043Y412257D01*
X385117Y412251D01*
X389030Y412531D01*
G37*
G36*
X3941Y412531D02*
X3941Y412531D01*
X3950Y412535D01*
X3976Y412536D01*
X7810Y413370D01*
X7819Y413375D01*
X7844Y413380D01*
X11520Y414752D01*
X11528Y414757D01*
X11553Y414766D01*
X14996Y416647D01*
X15003Y416654D01*
X15026Y416666D01*
X18167Y419017D01*
X18173Y419025D01*
X18194Y419041D01*
X20969Y421815D01*
X20973Y421824D01*
X20992Y421842D01*
X23343Y424983D01*
X23347Y424992D01*
X23363Y425013D01*
X25243Y428457D01*
X25245Y428466D01*
X25258Y428489D01*
X26629Y432165D01*
X26630Y432175D01*
X26639Y432199D01*
X27473Y436033D01*
X27472Y436043D01*
X27478Y436069D01*
X27758Y439982D01*
X27756Y439992D01*
X27758Y440018D01*
X27478Y443931D01*
X27477Y443936D01*
X27477Y443939D01*
X27474Y443945D01*
X27473Y443967D01*
X26639Y447801D01*
X26634Y447809D01*
X26629Y447835D01*
X25258Y451511D01*
X25252Y451519D01*
X25243Y451543D01*
X23363Y454987D01*
X23356Y454994D01*
X23343Y455017D01*
X20992Y458158D01*
X20984Y458164D01*
X20969Y458185D01*
X18194Y460959D01*
X18186Y460964D01*
X18167Y460983D01*
X15026Y463334D01*
X15017Y463337D01*
X14996Y463353D01*
X11553Y465234D01*
X11543Y465236D01*
X11520Y465248D01*
X7844Y466620D01*
X7835Y466620D01*
X7810Y466630D01*
X3976Y467464D01*
X3966Y467463D01*
X3941Y467469D01*
X27Y467749D01*
X2Y467743D01*
X-24Y467747D01*
X-65Y467729D01*
X-109Y467719D01*
X-128Y467701D01*
X-152Y467690D01*
X-177Y467652D01*
X-209Y467621D01*
X-214Y467595D01*
X-229Y467574D01*
X-240Y467500D01*
X-240Y457500D01*
X-238Y457493D01*
X-239Y457486D01*
X-218Y457427D01*
X-201Y457366D01*
X-195Y457361D01*
X-193Y457354D01*
X-143Y457316D01*
X-95Y457274D01*
X-88Y457273D01*
X-83Y457268D01*
X-10Y457252D01*
X2708Y457038D01*
X5340Y456406D01*
X7841Y455370D01*
X10149Y453956D01*
X12207Y452198D01*
X13965Y450139D01*
X15379Y447831D01*
X16415Y445331D01*
X17047Y442698D01*
X17259Y440000D01*
X17047Y437302D01*
X16415Y434669D01*
X15379Y432169D01*
X13965Y429861D01*
X12207Y427802D01*
X10149Y426044D01*
X7841Y424630D01*
X5340Y423594D01*
X2708Y422962D01*
X-10Y422748D01*
X-17Y422746D01*
X-24Y422747D01*
X-82Y422721D01*
X-141Y422699D01*
X-145Y422693D01*
X-152Y422690D01*
X-187Y422637D01*
X-224Y422587D01*
X-225Y422580D01*
X-229Y422574D01*
X-240Y422500D01*
X-240Y412500D01*
X-233Y412475D01*
X-235Y412449D01*
X-213Y412409D01*
X-201Y412366D01*
X-181Y412349D01*
X-169Y412326D01*
X-129Y412304D01*
X-95Y412274D01*
X-70Y412270D01*
X-47Y412257D01*
X27Y412251D01*
X3941Y412531D01*
G37*
G36*
X765072Y895754D02*
X765072Y895754D01*
X765097Y895750D01*
X765139Y895769D01*
X765183Y895778D01*
X765201Y895797D01*
X765225Y895807D01*
X765250Y895845D01*
X765282Y895877D01*
X765288Y895902D01*
X765302Y895924D01*
X765313Y895997D01*
X765313Y905997D01*
X765311Y906004D01*
X765313Y906011D01*
X765292Y906071D01*
X765274Y906132D01*
X765269Y906136D01*
X765266Y906143D01*
X765216Y906182D01*
X765169Y906224D01*
X765162Y906225D01*
X765156Y906229D01*
X765084Y906246D01*
X762366Y906460D01*
X759733Y907092D01*
X757233Y908128D01*
X754925Y909542D01*
X752866Y911300D01*
X751108Y913358D01*
X749694Y915666D01*
X748658Y918167D01*
X748026Y920799D01*
X747814Y923497D01*
X748026Y926196D01*
X748658Y928828D01*
X749694Y931329D01*
X751108Y933637D01*
X752866Y935695D01*
X754925Y937453D01*
X757233Y938867D01*
X759733Y939903D01*
X762366Y940535D01*
X765084Y940749D01*
X765090Y940752D01*
X765097Y940750D01*
X765155Y940776D01*
X765214Y940799D01*
X765219Y940804D01*
X765225Y940807D01*
X765260Y940860D01*
X765298Y940911D01*
X765298Y940918D01*
X765302Y940924D01*
X765313Y940997D01*
X765313Y950997D01*
X765306Y951022D01*
X765308Y951048D01*
X765287Y951088D01*
X765274Y951132D01*
X765254Y951149D01*
X765242Y951172D01*
X765203Y951194D01*
X765169Y951224D01*
X765143Y951227D01*
X765120Y951240D01*
X765046Y951246D01*
X761133Y950966D01*
X761123Y950963D01*
X761097Y950961D01*
X757263Y950127D01*
X757255Y950122D01*
X757229Y950117D01*
X753553Y948746D01*
X753545Y948740D01*
X753521Y948731D01*
X750077Y946851D01*
X750070Y946844D01*
X750047Y946831D01*
X746906Y944480D01*
X746900Y944472D01*
X746879Y944457D01*
X744105Y941682D01*
X744100Y941674D01*
X744081Y941655D01*
X741730Y938514D01*
X741727Y938505D01*
X741711Y938484D01*
X739830Y935041D01*
X739828Y935031D01*
X739816Y935008D01*
X738444Y931332D01*
X738444Y931323D01*
X738434Y931298D01*
X737600Y927464D01*
X737601Y927454D01*
X737595Y927429D01*
X737315Y923515D01*
X737317Y923506D01*
X737315Y923480D01*
X737595Y919566D01*
X737599Y919557D01*
X737600Y919531D01*
X738434Y915697D01*
X738439Y915688D01*
X738444Y915663D01*
X739816Y911986D01*
X739821Y911979D01*
X739830Y911954D01*
X741711Y908510D01*
X741718Y908504D01*
X741730Y908480D01*
X744081Y905339D01*
X744089Y905334D01*
X744105Y905313D01*
X746879Y902538D01*
X746888Y902533D01*
X746906Y902515D01*
X750047Y900163D01*
X750056Y900160D01*
X750077Y900144D01*
X753521Y898264D01*
X753530Y898262D01*
X753553Y898249D01*
X757229Y896878D01*
X757239Y896877D01*
X757263Y896868D01*
X761097Y896034D01*
X761107Y896034D01*
X761133Y896029D01*
X765046Y895749D01*
X765072Y895754D01*
G37*
G36*
X1150161Y895754D02*
X1150161Y895754D01*
X1150187Y895750D01*
X1150228Y895769D01*
X1150272Y895778D01*
X1150291Y895797D01*
X1150315Y895807D01*
X1150339Y895845D01*
X1150372Y895877D01*
X1150377Y895902D01*
X1150392Y895924D01*
X1150403Y895997D01*
X1150403Y905997D01*
X1150401Y906004D01*
X1150402Y906011D01*
X1150381Y906071D01*
X1150363Y906132D01*
X1150358Y906136D01*
X1150356Y906143D01*
X1150306Y906182D01*
X1150258Y906224D01*
X1150251Y906225D01*
X1150245Y906229D01*
X1150173Y906246D01*
X1147455Y906460D01*
X1144823Y907092D01*
X1142322Y908128D01*
X1140014Y909542D01*
X1137956Y911300D01*
X1136198Y913358D01*
X1134784Y915666D01*
X1133748Y918167D01*
X1133116Y920799D01*
X1132903Y923497D01*
X1133116Y926196D01*
X1133748Y928828D01*
X1134784Y931329D01*
X1136198Y933637D01*
X1137956Y935695D01*
X1140014Y937453D01*
X1142322Y938867D01*
X1144823Y939903D01*
X1147455Y940535D01*
X1150173Y940749D01*
X1150180Y940752D01*
X1150187Y940750D01*
X1150245Y940776D01*
X1150304Y940799D01*
X1150308Y940804D01*
X1150315Y940807D01*
X1150349Y940860D01*
X1150387Y940911D01*
X1150388Y940918D01*
X1150392Y940924D01*
X1150403Y940997D01*
X1150403Y950997D01*
X1150395Y951022D01*
X1150397Y951048D01*
X1150376Y951088D01*
X1150363Y951132D01*
X1150344Y951149D01*
X1150332Y951172D01*
X1150292Y951194D01*
X1150258Y951224D01*
X1150232Y951227D01*
X1150210Y951240D01*
X1150136Y951246D01*
X1146222Y950966D01*
X1146213Y950963D01*
X1146187Y950961D01*
X1142353Y950127D01*
X1142344Y950122D01*
X1142319Y950117D01*
X1138642Y948746D01*
X1138635Y948740D01*
X1138610Y948731D01*
X1135166Y946851D01*
X1135160Y946844D01*
X1135136Y946831D01*
X1131995Y944480D01*
X1131990Y944472D01*
X1131969Y944457D01*
X1129194Y941682D01*
X1129189Y941674D01*
X1129171Y941655D01*
X1126819Y938514D01*
X1126816Y938505D01*
X1126800Y938484D01*
X1124920Y935041D01*
X1124918Y935031D01*
X1124905Y935008D01*
X1123534Y931332D01*
X1123533Y931323D01*
X1123524Y931298D01*
X1122690Y927464D01*
X1122690Y927454D01*
X1122685Y927429D01*
X1122405Y923515D01*
X1122407Y923506D01*
X1122405Y923480D01*
X1122685Y919566D01*
X1122688Y919557D01*
X1122690Y919531D01*
X1123524Y915697D01*
X1123528Y915688D01*
X1123534Y915663D01*
X1124905Y911986D01*
X1124911Y911979D01*
X1124920Y911954D01*
X1126800Y908510D01*
X1126807Y908504D01*
X1126819Y908480D01*
X1129171Y905339D01*
X1129179Y905334D01*
X1129194Y905313D01*
X1131969Y902538D01*
X1131977Y902533D01*
X1131995Y902515D01*
X1135136Y900163D01*
X1135146Y900160D01*
X1135166Y900144D01*
X1138610Y898264D01*
X1138619Y898262D01*
X1138642Y898249D01*
X1142319Y896878D01*
X1142328Y896877D01*
X1142353Y896868D01*
X1146187Y896034D01*
X1146196Y896034D01*
X1146222Y896029D01*
X1150136Y895749D01*
X1150161Y895754D01*
G37*
G36*
X380008Y895754D02*
X380008Y895754D01*
X380033Y895750D01*
X380075Y895769D01*
X380119Y895778D01*
X380137Y895797D01*
X380161Y895807D01*
X380186Y895845D01*
X380218Y895877D01*
X380224Y895902D01*
X380238Y895924D01*
X380249Y895997D01*
X380249Y905997D01*
X380247Y906004D01*
X380249Y906011D01*
X380228Y906071D01*
X380210Y906132D01*
X380205Y906136D01*
X380202Y906143D01*
X380152Y906182D01*
X380105Y906224D01*
X380098Y906225D01*
X380092Y906229D01*
X380020Y906246D01*
X377302Y906460D01*
X374669Y907092D01*
X372169Y908128D01*
X369861Y909542D01*
X367802Y911300D01*
X366044Y913358D01*
X364630Y915666D01*
X363594Y918167D01*
X362962Y920799D01*
X362750Y923497D01*
X362962Y926196D01*
X363594Y928828D01*
X364630Y931329D01*
X366044Y933637D01*
X367802Y935695D01*
X369861Y937453D01*
X372169Y938867D01*
X374669Y939903D01*
X377302Y940535D01*
X380020Y940749D01*
X380026Y940752D01*
X380033Y940750D01*
X380091Y940776D01*
X380150Y940799D01*
X380155Y940804D01*
X380161Y940807D01*
X380196Y940860D01*
X380234Y940911D01*
X380234Y940918D01*
X380238Y940924D01*
X380249Y940997D01*
X380249Y950997D01*
X380242Y951022D01*
X380244Y951048D01*
X380223Y951088D01*
X380210Y951132D01*
X380190Y951149D01*
X380178Y951172D01*
X380139Y951194D01*
X380105Y951224D01*
X380079Y951227D01*
X380056Y951240D01*
X379982Y951246D01*
X376069Y950966D01*
X376059Y950963D01*
X376033Y950961D01*
X372199Y950127D01*
X372191Y950122D01*
X372165Y950117D01*
X368489Y948746D01*
X368481Y948740D01*
X368457Y948731D01*
X365013Y946851D01*
X365006Y946844D01*
X364983Y946831D01*
X361842Y944480D01*
X361836Y944472D01*
X361815Y944457D01*
X359041Y941682D01*
X359036Y941674D01*
X359017Y941655D01*
X356666Y938514D01*
X356663Y938505D01*
X356647Y938484D01*
X354766Y935041D01*
X354764Y935031D01*
X354752Y935008D01*
X353380Y931332D01*
X353380Y931323D01*
X353370Y931298D01*
X352536Y927464D01*
X352537Y927454D01*
X352531Y927429D01*
X352251Y923515D01*
X352253Y923506D01*
X352251Y923480D01*
X352531Y919566D01*
X352535Y919557D01*
X352536Y919531D01*
X353370Y915697D01*
X353375Y915688D01*
X353380Y915663D01*
X354752Y911986D01*
X354757Y911979D01*
X354766Y911954D01*
X356647Y908510D01*
X356654Y908504D01*
X356666Y908480D01*
X359017Y905339D01*
X359025Y905334D01*
X359041Y905313D01*
X361815Y902538D01*
X361824Y902533D01*
X361842Y902515D01*
X364983Y900163D01*
X364992Y900160D01*
X365013Y900144D01*
X368457Y898264D01*
X368466Y898262D01*
X368489Y898249D01*
X372165Y896878D01*
X372175Y896877D01*
X372199Y896868D01*
X376033Y896034D01*
X376043Y896034D01*
X376069Y896029D01*
X379982Y895749D01*
X380008Y895754D01*
G37*
G36*
X1150171Y412257D02*
X1150171Y412257D01*
X1150196Y412253D01*
X1150238Y412271D01*
X1150282Y412281D01*
X1150300Y412299D01*
X1150324Y412310D01*
X1150349Y412348D01*
X1150381Y412379D01*
X1150387Y412405D01*
X1150401Y412427D01*
X1150412Y412500D01*
X1150412Y422500D01*
X1150410Y422507D01*
X1150412Y422514D01*
X1150391Y422573D01*
X1150373Y422634D01*
X1150367Y422639D01*
X1150365Y422646D01*
X1150315Y422685D01*
X1150268Y422726D01*
X1150260Y422727D01*
X1150255Y422732D01*
X1150182Y422748D01*
X1147464Y422962D01*
X1144832Y423594D01*
X1142331Y424630D01*
X1140024Y426044D01*
X1137965Y427802D01*
X1136207Y429861D01*
X1134793Y432169D01*
X1133757Y434669D01*
X1133125Y437302D01*
X1132913Y440000D01*
X1133125Y442698D01*
X1133757Y445331D01*
X1134793Y447831D01*
X1136207Y450139D01*
X1137965Y452198D01*
X1140024Y453956D01*
X1142331Y455370D01*
X1144832Y456406D01*
X1147464Y457038D01*
X1150182Y457252D01*
X1150189Y457254D01*
X1150196Y457253D01*
X1150254Y457279D01*
X1150313Y457301D01*
X1150317Y457307D01*
X1150324Y457310D01*
X1150359Y457363D01*
X1150397Y457413D01*
X1150397Y457421D01*
X1150401Y457427D01*
X1150412Y457500D01*
X1150412Y467500D01*
X1150405Y467525D01*
X1150407Y467551D01*
X1150386Y467591D01*
X1150373Y467634D01*
X1150353Y467651D01*
X1150341Y467674D01*
X1150302Y467696D01*
X1150268Y467726D01*
X1150242Y467730D01*
X1150219Y467743D01*
X1150145Y467749D01*
X1146231Y467469D01*
X1146222Y467465D01*
X1146196Y467464D01*
X1142362Y466630D01*
X1142354Y466625D01*
X1142328Y466620D01*
X1138652Y465248D01*
X1138644Y465243D01*
X1138619Y465234D01*
X1135176Y463353D01*
X1135169Y463346D01*
X1135146Y463334D01*
X1132005Y460983D01*
X1131999Y460975D01*
X1131978Y460959D01*
X1129203Y458185D01*
X1129199Y458176D01*
X1129180Y458158D01*
X1126829Y455017D01*
X1126825Y455008D01*
X1126810Y454987D01*
X1124929Y451543D01*
X1124927Y451534D01*
X1124914Y451511D01*
X1123543Y447835D01*
X1123543Y447825D01*
X1123533Y447801D01*
X1122699Y443967D01*
X1122700Y443957D01*
X1122694Y443931D01*
X1122414Y440018D01*
X1122416Y440008D01*
X1122414Y439982D01*
X1122694Y436069D01*
X1122697Y436059D01*
X1122699Y436033D01*
X1123533Y432199D01*
X1123538Y432191D01*
X1123543Y432165D01*
X1124914Y428489D01*
X1124920Y428481D01*
X1124929Y428457D01*
X1126810Y425013D01*
X1126816Y425006D01*
X1126829Y424983D01*
X1129180Y421842D01*
X1129188Y421836D01*
X1129203Y421815D01*
X1131978Y419041D01*
X1131986Y419036D01*
X1132005Y419017D01*
X1135146Y416666D01*
X1135155Y416663D01*
X1135176Y416647D01*
X1138619Y414766D01*
X1138629Y414764D01*
X1138652Y414752D01*
X1142328Y413380D01*
X1142338Y413380D01*
X1142362Y413370D01*
X1146196Y412536D01*
X1146206Y412537D01*
X1146231Y412531D01*
X1150145Y412251D01*
X1150171Y412257D01*
G37*
G36*
X765107Y412257D02*
X765107Y412257D01*
X765132Y412253D01*
X765174Y412271D01*
X765218Y412281D01*
X765236Y412299D01*
X765260Y412310D01*
X765285Y412348D01*
X765317Y412379D01*
X765323Y412405D01*
X765337Y412427D01*
X765348Y412500D01*
X765348Y422500D01*
X765346Y422507D01*
X765348Y422514D01*
X765327Y422573D01*
X765309Y422634D01*
X765303Y422639D01*
X765301Y422646D01*
X765251Y422685D01*
X765204Y422726D01*
X765196Y422727D01*
X765191Y422732D01*
X765118Y422748D01*
X762400Y422962D01*
X759768Y423594D01*
X757267Y424630D01*
X754960Y426044D01*
X752901Y427802D01*
X751143Y429861D01*
X749729Y432169D01*
X748693Y434669D01*
X748061Y437302D01*
X747849Y440000D01*
X748061Y442698D01*
X748693Y445331D01*
X749729Y447831D01*
X751143Y450139D01*
X752901Y452198D01*
X754960Y453956D01*
X757267Y455370D01*
X759768Y456406D01*
X762400Y457038D01*
X765118Y457252D01*
X765125Y457254D01*
X765132Y457253D01*
X765190Y457279D01*
X765249Y457301D01*
X765253Y457307D01*
X765260Y457310D01*
X765295Y457363D01*
X765333Y457413D01*
X765333Y457421D01*
X765337Y457427D01*
X765348Y457500D01*
X765348Y467500D01*
X765341Y467525D01*
X765343Y467551D01*
X765322Y467591D01*
X765309Y467634D01*
X765289Y467651D01*
X765277Y467674D01*
X765238Y467696D01*
X765204Y467726D01*
X765178Y467730D01*
X765155Y467743D01*
X765081Y467749D01*
X761167Y467469D01*
X761158Y467465D01*
X761132Y467464D01*
X757298Y466630D01*
X757290Y466625D01*
X757264Y466620D01*
X753588Y465248D01*
X753580Y465243D01*
X753555Y465234D01*
X750112Y463353D01*
X750105Y463346D01*
X750082Y463334D01*
X746941Y460983D01*
X746935Y460975D01*
X746914Y460959D01*
X744139Y458185D01*
X744135Y458176D01*
X744116Y458158D01*
X741765Y455017D01*
X741761Y455008D01*
X741746Y454987D01*
X739865Y451543D01*
X739863Y451534D01*
X739850Y451511D01*
X738479Y447835D01*
X738479Y447825D01*
X738469Y447801D01*
X737635Y443967D01*
X737636Y443957D01*
X737630Y443931D01*
X737350Y440018D01*
X737352Y440008D01*
X737350Y439982D01*
X737630Y436069D01*
X737633Y436059D01*
X737635Y436033D01*
X738469Y432199D01*
X738474Y432191D01*
X738479Y432165D01*
X739850Y428489D01*
X739856Y428481D01*
X739865Y428457D01*
X741746Y425013D01*
X741752Y425006D01*
X741765Y424983D01*
X744116Y421842D01*
X744124Y421836D01*
X744139Y421815D01*
X746914Y419041D01*
X746922Y419036D01*
X746941Y419017D01*
X750082Y416666D01*
X750091Y416663D01*
X750112Y416647D01*
X753555Y414766D01*
X753565Y414764D01*
X753588Y414752D01*
X757264Y413380D01*
X757274Y413380D01*
X757298Y413370D01*
X761132Y412536D01*
X761142Y412537D01*
X761167Y412531D01*
X765081Y412251D01*
X765107Y412257D01*
G37*
G36*
X380017Y412257D02*
X380017Y412257D01*
X380043Y412253D01*
X380084Y412271D01*
X380128Y412281D01*
X380147Y412299D01*
X380171Y412310D01*
X380195Y412348D01*
X380228Y412379D01*
X380233Y412405D01*
X380248Y412427D01*
X380259Y412500D01*
X380259Y422500D01*
X380257Y422507D01*
X380258Y422514D01*
X380237Y422573D01*
X380219Y422634D01*
X380214Y422639D01*
X380212Y422646D01*
X380162Y422685D01*
X380114Y422726D01*
X380107Y422727D01*
X380101Y422732D01*
X380029Y422748D01*
X377311Y422962D01*
X374679Y423594D01*
X372178Y424630D01*
X369870Y426044D01*
X367812Y427802D01*
X366054Y429861D01*
X364640Y432169D01*
X363604Y434669D01*
X362972Y437302D01*
X362759Y440000D01*
X362972Y442698D01*
X363604Y445331D01*
X364640Y447831D01*
X366054Y450139D01*
X367812Y452198D01*
X369870Y453956D01*
X372178Y455370D01*
X374679Y456406D01*
X377311Y457038D01*
X380029Y457252D01*
X380036Y457254D01*
X380043Y457253D01*
X380101Y457279D01*
X380160Y457301D01*
X380164Y457307D01*
X380171Y457310D01*
X380205Y457363D01*
X380243Y457413D01*
X380244Y457421D01*
X380248Y457427D01*
X380259Y457500D01*
X380259Y467500D01*
X380251Y467525D01*
X380253Y467551D01*
X380232Y467591D01*
X380219Y467634D01*
X380200Y467651D01*
X380188Y467674D01*
X380148Y467696D01*
X380114Y467726D01*
X380088Y467730D01*
X380066Y467743D01*
X379992Y467749D01*
X376078Y467469D01*
X376069Y467465D01*
X376043Y467464D01*
X372209Y466630D01*
X372200Y466625D01*
X372175Y466620D01*
X368498Y465248D01*
X368491Y465243D01*
X368466Y465234D01*
X365022Y463353D01*
X365016Y463346D01*
X364992Y463334D01*
X361851Y460983D01*
X361846Y460975D01*
X361825Y460959D01*
X359050Y458185D01*
X359045Y458176D01*
X359027Y458158D01*
X356675Y455017D01*
X356672Y455008D01*
X356656Y454987D01*
X354776Y451543D01*
X354774Y451534D01*
X354761Y451511D01*
X353390Y447835D01*
X353389Y447825D01*
X353380Y447801D01*
X352546Y443967D01*
X352546Y443957D01*
X352541Y443931D01*
X352261Y440018D01*
X352263Y440008D01*
X352261Y439982D01*
X352541Y436069D01*
X352544Y436059D01*
X352546Y436033D01*
X353380Y432199D01*
X353384Y432191D01*
X353390Y432165D01*
X354761Y428489D01*
X354767Y428481D01*
X354776Y428457D01*
X356656Y425013D01*
X356663Y425006D01*
X356675Y424983D01*
X359027Y421842D01*
X359035Y421836D01*
X359050Y421815D01*
X361825Y419041D01*
X361833Y419036D01*
X361851Y419017D01*
X364992Y416666D01*
X365002Y416663D01*
X365022Y416647D01*
X368466Y414766D01*
X368475Y414764D01*
X368498Y414752D01*
X372175Y413380D01*
X372184Y413380D01*
X372209Y413370D01*
X376043Y412536D01*
X376052Y412537D01*
X376078Y412531D01*
X379992Y412251D01*
X380017Y412257D01*
G37*
G36*
X522924Y729145D02*
X522924Y729145D01*
X522990Y729147D01*
X523033Y729164D01*
X523080Y729173D01*
X523137Y729206D01*
X523197Y729231D01*
X523232Y729263D01*
X523273Y729287D01*
X523315Y729338D01*
X523363Y729382D01*
X523385Y729425D01*
X523414Y729461D01*
X523435Y729523D01*
X523466Y729582D01*
X523474Y729636D01*
X523486Y729674D01*
X523485Y729713D01*
X523493Y729767D01*
X523493Y732307D01*
X523482Y732372D01*
X523480Y732438D01*
X523462Y732482D01*
X523454Y732528D01*
X523420Y732585D01*
X523395Y732646D01*
X523364Y732681D01*
X523339Y732721D01*
X523288Y732763D01*
X523244Y732811D01*
X523202Y732833D01*
X523165Y732863D01*
X523103Y732884D01*
X523044Y732914D01*
X522990Y732922D01*
X522953Y732935D01*
X522913Y732934D01*
X522859Y732942D01*
X519049Y732942D01*
X518984Y732930D01*
X518918Y732928D01*
X518875Y732910D01*
X518828Y732902D01*
X518771Y732868D01*
X518711Y732844D01*
X518676Y732812D01*
X518635Y732788D01*
X518594Y732737D01*
X518545Y732692D01*
X518523Y732650D01*
X518494Y732614D01*
X518473Y732551D01*
X518442Y732493D01*
X518434Y732438D01*
X518422Y732401D01*
X518422Y732398D01*
X518423Y732361D01*
X518415Y732307D01*
X518415Y729767D01*
X518426Y729703D01*
X518428Y729637D01*
X518446Y729593D01*
X518454Y729547D01*
X518488Y729490D01*
X518513Y729429D01*
X518544Y729394D01*
X518569Y729353D01*
X518620Y729312D01*
X518664Y729263D01*
X518706Y729242D01*
X518743Y729212D01*
X518805Y729191D01*
X518864Y729161D01*
X518918Y729153D01*
X518955Y729140D01*
X518995Y729141D01*
X519049Y729133D01*
X522859Y729133D01*
X522924Y729145D01*
G37*
G36*
X137860Y729145D02*
X137860Y729145D01*
X137926Y729147D01*
X137969Y729164D01*
X138016Y729173D01*
X138073Y729206D01*
X138133Y729231D01*
X138168Y729263D01*
X138209Y729287D01*
X138251Y729338D01*
X138299Y729382D01*
X138321Y729425D01*
X138350Y729461D01*
X138371Y729523D01*
X138402Y729582D01*
X138410Y729636D01*
X138422Y729674D01*
X138421Y729713D01*
X138429Y729767D01*
X138429Y732307D01*
X138418Y732372D01*
X138416Y732438D01*
X138398Y732482D01*
X138390Y732528D01*
X138356Y732585D01*
X138331Y732646D01*
X138300Y732681D01*
X138275Y732721D01*
X138224Y732763D01*
X138180Y732811D01*
X138138Y732833D01*
X138101Y732863D01*
X138039Y732884D01*
X137980Y732914D01*
X137926Y732922D01*
X137889Y732935D01*
X137849Y732934D01*
X137795Y732942D01*
X133985Y732942D01*
X133920Y732930D01*
X133854Y732928D01*
X133811Y732910D01*
X133764Y732902D01*
X133707Y732868D01*
X133647Y732844D01*
X133612Y732812D01*
X133571Y732788D01*
X133530Y732737D01*
X133481Y732692D01*
X133459Y732650D01*
X133430Y732614D01*
X133409Y732551D01*
X133378Y732493D01*
X133370Y732438D01*
X133358Y732401D01*
X133358Y732398D01*
X133359Y732361D01*
X133351Y732307D01*
X133351Y729767D01*
X133362Y729703D01*
X133364Y729637D01*
X133382Y729593D01*
X133390Y729547D01*
X133424Y729490D01*
X133449Y729429D01*
X133480Y729394D01*
X133505Y729353D01*
X133556Y729312D01*
X133600Y729263D01*
X133642Y729242D01*
X133679Y729212D01*
X133741Y729191D01*
X133800Y729161D01*
X133854Y729153D01*
X133891Y729140D01*
X133931Y729141D01*
X133985Y729133D01*
X137795Y729133D01*
X137860Y729145D01*
G37*
G36*
X908013Y729145D02*
X908013Y729145D01*
X908079Y729147D01*
X908123Y729164D01*
X908169Y729173D01*
X908226Y729206D01*
X908287Y729231D01*
X908322Y729263D01*
X908362Y729287D01*
X908404Y729338D01*
X908452Y729382D01*
X908474Y729425D01*
X908504Y729461D01*
X908525Y729523D01*
X908555Y729582D01*
X908563Y729636D01*
X908576Y729674D01*
X908575Y729713D01*
X908583Y729767D01*
X908583Y732307D01*
X908571Y732372D01*
X908569Y732438D01*
X908551Y732482D01*
X908543Y732528D01*
X908509Y732585D01*
X908485Y732646D01*
X908453Y732681D01*
X908429Y732721D01*
X908378Y732763D01*
X908333Y732811D01*
X908291Y732833D01*
X908255Y732863D01*
X908192Y732884D01*
X908134Y732914D01*
X908079Y732922D01*
X908042Y732935D01*
X908003Y732934D01*
X907948Y732942D01*
X904138Y732942D01*
X904074Y732930D01*
X904008Y732928D01*
X903964Y732910D01*
X903918Y732902D01*
X903861Y732868D01*
X903800Y732844D01*
X903765Y732812D01*
X903724Y732788D01*
X903683Y732737D01*
X903634Y732692D01*
X903613Y732650D01*
X903583Y732614D01*
X903562Y732551D01*
X903532Y732493D01*
X903524Y732438D01*
X903511Y732401D01*
X903511Y732398D01*
X903512Y732361D01*
X903504Y732307D01*
X903504Y729767D01*
X903516Y729703D01*
X903518Y729637D01*
X903535Y729593D01*
X903544Y729547D01*
X903577Y729490D01*
X903602Y729429D01*
X903634Y729394D01*
X903658Y729353D01*
X903709Y729312D01*
X903753Y729263D01*
X903796Y729242D01*
X903832Y729212D01*
X903894Y729191D01*
X903953Y729161D01*
X904007Y729153D01*
X904045Y729140D01*
X904084Y729141D01*
X904138Y729133D01*
X907948Y729133D01*
X908013Y729145D01*
G37*
G36*
X1016243Y630567D02*
X1016243Y630567D01*
X1016308Y630569D01*
X1016352Y630587D01*
X1016399Y630595D01*
X1016455Y630629D01*
X1016516Y630654D01*
X1016551Y630685D01*
X1016592Y630710D01*
X1016633Y630761D01*
X1016682Y630805D01*
X1016703Y630847D01*
X1016733Y630884D01*
X1016754Y630946D01*
X1016784Y631005D01*
X1016793Y631059D01*
X1016805Y631096D01*
X1016804Y631136D01*
X1016812Y631190D01*
X1016812Y633730D01*
X1016800Y633795D01*
X1016798Y633861D01*
X1016781Y633904D01*
X1016772Y633951D01*
X1016739Y634008D01*
X1016714Y634068D01*
X1016682Y634103D01*
X1016658Y634144D01*
X1016607Y634186D01*
X1016563Y634234D01*
X1016521Y634256D01*
X1016484Y634285D01*
X1016422Y634306D01*
X1016363Y634337D01*
X1016309Y634345D01*
X1016272Y634357D01*
X1016232Y634356D01*
X1016178Y634364D01*
X1012368Y634364D01*
X1012303Y634353D01*
X1012237Y634351D01*
X1012194Y634333D01*
X1012147Y634325D01*
X1012090Y634291D01*
X1012029Y634266D01*
X1011995Y634235D01*
X1011954Y634210D01*
X1011912Y634159D01*
X1011864Y634115D01*
X1011842Y634073D01*
X1011812Y634036D01*
X1011791Y633974D01*
X1011761Y633915D01*
X1011753Y633861D01*
X1011741Y633824D01*
X1011741Y633821D01*
X1011742Y633784D01*
X1011734Y633730D01*
X1011734Y631190D01*
X1011745Y631125D01*
X1011747Y631059D01*
X1011765Y631016D01*
X1011773Y630969D01*
X1011807Y630912D01*
X1011831Y630852D01*
X1011863Y630817D01*
X1011887Y630776D01*
X1011938Y630735D01*
X1011983Y630686D01*
X1012025Y630664D01*
X1012062Y630635D01*
X1012124Y630614D01*
X1012182Y630583D01*
X1012237Y630575D01*
X1012274Y630563D01*
X1012313Y630564D01*
X1012368Y630556D01*
X1016178Y630556D01*
X1016243Y630567D01*
G37*
G36*
X246089Y630567D02*
X246089Y630567D01*
X246155Y630569D01*
X246199Y630587D01*
X246245Y630595D01*
X246302Y630629D01*
X246363Y630654D01*
X246398Y630685D01*
X246438Y630710D01*
X246480Y630761D01*
X246528Y630805D01*
X246550Y630847D01*
X246580Y630884D01*
X246601Y630946D01*
X246631Y631005D01*
X246639Y631059D01*
X246652Y631096D01*
X246651Y631136D01*
X246659Y631190D01*
X246659Y633730D01*
X246647Y633795D01*
X246645Y633861D01*
X246627Y633904D01*
X246619Y633951D01*
X246585Y634008D01*
X246561Y634068D01*
X246529Y634103D01*
X246505Y634144D01*
X246454Y634186D01*
X246409Y634234D01*
X246367Y634256D01*
X246331Y634285D01*
X246268Y634306D01*
X246210Y634337D01*
X246155Y634345D01*
X246118Y634357D01*
X246079Y634356D01*
X246024Y634364D01*
X242214Y634364D01*
X242150Y634353D01*
X242084Y634351D01*
X242040Y634333D01*
X241994Y634325D01*
X241937Y634291D01*
X241876Y634266D01*
X241841Y634235D01*
X241800Y634210D01*
X241759Y634159D01*
X241710Y634115D01*
X241689Y634073D01*
X241659Y634036D01*
X241638Y633974D01*
X241608Y633915D01*
X241600Y633861D01*
X241587Y633824D01*
X241587Y633821D01*
X241588Y633784D01*
X241580Y633730D01*
X241580Y631190D01*
X241592Y631125D01*
X241594Y631059D01*
X241611Y631016D01*
X241620Y630969D01*
X241653Y630912D01*
X241678Y630852D01*
X241710Y630817D01*
X241734Y630776D01*
X241785Y630735D01*
X241829Y630686D01*
X241872Y630664D01*
X241908Y630635D01*
X241970Y630614D01*
X242029Y630583D01*
X242083Y630575D01*
X242121Y630563D01*
X242160Y630564D01*
X242214Y630556D01*
X246024Y630556D01*
X246089Y630567D01*
G37*
G36*
X631179Y630567D02*
X631179Y630567D01*
X631244Y630569D01*
X631288Y630587D01*
X631335Y630595D01*
X631391Y630629D01*
X631452Y630654D01*
X631487Y630685D01*
X631528Y630710D01*
X631569Y630761D01*
X631618Y630805D01*
X631639Y630847D01*
X631669Y630884D01*
X631690Y630946D01*
X631720Y631005D01*
X631729Y631059D01*
X631741Y631096D01*
X631740Y631136D01*
X631748Y631190D01*
X631748Y633730D01*
X631736Y633795D01*
X631734Y633861D01*
X631717Y633904D01*
X631708Y633951D01*
X631675Y634008D01*
X631650Y634068D01*
X631618Y634103D01*
X631594Y634144D01*
X631543Y634186D01*
X631499Y634234D01*
X631457Y634256D01*
X631420Y634285D01*
X631358Y634306D01*
X631299Y634337D01*
X631245Y634345D01*
X631208Y634357D01*
X631168Y634356D01*
X631114Y634364D01*
X627304Y634364D01*
X627239Y634353D01*
X627173Y634351D01*
X627130Y634333D01*
X627083Y634325D01*
X627026Y634291D01*
X626965Y634266D01*
X626931Y634235D01*
X626890Y634210D01*
X626848Y634159D01*
X626800Y634115D01*
X626778Y634073D01*
X626748Y634036D01*
X626727Y633974D01*
X626697Y633915D01*
X626689Y633861D01*
X626677Y633824D01*
X626677Y633821D01*
X626678Y633784D01*
X626670Y633730D01*
X626670Y631190D01*
X626681Y631125D01*
X626683Y631059D01*
X626701Y631016D01*
X626709Y630969D01*
X626743Y630912D01*
X626767Y630852D01*
X626799Y630817D01*
X626823Y630776D01*
X626874Y630735D01*
X626919Y630686D01*
X626961Y630664D01*
X626998Y630635D01*
X627060Y630614D01*
X627118Y630583D01*
X627173Y630575D01*
X627210Y630563D01*
X627249Y630564D01*
X627304Y630556D01*
X631114Y630556D01*
X631179Y630567D01*
G37*
D10*
X281249Y6010D02*
X278769Y6010D01*
X278769Y24490D01*
X281249Y24490D01*
X281249Y6010D01*
X281249Y8185D02*
X278769Y8185D01*
X278769Y10360D02*
X281249Y10360D01*
X281249Y12535D02*
X278769Y12535D01*
X278769Y14710D02*
X281249Y14710D01*
X281249Y16885D02*
X278769Y16885D01*
X278769Y19060D02*
X281249Y19060D01*
X281249Y21235D02*
X278769Y21235D01*
X278769Y23410D02*
X281249Y23410D01*
X276249Y6010D02*
X273769Y6010D01*
X273769Y24490D01*
X276249Y24490D01*
X276249Y6010D01*
X276249Y8185D02*
X273769Y8185D01*
X273769Y10360D02*
X276249Y10360D01*
X276249Y12535D02*
X273769Y12535D01*
X273769Y14710D02*
X276249Y14710D01*
X276249Y16885D02*
X273769Y16885D01*
X273769Y19060D02*
X276249Y19060D01*
X276249Y21235D02*
X273769Y21235D01*
X273769Y23410D02*
X276249Y23410D01*
X271249Y6010D02*
X268769Y6010D01*
X268769Y24490D01*
X271249Y24490D01*
X271249Y6010D01*
X271249Y8185D02*
X268769Y8185D01*
X268769Y10360D02*
X271249Y10360D01*
X271249Y12535D02*
X268769Y12535D01*
X268769Y14710D02*
X271249Y14710D01*
X271249Y16885D02*
X268769Y16885D01*
X268769Y19060D02*
X271249Y19060D01*
X271249Y21235D02*
X268769Y21235D01*
X268769Y23410D02*
X271249Y23410D01*
X266249Y6010D02*
X263769Y6010D01*
X263769Y24490D01*
X266249Y24490D01*
X266249Y6010D01*
X266249Y8185D02*
X263769Y8185D01*
X263769Y10360D02*
X266249Y10360D01*
X266249Y12535D02*
X263769Y12535D01*
X263769Y14710D02*
X266249Y14710D01*
X266249Y16885D02*
X263769Y16885D01*
X263769Y19060D02*
X266249Y19060D01*
X266249Y21235D02*
X263769Y21235D01*
X263769Y23410D02*
X266249Y23410D01*
X261249Y6010D02*
X258769Y6010D01*
X258769Y24490D01*
X261249Y24490D01*
X261249Y6010D01*
X261249Y8185D02*
X258769Y8185D01*
X258769Y10360D02*
X261249Y10360D01*
X261249Y12535D02*
X258769Y12535D01*
X258769Y14710D02*
X261249Y14710D01*
X261249Y16885D02*
X258769Y16885D01*
X258769Y19060D02*
X261249Y19060D01*
X261249Y21235D02*
X258769Y21235D01*
X258769Y23410D02*
X261249Y23410D01*
X256249Y6010D02*
X253769Y6010D01*
X253769Y24490D01*
X256249Y24490D01*
X256249Y6010D01*
X256249Y8185D02*
X253769Y8185D01*
X253769Y10360D02*
X256249Y10360D01*
X256249Y12535D02*
X253769Y12535D01*
X253769Y14710D02*
X256249Y14710D01*
X256249Y16885D02*
X253769Y16885D01*
X253769Y19060D02*
X256249Y19060D01*
X256249Y21235D02*
X253769Y21235D01*
X253769Y23410D02*
X256249Y23410D01*
X251249Y6010D02*
X248769Y6010D01*
X248769Y24490D01*
X251249Y24490D01*
X251249Y6010D01*
X251249Y8185D02*
X248769Y8185D01*
X248769Y10360D02*
X251249Y10360D01*
X251249Y12535D02*
X248769Y12535D01*
X248769Y14710D02*
X251249Y14710D01*
X251249Y16885D02*
X248769Y16885D01*
X248769Y19060D02*
X251249Y19060D01*
X251249Y21235D02*
X248769Y21235D01*
X248769Y23410D02*
X251249Y23410D01*
X246249Y6010D02*
X243769Y6010D01*
X243769Y24490D01*
X246249Y24490D01*
X246249Y6010D01*
X246249Y8185D02*
X243769Y8185D01*
X243769Y10360D02*
X246249Y10360D01*
X246249Y12535D02*
X243769Y12535D01*
X243769Y14710D02*
X246249Y14710D01*
X246249Y16885D02*
X243769Y16885D01*
X243769Y19060D02*
X246249Y19060D01*
X246249Y21235D02*
X243769Y21235D01*
X243769Y23410D02*
X246249Y23410D01*
X241249Y6010D02*
X238769Y6010D01*
X238769Y24490D01*
X241249Y24490D01*
X241249Y6010D01*
X241249Y8185D02*
X238769Y8185D01*
X238769Y10360D02*
X241249Y10360D01*
X241249Y12535D02*
X238769Y12535D01*
X238769Y14710D02*
X241249Y14710D01*
X241249Y16885D02*
X238769Y16885D01*
X238769Y19060D02*
X241249Y19060D01*
X241249Y21235D02*
X238769Y21235D01*
X238769Y23410D02*
X241249Y23410D01*
X236249Y6010D02*
X233769Y6010D01*
X233769Y24490D01*
X236249Y24490D01*
X236249Y6010D01*
X236249Y8185D02*
X233769Y8185D01*
X233769Y10360D02*
X236249Y10360D01*
X236249Y12535D02*
X233769Y12535D01*
X233769Y14710D02*
X236249Y14710D01*
X236249Y16885D02*
X233769Y16885D01*
X233769Y19060D02*
X236249Y19060D01*
X236249Y21235D02*
X233769Y21235D01*
X233769Y23410D02*
X236249Y23410D01*
X231249Y6010D02*
X228769Y6010D01*
X228769Y24490D01*
X231249Y24490D01*
X231249Y6010D01*
X231249Y8185D02*
X228769Y8185D01*
X228769Y10360D02*
X231249Y10360D01*
X231249Y12535D02*
X228769Y12535D01*
X228769Y14710D02*
X231249Y14710D01*
X231249Y16885D02*
X228769Y16885D01*
X228769Y19060D02*
X231249Y19060D01*
X231249Y21235D02*
X228769Y21235D01*
X228769Y23410D02*
X231249Y23410D01*
X206249Y6010D02*
X203769Y6010D01*
X203769Y24490D01*
X206249Y24490D01*
X206249Y6010D01*
X206249Y8185D02*
X203769Y8185D01*
X203769Y10360D02*
X206249Y10360D01*
X206249Y12535D02*
X203769Y12535D01*
X203769Y14710D02*
X206249Y14710D01*
X206249Y16885D02*
X203769Y16885D01*
X203769Y19060D02*
X206249Y19060D01*
X206249Y21235D02*
X203769Y21235D01*
X203769Y23410D02*
X206249Y23410D01*
X201249Y6010D02*
X198769Y6010D01*
X198769Y24490D01*
X201249Y24490D01*
X201249Y6010D01*
X201249Y8185D02*
X198769Y8185D01*
X198769Y10360D02*
X201249Y10360D01*
X201249Y12535D02*
X198769Y12535D01*
X198769Y14710D02*
X201249Y14710D01*
X201249Y16885D02*
X198769Y16885D01*
X198769Y19060D02*
X201249Y19060D01*
X201249Y21235D02*
X198769Y21235D01*
X198769Y23410D02*
X201249Y23410D01*
X196249Y6010D02*
X193769Y6010D01*
X193769Y24490D01*
X196249Y24490D01*
X196249Y6010D01*
X196249Y8185D02*
X193769Y8185D01*
X193769Y10360D02*
X196249Y10360D01*
X196249Y12535D02*
X193769Y12535D01*
X193769Y14710D02*
X196249Y14710D01*
X196249Y16885D02*
X193769Y16885D01*
X193769Y19060D02*
X196249Y19060D01*
X196249Y21235D02*
X193769Y21235D01*
X193769Y23410D02*
X196249Y23410D01*
X191249Y6010D02*
X188769Y6010D01*
X188769Y24490D01*
X191249Y24490D01*
X191249Y6010D01*
X191249Y8185D02*
X188769Y8185D01*
X188769Y10360D02*
X191249Y10360D01*
X191249Y12535D02*
X188769Y12535D01*
X188769Y14710D02*
X191249Y14710D01*
X191249Y16885D02*
X188769Y16885D01*
X188769Y19060D02*
X191249Y19060D01*
X191249Y21235D02*
X188769Y21235D01*
X188769Y23410D02*
X191249Y23410D01*
X186249Y6010D02*
X183769Y6010D01*
X183769Y24490D01*
X186249Y24490D01*
X186249Y6010D01*
X186249Y8185D02*
X183769Y8185D01*
X183769Y10360D02*
X186249Y10360D01*
X186249Y12535D02*
X183769Y12535D01*
X183769Y14710D02*
X186249Y14710D01*
X186249Y16885D02*
X183769Y16885D01*
X183769Y19060D02*
X186249Y19060D01*
X186249Y21235D02*
X183769Y21235D01*
X183769Y23410D02*
X186249Y23410D01*
X181249Y6010D02*
X178769Y6010D01*
X178769Y24490D01*
X181249Y24490D01*
X181249Y6010D01*
X181249Y8185D02*
X178769Y8185D01*
X178769Y10360D02*
X181249Y10360D01*
X181249Y12535D02*
X178769Y12535D01*
X178769Y14710D02*
X181249Y14710D01*
X181249Y16885D02*
X178769Y16885D01*
X178769Y19060D02*
X181249Y19060D01*
X181249Y21235D02*
X178769Y21235D01*
X178769Y23410D02*
X181249Y23410D01*
X176249Y6010D02*
X173769Y6010D01*
X173769Y24490D01*
X176249Y24490D01*
X176249Y6010D01*
X176249Y8185D02*
X173769Y8185D01*
X173769Y10360D02*
X176249Y10360D01*
X176249Y12535D02*
X173769Y12535D01*
X173769Y14710D02*
X176249Y14710D01*
X176249Y16885D02*
X173769Y16885D01*
X173769Y19060D02*
X176249Y19060D01*
X176249Y21235D02*
X173769Y21235D01*
X173769Y23410D02*
X176249Y23410D01*
X171249Y6010D02*
X168769Y6010D01*
X168769Y24490D01*
X171249Y24490D01*
X171249Y6010D01*
X171249Y8185D02*
X168769Y8185D01*
X168769Y10360D02*
X171249Y10360D01*
X171249Y12535D02*
X168769Y12535D01*
X168769Y14710D02*
X171249Y14710D01*
X171249Y16885D02*
X168769Y16885D01*
X168769Y19060D02*
X171249Y19060D01*
X171249Y21235D02*
X168769Y21235D01*
X168769Y23410D02*
X171249Y23410D01*
X166249Y6010D02*
X163769Y6010D01*
X163769Y24490D01*
X166249Y24490D01*
X166249Y6010D01*
X166249Y8185D02*
X163769Y8185D01*
X163769Y10360D02*
X166249Y10360D01*
X166249Y12535D02*
X163769Y12535D01*
X163769Y14710D02*
X166249Y14710D01*
X166249Y16885D02*
X163769Y16885D01*
X163769Y19060D02*
X166249Y19060D01*
X166249Y21235D02*
X163769Y21235D01*
X163769Y23410D02*
X166249Y23410D01*
X161249Y6010D02*
X158769Y6010D01*
X158769Y24490D01*
X161249Y24490D01*
X161249Y6010D01*
X161249Y8185D02*
X158769Y8185D01*
X158769Y10360D02*
X161249Y10360D01*
X161249Y12535D02*
X158769Y12535D01*
X158769Y14710D02*
X161249Y14710D01*
X161249Y16885D02*
X158769Y16885D01*
X158769Y19060D02*
X161249Y19060D01*
X161249Y21235D02*
X158769Y21235D01*
X158769Y23410D02*
X161249Y23410D01*
X156249Y6010D02*
X153769Y6010D01*
X153769Y24490D01*
X156249Y24490D01*
X156249Y6010D01*
X156249Y8185D02*
X153769Y8185D01*
X153769Y10360D02*
X156249Y10360D01*
X156249Y12535D02*
X153769Y12535D01*
X153769Y14710D02*
X156249Y14710D01*
X156249Y16885D02*
X153769Y16885D01*
X153769Y19060D02*
X156249Y19060D01*
X156249Y21235D02*
X153769Y21235D01*
X153769Y23410D02*
X156249Y23410D01*
X151249Y6010D02*
X148769Y6010D01*
X148769Y24490D01*
X151249Y24490D01*
X151249Y6010D01*
X151249Y8185D02*
X148769Y8185D01*
X148769Y10360D02*
X151249Y10360D01*
X151249Y12535D02*
X148769Y12535D01*
X148769Y14710D02*
X151249Y14710D01*
X151249Y16885D02*
X148769Y16885D01*
X148769Y19060D02*
X151249Y19060D01*
X151249Y21235D02*
X148769Y21235D01*
X148769Y23410D02*
X151249Y23410D01*
X146249Y6010D02*
X143769Y6010D01*
X143769Y24490D01*
X146249Y24490D01*
X146249Y6010D01*
X146249Y8185D02*
X143769Y8185D01*
X143769Y10360D02*
X146249Y10360D01*
X146249Y12535D02*
X143769Y12535D01*
X143769Y14710D02*
X146249Y14710D01*
X146249Y16885D02*
X143769Y16885D01*
X143769Y19060D02*
X146249Y19060D01*
X146249Y21235D02*
X143769Y21235D01*
X143769Y23410D02*
X146249Y23410D01*
X141249Y6010D02*
X138769Y6010D01*
X138769Y24490D01*
X141249Y24490D01*
X141249Y6010D01*
X141249Y8185D02*
X138769Y8185D01*
X138769Y10360D02*
X141249Y10360D01*
X141249Y12535D02*
X138769Y12535D01*
X138769Y14710D02*
X141249Y14710D01*
X141249Y16885D02*
X138769Y16885D01*
X138769Y19060D02*
X141249Y19060D01*
X141249Y21235D02*
X138769Y21235D01*
X138769Y23410D02*
X141249Y23410D01*
X136249Y6010D02*
X133769Y6010D01*
X133769Y24490D01*
X136249Y24490D01*
X136249Y6010D01*
X136249Y8185D02*
X133769Y8185D01*
X133769Y10360D02*
X136249Y10360D01*
X136249Y12535D02*
X133769Y12535D01*
X133769Y14710D02*
X136249Y14710D01*
X136249Y16885D02*
X133769Y16885D01*
X133769Y19060D02*
X136249Y19060D01*
X136249Y21235D02*
X133769Y21235D01*
X133769Y23410D02*
X136249Y23410D01*
X131249Y6010D02*
X128769Y6010D01*
X128769Y24490D01*
X131249Y24490D01*
X131249Y6010D01*
X131249Y8185D02*
X128769Y8185D01*
X128769Y10360D02*
X131249Y10360D01*
X131249Y12535D02*
X128769Y12535D01*
X128769Y14710D02*
X131249Y14710D01*
X131249Y16885D02*
X128769Y16885D01*
X128769Y19060D02*
X131249Y19060D01*
X131249Y21235D02*
X128769Y21235D01*
X128769Y23410D02*
X131249Y23410D01*
X126249Y6010D02*
X123769Y6010D01*
X123769Y24490D01*
X126249Y24490D01*
X126249Y6010D01*
X126249Y8185D02*
X123769Y8185D01*
X123769Y10360D02*
X126249Y10360D01*
X126249Y12535D02*
X123769Y12535D01*
X123769Y14710D02*
X126249Y14710D01*
X126249Y16885D02*
X123769Y16885D01*
X123769Y19060D02*
X126249Y19060D01*
X126249Y21235D02*
X123769Y21235D01*
X123769Y23410D02*
X126249Y23410D01*
X121249Y6010D02*
X118769Y6010D01*
X118769Y24490D01*
X121249Y24490D01*
X121249Y6010D01*
X121249Y8185D02*
X118769Y8185D01*
X118769Y10360D02*
X121249Y10360D01*
X121249Y12535D02*
X118769Y12535D01*
X118769Y14710D02*
X121249Y14710D01*
X121249Y16885D02*
X118769Y16885D01*
X118769Y19060D02*
X121249Y19060D01*
X121249Y21235D02*
X118769Y21235D01*
X118769Y23410D02*
X121249Y23410D01*
X116249Y6010D02*
X113769Y6010D01*
X113769Y24490D01*
X116249Y24490D01*
X116249Y6010D01*
X116249Y8185D02*
X113769Y8185D01*
X113769Y10360D02*
X116249Y10360D01*
X116249Y12535D02*
X113769Y12535D01*
X113769Y14710D02*
X116249Y14710D01*
X116249Y16885D02*
X113769Y16885D01*
X113769Y19060D02*
X116249Y19060D01*
X116249Y21235D02*
X113769Y21235D01*
X113769Y23410D02*
X116249Y23410D01*
X111249Y6010D02*
X108769Y6010D01*
X108769Y24490D01*
X111249Y24490D01*
X111249Y6010D01*
X111249Y8185D02*
X108769Y8185D01*
X108769Y10360D02*
X111249Y10360D01*
X111249Y12535D02*
X108769Y12535D01*
X108769Y14710D02*
X111249Y14710D01*
X111249Y16885D02*
X108769Y16885D01*
X108769Y19060D02*
X111249Y19060D01*
X111249Y21235D02*
X108769Y21235D01*
X108769Y23410D02*
X111249Y23410D01*
X106249Y6010D02*
X103769Y6010D01*
X103769Y24490D01*
X106249Y24490D01*
X106249Y6010D01*
X106249Y8185D02*
X103769Y8185D01*
X103769Y10360D02*
X106249Y10360D01*
X106249Y12535D02*
X103769Y12535D01*
X103769Y14710D02*
X106249Y14710D01*
X106249Y16885D02*
X103769Y16885D01*
X103769Y19060D02*
X106249Y19060D01*
X106249Y21235D02*
X103769Y21235D01*
X103769Y23410D02*
X106249Y23410D01*
X101249Y6010D02*
X98769Y6010D01*
X98769Y24490D01*
X101249Y24490D01*
X101249Y6010D01*
X101249Y8185D02*
X98769Y8185D01*
X98769Y10360D02*
X101249Y10360D01*
X101249Y12535D02*
X98769Y12535D01*
X98769Y14710D02*
X101249Y14710D01*
X101249Y16885D02*
X98769Y16885D01*
X98769Y19060D02*
X101249Y19060D01*
X101249Y21235D02*
X98769Y21235D01*
X98769Y23410D02*
X101249Y23410D01*
D11*
X370009Y461000D03*
X370009Y419000D03*
X357009Y440000D03*
X10009Y419000D03*
X10009Y461000D03*
X23009Y440000D03*
D12*
X153949Y396240D03*
X141249Y396240D03*
X128549Y396240D03*
X115849Y396240D03*
X166649Y396240D03*
X153949Y383540D03*
X141249Y383540D03*
X128549Y383540D03*
X115849Y383540D03*
X166649Y383540D03*
D13*
X128549Y419100D03*
D14*
X236116Y626616D02*
X241708Y626616D01*
X236116Y626616D02*
X236116Y638304D01*
X241708Y638304D01*
X241708Y626616D01*
X241708Y628785D02*
X236116Y628785D01*
X236116Y630954D02*
X241708Y630954D01*
X241708Y633123D02*
X236116Y633123D01*
X236116Y635292D02*
X241708Y635292D01*
X241708Y637461D02*
X236116Y637461D01*
X246530Y626616D02*
X252122Y626616D01*
X246530Y626616D02*
X246530Y638304D01*
X252122Y638304D01*
X252122Y626616D01*
X252122Y628785D02*
X246530Y628785D01*
X246530Y630954D02*
X252122Y630954D01*
X252122Y633123D02*
X246530Y633123D01*
X246530Y635292D02*
X252122Y635292D01*
X252122Y637461D02*
X246530Y637461D01*
D15*
X355569Y599920D03*
X297769Y599920D03*
D12*
X9169Y48260D03*
X367563Y509016D03*
D16*
X219100Y90932D02*
X213766Y90932D01*
X219100Y90932D02*
X219100Y79248D01*
X213766Y79248D01*
X213766Y90932D01*
X213766Y81420D02*
X219100Y81420D01*
X219100Y83592D02*
X213766Y83592D01*
X213766Y85764D02*
X219100Y85764D01*
X219100Y87936D02*
X213766Y87936D01*
X213766Y90108D02*
X219100Y90108D01*
X210972Y90932D02*
X205638Y90932D01*
X210972Y90932D02*
X210972Y79248D01*
X205638Y79248D01*
X205638Y90932D01*
X205638Y81420D02*
X210972Y81420D01*
X210972Y83592D02*
X205638Y83592D01*
X205638Y85764D02*
X210972Y85764D01*
X210972Y87936D02*
X205638Y87936D01*
X205638Y90108D02*
X210972Y90108D01*
D10*
X663859Y6010D02*
X666339Y6010D01*
X663859Y6010D02*
X663859Y24490D01*
X666339Y24490D01*
X666339Y6010D01*
X666339Y8185D02*
X663859Y8185D01*
X663859Y10360D02*
X666339Y10360D01*
X666339Y12535D02*
X663859Y12535D01*
X663859Y14710D02*
X666339Y14710D01*
X666339Y16885D02*
X663859Y16885D01*
X663859Y19060D02*
X666339Y19060D01*
X666339Y21235D02*
X663859Y21235D01*
X663859Y23410D02*
X666339Y23410D01*
X661339Y6010D02*
X658859Y6010D01*
X658859Y24490D01*
X661339Y24490D01*
X661339Y6010D01*
X661339Y8185D02*
X658859Y8185D01*
X658859Y10360D02*
X661339Y10360D01*
X661339Y12535D02*
X658859Y12535D01*
X658859Y14710D02*
X661339Y14710D01*
X661339Y16885D02*
X658859Y16885D01*
X658859Y19060D02*
X661339Y19060D01*
X661339Y21235D02*
X658859Y21235D01*
X658859Y23410D02*
X661339Y23410D01*
X656339Y6010D02*
X653859Y6010D01*
X653859Y24490D01*
X656339Y24490D01*
X656339Y6010D01*
X656339Y8185D02*
X653859Y8185D01*
X653859Y10360D02*
X656339Y10360D01*
X656339Y12535D02*
X653859Y12535D01*
X653859Y14710D02*
X656339Y14710D01*
X656339Y16885D02*
X653859Y16885D01*
X653859Y19060D02*
X656339Y19060D01*
X656339Y21235D02*
X653859Y21235D01*
X653859Y23410D02*
X656339Y23410D01*
X651339Y6010D02*
X648859Y6010D01*
X648859Y24490D01*
X651339Y24490D01*
X651339Y6010D01*
X651339Y8185D02*
X648859Y8185D01*
X648859Y10360D02*
X651339Y10360D01*
X651339Y12535D02*
X648859Y12535D01*
X648859Y14710D02*
X651339Y14710D01*
X651339Y16885D02*
X648859Y16885D01*
X648859Y19060D02*
X651339Y19060D01*
X651339Y21235D02*
X648859Y21235D01*
X648859Y23410D02*
X651339Y23410D01*
X646339Y6010D02*
X643859Y6010D01*
X643859Y24490D01*
X646339Y24490D01*
X646339Y6010D01*
X646339Y8185D02*
X643859Y8185D01*
X643859Y10360D02*
X646339Y10360D01*
X646339Y12535D02*
X643859Y12535D01*
X643859Y14710D02*
X646339Y14710D01*
X646339Y16885D02*
X643859Y16885D01*
X643859Y19060D02*
X646339Y19060D01*
X646339Y21235D02*
X643859Y21235D01*
X643859Y23410D02*
X646339Y23410D01*
X641339Y6010D02*
X638859Y6010D01*
X638859Y24490D01*
X641339Y24490D01*
X641339Y6010D01*
X641339Y8185D02*
X638859Y8185D01*
X638859Y10360D02*
X641339Y10360D01*
X641339Y12535D02*
X638859Y12535D01*
X638859Y14710D02*
X641339Y14710D01*
X641339Y16885D02*
X638859Y16885D01*
X638859Y19060D02*
X641339Y19060D01*
X641339Y21235D02*
X638859Y21235D01*
X638859Y23410D02*
X641339Y23410D01*
X636339Y6010D02*
X633859Y6010D01*
X633859Y24490D01*
X636339Y24490D01*
X636339Y6010D01*
X636339Y8185D02*
X633859Y8185D01*
X633859Y10360D02*
X636339Y10360D01*
X636339Y12535D02*
X633859Y12535D01*
X633859Y14710D02*
X636339Y14710D01*
X636339Y16885D02*
X633859Y16885D01*
X633859Y19060D02*
X636339Y19060D01*
X636339Y21235D02*
X633859Y21235D01*
X633859Y23410D02*
X636339Y23410D01*
X631339Y6010D02*
X628859Y6010D01*
X628859Y24490D01*
X631339Y24490D01*
X631339Y6010D01*
X631339Y8185D02*
X628859Y8185D01*
X628859Y10360D02*
X631339Y10360D01*
X631339Y12535D02*
X628859Y12535D01*
X628859Y14710D02*
X631339Y14710D01*
X631339Y16885D02*
X628859Y16885D01*
X628859Y19060D02*
X631339Y19060D01*
X631339Y21235D02*
X628859Y21235D01*
X628859Y23410D02*
X631339Y23410D01*
X626339Y6010D02*
X623859Y6010D01*
X623859Y24490D01*
X626339Y24490D01*
X626339Y6010D01*
X626339Y8185D02*
X623859Y8185D01*
X623859Y10360D02*
X626339Y10360D01*
X626339Y12535D02*
X623859Y12535D01*
X623859Y14710D02*
X626339Y14710D01*
X626339Y16885D02*
X623859Y16885D01*
X623859Y19060D02*
X626339Y19060D01*
X626339Y21235D02*
X623859Y21235D01*
X623859Y23410D02*
X626339Y23410D01*
X621339Y6010D02*
X618859Y6010D01*
X618859Y24490D01*
X621339Y24490D01*
X621339Y6010D01*
X621339Y8185D02*
X618859Y8185D01*
X618859Y10360D02*
X621339Y10360D01*
X621339Y12535D02*
X618859Y12535D01*
X618859Y14710D02*
X621339Y14710D01*
X621339Y16885D02*
X618859Y16885D01*
X618859Y19060D02*
X621339Y19060D01*
X621339Y21235D02*
X618859Y21235D01*
X618859Y23410D02*
X621339Y23410D01*
X616339Y6010D02*
X613859Y6010D01*
X613859Y24490D01*
X616339Y24490D01*
X616339Y6010D01*
X616339Y8185D02*
X613859Y8185D01*
X613859Y10360D02*
X616339Y10360D01*
X616339Y12535D02*
X613859Y12535D01*
X613859Y14710D02*
X616339Y14710D01*
X616339Y16885D02*
X613859Y16885D01*
X613859Y19060D02*
X616339Y19060D01*
X616339Y21235D02*
X613859Y21235D01*
X613859Y23410D02*
X616339Y23410D01*
X591339Y6010D02*
X588859Y6010D01*
X588859Y24490D01*
X591339Y24490D01*
X591339Y6010D01*
X591339Y8185D02*
X588859Y8185D01*
X588859Y10360D02*
X591339Y10360D01*
X591339Y12535D02*
X588859Y12535D01*
X588859Y14710D02*
X591339Y14710D01*
X591339Y16885D02*
X588859Y16885D01*
X588859Y19060D02*
X591339Y19060D01*
X591339Y21235D02*
X588859Y21235D01*
X588859Y23410D02*
X591339Y23410D01*
X586339Y6010D02*
X583859Y6010D01*
X583859Y24490D01*
X586339Y24490D01*
X586339Y6010D01*
X586339Y8185D02*
X583859Y8185D01*
X583859Y10360D02*
X586339Y10360D01*
X586339Y12535D02*
X583859Y12535D01*
X583859Y14710D02*
X586339Y14710D01*
X586339Y16885D02*
X583859Y16885D01*
X583859Y19060D02*
X586339Y19060D01*
X586339Y21235D02*
X583859Y21235D01*
X583859Y23410D02*
X586339Y23410D01*
X581339Y6010D02*
X578859Y6010D01*
X578859Y24490D01*
X581339Y24490D01*
X581339Y6010D01*
X581339Y8185D02*
X578859Y8185D01*
X578859Y10360D02*
X581339Y10360D01*
X581339Y12535D02*
X578859Y12535D01*
X578859Y14710D02*
X581339Y14710D01*
X581339Y16885D02*
X578859Y16885D01*
X578859Y19060D02*
X581339Y19060D01*
X581339Y21235D02*
X578859Y21235D01*
X578859Y23410D02*
X581339Y23410D01*
X576339Y6010D02*
X573859Y6010D01*
X573859Y24490D01*
X576339Y24490D01*
X576339Y6010D01*
X576339Y8185D02*
X573859Y8185D01*
X573859Y10360D02*
X576339Y10360D01*
X576339Y12535D02*
X573859Y12535D01*
X573859Y14710D02*
X576339Y14710D01*
X576339Y16885D02*
X573859Y16885D01*
X573859Y19060D02*
X576339Y19060D01*
X576339Y21235D02*
X573859Y21235D01*
X573859Y23410D02*
X576339Y23410D01*
X571339Y6010D02*
X568859Y6010D01*
X568859Y24490D01*
X571339Y24490D01*
X571339Y6010D01*
X571339Y8185D02*
X568859Y8185D01*
X568859Y10360D02*
X571339Y10360D01*
X571339Y12535D02*
X568859Y12535D01*
X568859Y14710D02*
X571339Y14710D01*
X571339Y16885D02*
X568859Y16885D01*
X568859Y19060D02*
X571339Y19060D01*
X571339Y21235D02*
X568859Y21235D01*
X568859Y23410D02*
X571339Y23410D01*
X566339Y6010D02*
X563859Y6010D01*
X563859Y24490D01*
X566339Y24490D01*
X566339Y6010D01*
X566339Y8185D02*
X563859Y8185D01*
X563859Y10360D02*
X566339Y10360D01*
X566339Y12535D02*
X563859Y12535D01*
X563859Y14710D02*
X566339Y14710D01*
X566339Y16885D02*
X563859Y16885D01*
X563859Y19060D02*
X566339Y19060D01*
X566339Y21235D02*
X563859Y21235D01*
X563859Y23410D02*
X566339Y23410D01*
X561339Y6010D02*
X558859Y6010D01*
X558859Y24490D01*
X561339Y24490D01*
X561339Y6010D01*
X561339Y8185D02*
X558859Y8185D01*
X558859Y10360D02*
X561339Y10360D01*
X561339Y12535D02*
X558859Y12535D01*
X558859Y14710D02*
X561339Y14710D01*
X561339Y16885D02*
X558859Y16885D01*
X558859Y19060D02*
X561339Y19060D01*
X561339Y21235D02*
X558859Y21235D01*
X558859Y23410D02*
X561339Y23410D01*
X556339Y6010D02*
X553859Y6010D01*
X553859Y24490D01*
X556339Y24490D01*
X556339Y6010D01*
X556339Y8185D02*
X553859Y8185D01*
X553859Y10360D02*
X556339Y10360D01*
X556339Y12535D02*
X553859Y12535D01*
X553859Y14710D02*
X556339Y14710D01*
X556339Y16885D02*
X553859Y16885D01*
X553859Y19060D02*
X556339Y19060D01*
X556339Y21235D02*
X553859Y21235D01*
X553859Y23410D02*
X556339Y23410D01*
X551339Y6010D02*
X548859Y6010D01*
X548859Y24490D01*
X551339Y24490D01*
X551339Y6010D01*
X551339Y8185D02*
X548859Y8185D01*
X548859Y10360D02*
X551339Y10360D01*
X551339Y12535D02*
X548859Y12535D01*
X548859Y14710D02*
X551339Y14710D01*
X551339Y16885D02*
X548859Y16885D01*
X548859Y19060D02*
X551339Y19060D01*
X551339Y21235D02*
X548859Y21235D01*
X548859Y23410D02*
X551339Y23410D01*
X546339Y6010D02*
X543859Y6010D01*
X543859Y24490D01*
X546339Y24490D01*
X546339Y6010D01*
X546339Y8185D02*
X543859Y8185D01*
X543859Y10360D02*
X546339Y10360D01*
X546339Y12535D02*
X543859Y12535D01*
X543859Y14710D02*
X546339Y14710D01*
X546339Y16885D02*
X543859Y16885D01*
X543859Y19060D02*
X546339Y19060D01*
X546339Y21235D02*
X543859Y21235D01*
X543859Y23410D02*
X546339Y23410D01*
X541339Y6010D02*
X538859Y6010D01*
X538859Y24490D01*
X541339Y24490D01*
X541339Y6010D01*
X541339Y8185D02*
X538859Y8185D01*
X538859Y10360D02*
X541339Y10360D01*
X541339Y12535D02*
X538859Y12535D01*
X538859Y14710D02*
X541339Y14710D01*
X541339Y16885D02*
X538859Y16885D01*
X538859Y19060D02*
X541339Y19060D01*
X541339Y21235D02*
X538859Y21235D01*
X538859Y23410D02*
X541339Y23410D01*
X536339Y6010D02*
X533859Y6010D01*
X533859Y24490D01*
X536339Y24490D01*
X536339Y6010D01*
X536339Y8185D02*
X533859Y8185D01*
X533859Y10360D02*
X536339Y10360D01*
X536339Y12535D02*
X533859Y12535D01*
X533859Y14710D02*
X536339Y14710D01*
X536339Y16885D02*
X533859Y16885D01*
X533859Y19060D02*
X536339Y19060D01*
X536339Y21235D02*
X533859Y21235D01*
X533859Y23410D02*
X536339Y23410D01*
X531339Y6010D02*
X528859Y6010D01*
X528859Y24490D01*
X531339Y24490D01*
X531339Y6010D01*
X531339Y8185D02*
X528859Y8185D01*
X528859Y10360D02*
X531339Y10360D01*
X531339Y12535D02*
X528859Y12535D01*
X528859Y14710D02*
X531339Y14710D01*
X531339Y16885D02*
X528859Y16885D01*
X528859Y19060D02*
X531339Y19060D01*
X531339Y21235D02*
X528859Y21235D01*
X528859Y23410D02*
X531339Y23410D01*
X526339Y6010D02*
X523859Y6010D01*
X523859Y24490D01*
X526339Y24490D01*
X526339Y6010D01*
X526339Y8185D02*
X523859Y8185D01*
X523859Y10360D02*
X526339Y10360D01*
X526339Y12535D02*
X523859Y12535D01*
X523859Y14710D02*
X526339Y14710D01*
X526339Y16885D02*
X523859Y16885D01*
X523859Y19060D02*
X526339Y19060D01*
X526339Y21235D02*
X523859Y21235D01*
X523859Y23410D02*
X526339Y23410D01*
X521339Y6010D02*
X518859Y6010D01*
X518859Y24490D01*
X521339Y24490D01*
X521339Y6010D01*
X521339Y8185D02*
X518859Y8185D01*
X518859Y10360D02*
X521339Y10360D01*
X521339Y12535D02*
X518859Y12535D01*
X518859Y14710D02*
X521339Y14710D01*
X521339Y16885D02*
X518859Y16885D01*
X518859Y19060D02*
X521339Y19060D01*
X521339Y21235D02*
X518859Y21235D01*
X518859Y23410D02*
X521339Y23410D01*
X516339Y6010D02*
X513859Y6010D01*
X513859Y24490D01*
X516339Y24490D01*
X516339Y6010D01*
X516339Y8185D02*
X513859Y8185D01*
X513859Y10360D02*
X516339Y10360D01*
X516339Y12535D02*
X513859Y12535D01*
X513859Y14710D02*
X516339Y14710D01*
X516339Y16885D02*
X513859Y16885D01*
X513859Y19060D02*
X516339Y19060D01*
X516339Y21235D02*
X513859Y21235D01*
X513859Y23410D02*
X516339Y23410D01*
X511339Y6010D02*
X508859Y6010D01*
X508859Y24490D01*
X511339Y24490D01*
X511339Y6010D01*
X511339Y8185D02*
X508859Y8185D01*
X508859Y10360D02*
X511339Y10360D01*
X511339Y12535D02*
X508859Y12535D01*
X508859Y14710D02*
X511339Y14710D01*
X511339Y16885D02*
X508859Y16885D01*
X508859Y19060D02*
X511339Y19060D01*
X511339Y21235D02*
X508859Y21235D01*
X508859Y23410D02*
X511339Y23410D01*
X506339Y6010D02*
X503859Y6010D01*
X503859Y24490D01*
X506339Y24490D01*
X506339Y6010D01*
X506339Y8185D02*
X503859Y8185D01*
X503859Y10360D02*
X506339Y10360D01*
X506339Y12535D02*
X503859Y12535D01*
X503859Y14710D02*
X506339Y14710D01*
X506339Y16885D02*
X503859Y16885D01*
X503859Y19060D02*
X506339Y19060D01*
X506339Y21235D02*
X503859Y21235D01*
X503859Y23410D02*
X506339Y23410D01*
X501339Y6010D02*
X498859Y6010D01*
X498859Y24490D01*
X501339Y24490D01*
X501339Y6010D01*
X501339Y8185D02*
X498859Y8185D01*
X498859Y10360D02*
X501339Y10360D01*
X501339Y12535D02*
X498859Y12535D01*
X498859Y14710D02*
X501339Y14710D01*
X501339Y16885D02*
X498859Y16885D01*
X498859Y19060D02*
X501339Y19060D01*
X501339Y21235D02*
X498859Y21235D01*
X498859Y23410D02*
X501339Y23410D01*
X496339Y6010D02*
X493859Y6010D01*
X493859Y24490D01*
X496339Y24490D01*
X496339Y6010D01*
X496339Y8185D02*
X493859Y8185D01*
X493859Y10360D02*
X496339Y10360D01*
X496339Y12535D02*
X493859Y12535D01*
X493859Y14710D02*
X496339Y14710D01*
X496339Y16885D02*
X493859Y16885D01*
X493859Y19060D02*
X496339Y19060D01*
X496339Y21235D02*
X493859Y21235D01*
X493859Y23410D02*
X496339Y23410D01*
X491339Y6010D02*
X488859Y6010D01*
X488859Y24490D01*
X491339Y24490D01*
X491339Y6010D01*
X491339Y8185D02*
X488859Y8185D01*
X488859Y10360D02*
X491339Y10360D01*
X491339Y12535D02*
X488859Y12535D01*
X488859Y14710D02*
X491339Y14710D01*
X491339Y16885D02*
X488859Y16885D01*
X488859Y19060D02*
X491339Y19060D01*
X491339Y21235D02*
X488859Y21235D01*
X488859Y23410D02*
X491339Y23410D01*
X486339Y6010D02*
X483859Y6010D01*
X483859Y24490D01*
X486339Y24490D01*
X486339Y6010D01*
X486339Y8185D02*
X483859Y8185D01*
X483859Y10360D02*
X486339Y10360D01*
X486339Y12535D02*
X483859Y12535D01*
X483859Y14710D02*
X486339Y14710D01*
X486339Y16885D02*
X483859Y16885D01*
X483859Y19060D02*
X486339Y19060D01*
X486339Y21235D02*
X483859Y21235D01*
X483859Y23410D02*
X486339Y23410D01*
D11*
X755099Y461000D03*
X755099Y419000D03*
X742099Y440000D03*
X395099Y419000D03*
X395099Y461000D03*
X408099Y440000D03*
D12*
X539039Y396240D03*
X526339Y396240D03*
X513639Y396240D03*
X500939Y396240D03*
X551739Y396240D03*
X539039Y383540D03*
X526339Y383540D03*
X513639Y383540D03*
X500939Y383540D03*
X551739Y383540D03*
D13*
X513639Y419100D03*
D14*
X621206Y626616D02*
X626798Y626616D01*
X621206Y626616D02*
X621206Y638304D01*
X626798Y638304D01*
X626798Y626616D01*
X626798Y628785D02*
X621206Y628785D01*
X621206Y630954D02*
X626798Y630954D01*
X626798Y633123D02*
X621206Y633123D01*
X621206Y635292D02*
X626798Y635292D01*
X626798Y637461D02*
X621206Y637461D01*
X631620Y626616D02*
X637212Y626616D01*
X631620Y626616D02*
X631620Y638304D01*
X637212Y638304D01*
X637212Y626616D01*
X637212Y628785D02*
X631620Y628785D01*
X631620Y630954D02*
X637212Y630954D01*
X637212Y633123D02*
X631620Y633123D01*
X631620Y635292D02*
X637212Y635292D01*
X637212Y637461D02*
X631620Y637461D01*
D15*
X740659Y599920D03*
X682859Y599920D03*
D12*
X394259Y48260D03*
X752653Y509016D03*
D16*
X604190Y90932D02*
X598856Y90932D01*
X604190Y90932D02*
X604190Y79248D01*
X598856Y79248D01*
X598856Y90932D01*
X598856Y81420D02*
X604190Y81420D01*
X604190Y83592D02*
X598856Y83592D01*
X598856Y85764D02*
X604190Y85764D01*
X604190Y87936D02*
X598856Y87936D01*
X598856Y90108D02*
X604190Y90108D01*
X596062Y90932D02*
X590728Y90932D01*
X596062Y90932D02*
X596062Y79248D01*
X590728Y79248D01*
X590728Y90932D01*
X590728Y81420D02*
X596062Y81420D01*
X596062Y83592D02*
X590728Y83592D01*
X590728Y85764D02*
X596062Y85764D01*
X596062Y87936D02*
X590728Y87936D01*
X590728Y90108D02*
X596062Y90108D01*
D10*
X1048923Y6010D02*
X1051403Y6010D01*
X1048923Y6010D02*
X1048923Y24490D01*
X1051403Y24490D01*
X1051403Y6010D01*
X1051403Y8185D02*
X1048923Y8185D01*
X1048923Y10360D02*
X1051403Y10360D01*
X1051403Y12535D02*
X1048923Y12535D01*
X1048923Y14710D02*
X1051403Y14710D01*
X1051403Y16885D02*
X1048923Y16885D01*
X1048923Y19060D02*
X1051403Y19060D01*
X1051403Y21235D02*
X1048923Y21235D01*
X1048923Y23410D02*
X1051403Y23410D01*
X1046403Y6010D02*
X1043923Y6010D01*
X1043923Y24490D01*
X1046403Y24490D01*
X1046403Y6010D01*
X1046403Y8185D02*
X1043923Y8185D01*
X1043923Y10360D02*
X1046403Y10360D01*
X1046403Y12535D02*
X1043923Y12535D01*
X1043923Y14710D02*
X1046403Y14710D01*
X1046403Y16885D02*
X1043923Y16885D01*
X1043923Y19060D02*
X1046403Y19060D01*
X1046403Y21235D02*
X1043923Y21235D01*
X1043923Y23410D02*
X1046403Y23410D01*
X1041403Y6010D02*
X1038923Y6010D01*
X1038923Y24490D01*
X1041403Y24490D01*
X1041403Y6010D01*
X1041403Y8185D02*
X1038923Y8185D01*
X1038923Y10360D02*
X1041403Y10360D01*
X1041403Y12535D02*
X1038923Y12535D01*
X1038923Y14710D02*
X1041403Y14710D01*
X1041403Y16885D02*
X1038923Y16885D01*
X1038923Y19060D02*
X1041403Y19060D01*
X1041403Y21235D02*
X1038923Y21235D01*
X1038923Y23410D02*
X1041403Y23410D01*
X1036403Y6010D02*
X1033923Y6010D01*
X1033923Y24490D01*
X1036403Y24490D01*
X1036403Y6010D01*
X1036403Y8185D02*
X1033923Y8185D01*
X1033923Y10360D02*
X1036403Y10360D01*
X1036403Y12535D02*
X1033923Y12535D01*
X1033923Y14710D02*
X1036403Y14710D01*
X1036403Y16885D02*
X1033923Y16885D01*
X1033923Y19060D02*
X1036403Y19060D01*
X1036403Y21235D02*
X1033923Y21235D01*
X1033923Y23410D02*
X1036403Y23410D01*
X1031403Y6010D02*
X1028923Y6010D01*
X1028923Y24490D01*
X1031403Y24490D01*
X1031403Y6010D01*
X1031403Y8185D02*
X1028923Y8185D01*
X1028923Y10360D02*
X1031403Y10360D01*
X1031403Y12535D02*
X1028923Y12535D01*
X1028923Y14710D02*
X1031403Y14710D01*
X1031403Y16885D02*
X1028923Y16885D01*
X1028923Y19060D02*
X1031403Y19060D01*
X1031403Y21235D02*
X1028923Y21235D01*
X1028923Y23410D02*
X1031403Y23410D01*
X1026403Y6010D02*
X1023923Y6010D01*
X1023923Y24490D01*
X1026403Y24490D01*
X1026403Y6010D01*
X1026403Y8185D02*
X1023923Y8185D01*
X1023923Y10360D02*
X1026403Y10360D01*
X1026403Y12535D02*
X1023923Y12535D01*
X1023923Y14710D02*
X1026403Y14710D01*
X1026403Y16885D02*
X1023923Y16885D01*
X1023923Y19060D02*
X1026403Y19060D01*
X1026403Y21235D02*
X1023923Y21235D01*
X1023923Y23410D02*
X1026403Y23410D01*
X1021403Y6010D02*
X1018923Y6010D01*
X1018923Y24490D01*
X1021403Y24490D01*
X1021403Y6010D01*
X1021403Y8185D02*
X1018923Y8185D01*
X1018923Y10360D02*
X1021403Y10360D01*
X1021403Y12535D02*
X1018923Y12535D01*
X1018923Y14710D02*
X1021403Y14710D01*
X1021403Y16885D02*
X1018923Y16885D01*
X1018923Y19060D02*
X1021403Y19060D01*
X1021403Y21235D02*
X1018923Y21235D01*
X1018923Y23410D02*
X1021403Y23410D01*
X1016403Y6010D02*
X1013923Y6010D01*
X1013923Y24490D01*
X1016403Y24490D01*
X1016403Y6010D01*
X1016403Y8185D02*
X1013923Y8185D01*
X1013923Y10360D02*
X1016403Y10360D01*
X1016403Y12535D02*
X1013923Y12535D01*
X1013923Y14710D02*
X1016403Y14710D01*
X1016403Y16885D02*
X1013923Y16885D01*
X1013923Y19060D02*
X1016403Y19060D01*
X1016403Y21235D02*
X1013923Y21235D01*
X1013923Y23410D02*
X1016403Y23410D01*
X1011403Y6010D02*
X1008923Y6010D01*
X1008923Y24490D01*
X1011403Y24490D01*
X1011403Y6010D01*
X1011403Y8185D02*
X1008923Y8185D01*
X1008923Y10360D02*
X1011403Y10360D01*
X1011403Y12535D02*
X1008923Y12535D01*
X1008923Y14710D02*
X1011403Y14710D01*
X1011403Y16885D02*
X1008923Y16885D01*
X1008923Y19060D02*
X1011403Y19060D01*
X1011403Y21235D02*
X1008923Y21235D01*
X1008923Y23410D02*
X1011403Y23410D01*
X1006403Y6010D02*
X1003923Y6010D01*
X1003923Y24490D01*
X1006403Y24490D01*
X1006403Y6010D01*
X1006403Y8185D02*
X1003923Y8185D01*
X1003923Y10360D02*
X1006403Y10360D01*
X1006403Y12535D02*
X1003923Y12535D01*
X1003923Y14710D02*
X1006403Y14710D01*
X1006403Y16885D02*
X1003923Y16885D01*
X1003923Y19060D02*
X1006403Y19060D01*
X1006403Y21235D02*
X1003923Y21235D01*
X1003923Y23410D02*
X1006403Y23410D01*
X1001403Y6010D02*
X998923Y6010D01*
X998923Y24490D01*
X1001403Y24490D01*
X1001403Y6010D01*
X1001403Y8185D02*
X998923Y8185D01*
X998923Y10360D02*
X1001403Y10360D01*
X1001403Y12535D02*
X998923Y12535D01*
X998923Y14710D02*
X1001403Y14710D01*
X1001403Y16885D02*
X998923Y16885D01*
X998923Y19060D02*
X1001403Y19060D01*
X1001403Y21235D02*
X998923Y21235D01*
X998923Y23410D02*
X1001403Y23410D01*
X976403Y6010D02*
X973923Y6010D01*
X973923Y24490D01*
X976403Y24490D01*
X976403Y6010D01*
X976403Y8185D02*
X973923Y8185D01*
X973923Y10360D02*
X976403Y10360D01*
X976403Y12535D02*
X973923Y12535D01*
X973923Y14710D02*
X976403Y14710D01*
X976403Y16885D02*
X973923Y16885D01*
X973923Y19060D02*
X976403Y19060D01*
X976403Y21235D02*
X973923Y21235D01*
X973923Y23410D02*
X976403Y23410D01*
X971403Y6010D02*
X968923Y6010D01*
X968923Y24490D01*
X971403Y24490D01*
X971403Y6010D01*
X971403Y8185D02*
X968923Y8185D01*
X968923Y10360D02*
X971403Y10360D01*
X971403Y12535D02*
X968923Y12535D01*
X968923Y14710D02*
X971403Y14710D01*
X971403Y16885D02*
X968923Y16885D01*
X968923Y19060D02*
X971403Y19060D01*
X971403Y21235D02*
X968923Y21235D01*
X968923Y23410D02*
X971403Y23410D01*
X966403Y6010D02*
X963923Y6010D01*
X963923Y24490D01*
X966403Y24490D01*
X966403Y6010D01*
X966403Y8185D02*
X963923Y8185D01*
X963923Y10360D02*
X966403Y10360D01*
X966403Y12535D02*
X963923Y12535D01*
X963923Y14710D02*
X966403Y14710D01*
X966403Y16885D02*
X963923Y16885D01*
X963923Y19060D02*
X966403Y19060D01*
X966403Y21235D02*
X963923Y21235D01*
X963923Y23410D02*
X966403Y23410D01*
X961403Y6010D02*
X958923Y6010D01*
X958923Y24490D01*
X961403Y24490D01*
X961403Y6010D01*
X961403Y8185D02*
X958923Y8185D01*
X958923Y10360D02*
X961403Y10360D01*
X961403Y12535D02*
X958923Y12535D01*
X958923Y14710D02*
X961403Y14710D01*
X961403Y16885D02*
X958923Y16885D01*
X958923Y19060D02*
X961403Y19060D01*
X961403Y21235D02*
X958923Y21235D01*
X958923Y23410D02*
X961403Y23410D01*
X956403Y6010D02*
X953923Y6010D01*
X953923Y24490D01*
X956403Y24490D01*
X956403Y6010D01*
X956403Y8185D02*
X953923Y8185D01*
X953923Y10360D02*
X956403Y10360D01*
X956403Y12535D02*
X953923Y12535D01*
X953923Y14710D02*
X956403Y14710D01*
X956403Y16885D02*
X953923Y16885D01*
X953923Y19060D02*
X956403Y19060D01*
X956403Y21235D02*
X953923Y21235D01*
X953923Y23410D02*
X956403Y23410D01*
X951403Y6010D02*
X948923Y6010D01*
X948923Y24490D01*
X951403Y24490D01*
X951403Y6010D01*
X951403Y8185D02*
X948923Y8185D01*
X948923Y10360D02*
X951403Y10360D01*
X951403Y12535D02*
X948923Y12535D01*
X948923Y14710D02*
X951403Y14710D01*
X951403Y16885D02*
X948923Y16885D01*
X948923Y19060D02*
X951403Y19060D01*
X951403Y21235D02*
X948923Y21235D01*
X948923Y23410D02*
X951403Y23410D01*
X946403Y6010D02*
X943923Y6010D01*
X943923Y24490D01*
X946403Y24490D01*
X946403Y6010D01*
X946403Y8185D02*
X943923Y8185D01*
X943923Y10360D02*
X946403Y10360D01*
X946403Y12535D02*
X943923Y12535D01*
X943923Y14710D02*
X946403Y14710D01*
X946403Y16885D02*
X943923Y16885D01*
X943923Y19060D02*
X946403Y19060D01*
X946403Y21235D02*
X943923Y21235D01*
X943923Y23410D02*
X946403Y23410D01*
X941403Y6010D02*
X938923Y6010D01*
X938923Y24490D01*
X941403Y24490D01*
X941403Y6010D01*
X941403Y8185D02*
X938923Y8185D01*
X938923Y10360D02*
X941403Y10360D01*
X941403Y12535D02*
X938923Y12535D01*
X938923Y14710D02*
X941403Y14710D01*
X941403Y16885D02*
X938923Y16885D01*
X938923Y19060D02*
X941403Y19060D01*
X941403Y21235D02*
X938923Y21235D01*
X938923Y23410D02*
X941403Y23410D01*
X936403Y6010D02*
X933923Y6010D01*
X933923Y24490D01*
X936403Y24490D01*
X936403Y6010D01*
X936403Y8185D02*
X933923Y8185D01*
X933923Y10360D02*
X936403Y10360D01*
X936403Y12535D02*
X933923Y12535D01*
X933923Y14710D02*
X936403Y14710D01*
X936403Y16885D02*
X933923Y16885D01*
X933923Y19060D02*
X936403Y19060D01*
X936403Y21235D02*
X933923Y21235D01*
X933923Y23410D02*
X936403Y23410D01*
X931403Y6010D02*
X928923Y6010D01*
X928923Y24490D01*
X931403Y24490D01*
X931403Y6010D01*
X931403Y8185D02*
X928923Y8185D01*
X928923Y10360D02*
X931403Y10360D01*
X931403Y12535D02*
X928923Y12535D01*
X928923Y14710D02*
X931403Y14710D01*
X931403Y16885D02*
X928923Y16885D01*
X928923Y19060D02*
X931403Y19060D01*
X931403Y21235D02*
X928923Y21235D01*
X928923Y23410D02*
X931403Y23410D01*
X926403Y6010D02*
X923923Y6010D01*
X923923Y24490D01*
X926403Y24490D01*
X926403Y6010D01*
X926403Y8185D02*
X923923Y8185D01*
X923923Y10360D02*
X926403Y10360D01*
X926403Y12535D02*
X923923Y12535D01*
X923923Y14710D02*
X926403Y14710D01*
X926403Y16885D02*
X923923Y16885D01*
X923923Y19060D02*
X926403Y19060D01*
X926403Y21235D02*
X923923Y21235D01*
X923923Y23410D02*
X926403Y23410D01*
X921403Y6010D02*
X918923Y6010D01*
X918923Y24490D01*
X921403Y24490D01*
X921403Y6010D01*
X921403Y8185D02*
X918923Y8185D01*
X918923Y10360D02*
X921403Y10360D01*
X921403Y12535D02*
X918923Y12535D01*
X918923Y14710D02*
X921403Y14710D01*
X921403Y16885D02*
X918923Y16885D01*
X918923Y19060D02*
X921403Y19060D01*
X921403Y21235D02*
X918923Y21235D01*
X918923Y23410D02*
X921403Y23410D01*
X916403Y6010D02*
X913923Y6010D01*
X913923Y24490D01*
X916403Y24490D01*
X916403Y6010D01*
X916403Y8185D02*
X913923Y8185D01*
X913923Y10360D02*
X916403Y10360D01*
X916403Y12535D02*
X913923Y12535D01*
X913923Y14710D02*
X916403Y14710D01*
X916403Y16885D02*
X913923Y16885D01*
X913923Y19060D02*
X916403Y19060D01*
X916403Y21235D02*
X913923Y21235D01*
X913923Y23410D02*
X916403Y23410D01*
X911403Y6010D02*
X908923Y6010D01*
X908923Y24490D01*
X911403Y24490D01*
X911403Y6010D01*
X911403Y8185D02*
X908923Y8185D01*
X908923Y10360D02*
X911403Y10360D01*
X911403Y12535D02*
X908923Y12535D01*
X908923Y14710D02*
X911403Y14710D01*
X911403Y16885D02*
X908923Y16885D01*
X908923Y19060D02*
X911403Y19060D01*
X911403Y21235D02*
X908923Y21235D01*
X908923Y23410D02*
X911403Y23410D01*
X906403Y6010D02*
X903923Y6010D01*
X903923Y24490D01*
X906403Y24490D01*
X906403Y6010D01*
X906403Y8185D02*
X903923Y8185D01*
X903923Y10360D02*
X906403Y10360D01*
X906403Y12535D02*
X903923Y12535D01*
X903923Y14710D02*
X906403Y14710D01*
X906403Y16885D02*
X903923Y16885D01*
X903923Y19060D02*
X906403Y19060D01*
X906403Y21235D02*
X903923Y21235D01*
X903923Y23410D02*
X906403Y23410D01*
X901403Y6010D02*
X898923Y6010D01*
X898923Y24490D01*
X901403Y24490D01*
X901403Y6010D01*
X901403Y8185D02*
X898923Y8185D01*
X898923Y10360D02*
X901403Y10360D01*
X901403Y12535D02*
X898923Y12535D01*
X898923Y14710D02*
X901403Y14710D01*
X901403Y16885D02*
X898923Y16885D01*
X898923Y19060D02*
X901403Y19060D01*
X901403Y21235D02*
X898923Y21235D01*
X898923Y23410D02*
X901403Y23410D01*
X896403Y6010D02*
X893923Y6010D01*
X893923Y24490D01*
X896403Y24490D01*
X896403Y6010D01*
X896403Y8185D02*
X893923Y8185D01*
X893923Y10360D02*
X896403Y10360D01*
X896403Y12535D02*
X893923Y12535D01*
X893923Y14710D02*
X896403Y14710D01*
X896403Y16885D02*
X893923Y16885D01*
X893923Y19060D02*
X896403Y19060D01*
X896403Y21235D02*
X893923Y21235D01*
X893923Y23410D02*
X896403Y23410D01*
X891403Y6010D02*
X888923Y6010D01*
X888923Y24490D01*
X891403Y24490D01*
X891403Y6010D01*
X891403Y8185D02*
X888923Y8185D01*
X888923Y10360D02*
X891403Y10360D01*
X891403Y12535D02*
X888923Y12535D01*
X888923Y14710D02*
X891403Y14710D01*
X891403Y16885D02*
X888923Y16885D01*
X888923Y19060D02*
X891403Y19060D01*
X891403Y21235D02*
X888923Y21235D01*
X888923Y23410D02*
X891403Y23410D01*
X886403Y6010D02*
X883923Y6010D01*
X883923Y24490D01*
X886403Y24490D01*
X886403Y6010D01*
X886403Y8185D02*
X883923Y8185D01*
X883923Y10360D02*
X886403Y10360D01*
X886403Y12535D02*
X883923Y12535D01*
X883923Y14710D02*
X886403Y14710D01*
X886403Y16885D02*
X883923Y16885D01*
X883923Y19060D02*
X886403Y19060D01*
X886403Y21235D02*
X883923Y21235D01*
X883923Y23410D02*
X886403Y23410D01*
X881403Y6010D02*
X878923Y6010D01*
X878923Y24490D01*
X881403Y24490D01*
X881403Y6010D01*
X881403Y8185D02*
X878923Y8185D01*
X878923Y10360D02*
X881403Y10360D01*
X881403Y12535D02*
X878923Y12535D01*
X878923Y14710D02*
X881403Y14710D01*
X881403Y16885D02*
X878923Y16885D01*
X878923Y19060D02*
X881403Y19060D01*
X881403Y21235D02*
X878923Y21235D01*
X878923Y23410D02*
X881403Y23410D01*
X876403Y6010D02*
X873923Y6010D01*
X873923Y24490D01*
X876403Y24490D01*
X876403Y6010D01*
X876403Y8185D02*
X873923Y8185D01*
X873923Y10360D02*
X876403Y10360D01*
X876403Y12535D02*
X873923Y12535D01*
X873923Y14710D02*
X876403Y14710D01*
X876403Y16885D02*
X873923Y16885D01*
X873923Y19060D02*
X876403Y19060D01*
X876403Y21235D02*
X873923Y21235D01*
X873923Y23410D02*
X876403Y23410D01*
X871403Y6010D02*
X868923Y6010D01*
X868923Y24490D01*
X871403Y24490D01*
X871403Y6010D01*
X871403Y8185D02*
X868923Y8185D01*
X868923Y10360D02*
X871403Y10360D01*
X871403Y12535D02*
X868923Y12535D01*
X868923Y14710D02*
X871403Y14710D01*
X871403Y16885D02*
X868923Y16885D01*
X868923Y19060D02*
X871403Y19060D01*
X871403Y21235D02*
X868923Y21235D01*
X868923Y23410D02*
X871403Y23410D01*
D11*
X1140163Y461000D03*
X1140163Y419000D03*
X1127163Y440000D03*
X780163Y419000D03*
X780163Y461000D03*
X793163Y440000D03*
D12*
X924103Y396240D03*
X911403Y396240D03*
X898703Y396240D03*
X886003Y396240D03*
X936803Y396240D03*
X924103Y383540D03*
X911403Y383540D03*
X898703Y383540D03*
X886003Y383540D03*
X936803Y383540D03*
D13*
X898703Y419100D03*
D14*
X1006270Y626616D02*
X1011862Y626616D01*
X1006270Y626616D02*
X1006270Y638304D01*
X1011862Y638304D01*
X1011862Y626616D01*
X1011862Y628785D02*
X1006270Y628785D01*
X1006270Y630954D02*
X1011862Y630954D01*
X1011862Y633123D02*
X1006270Y633123D01*
X1006270Y635292D02*
X1011862Y635292D01*
X1011862Y637461D02*
X1006270Y637461D01*
X1016684Y626616D02*
X1022276Y626616D01*
X1016684Y626616D02*
X1016684Y638304D01*
X1022276Y638304D01*
X1022276Y626616D01*
X1022276Y628785D02*
X1016684Y628785D01*
X1016684Y630954D02*
X1022276Y630954D01*
X1022276Y633123D02*
X1016684Y633123D01*
X1016684Y635292D02*
X1022276Y635292D01*
X1022276Y637461D02*
X1016684Y637461D01*
D15*
X1125723Y599920D03*
X1067923Y599920D03*
D12*
X779323Y48260D03*
X1137717Y509016D03*
D16*
X989254Y90932D02*
X983920Y90932D01*
X989254Y90932D02*
X989254Y79248D01*
X983920Y79248D01*
X983920Y90932D01*
X983920Y81420D02*
X989254Y81420D01*
X989254Y83592D02*
X983920Y83592D01*
X983920Y85764D02*
X989254Y85764D01*
X989254Y87936D02*
X983920Y87936D01*
X983920Y90108D02*
X989254Y90108D01*
X981126Y90932D02*
X975792Y90932D01*
X981126Y90932D02*
X981126Y79248D01*
X975792Y79248D01*
X975792Y90932D01*
X975792Y81420D02*
X981126Y81420D01*
X981126Y83592D02*
X975792Y83592D01*
X975792Y85764D02*
X981126Y85764D01*
X981126Y87936D02*
X975792Y87936D01*
X975792Y90108D02*
X981126Y90108D01*
D10*
X101240Y1357487D02*
X98760Y1357487D01*
X101240Y1357487D02*
X101240Y1339007D01*
X98760Y1339007D01*
X98760Y1357487D01*
X98760Y1341182D02*
X101240Y1341182D01*
X101240Y1343357D02*
X98760Y1343357D01*
X98760Y1345532D02*
X101240Y1345532D01*
X101240Y1347707D02*
X98760Y1347707D01*
X98760Y1349882D02*
X101240Y1349882D01*
X101240Y1352057D02*
X98760Y1352057D01*
X98760Y1354232D02*
X101240Y1354232D01*
X101240Y1356407D02*
X98760Y1356407D01*
X103760Y1357487D02*
X106240Y1357487D01*
X106240Y1339007D01*
X103760Y1339007D01*
X103760Y1357487D01*
X103760Y1341182D02*
X106240Y1341182D01*
X106240Y1343357D02*
X103760Y1343357D01*
X103760Y1345532D02*
X106240Y1345532D01*
X106240Y1347707D02*
X103760Y1347707D01*
X103760Y1349882D02*
X106240Y1349882D01*
X106240Y1352057D02*
X103760Y1352057D01*
X103760Y1354232D02*
X106240Y1354232D01*
X106240Y1356407D02*
X103760Y1356407D01*
X108760Y1357487D02*
X111240Y1357487D01*
X111240Y1339007D01*
X108760Y1339007D01*
X108760Y1357487D01*
X108760Y1341182D02*
X111240Y1341182D01*
X111240Y1343357D02*
X108760Y1343357D01*
X108760Y1345532D02*
X111240Y1345532D01*
X111240Y1347707D02*
X108760Y1347707D01*
X108760Y1349882D02*
X111240Y1349882D01*
X111240Y1352057D02*
X108760Y1352057D01*
X108760Y1354232D02*
X111240Y1354232D01*
X111240Y1356407D02*
X108760Y1356407D01*
X113760Y1357487D02*
X116240Y1357487D01*
X116240Y1339007D01*
X113760Y1339007D01*
X113760Y1357487D01*
X113760Y1341182D02*
X116240Y1341182D01*
X116240Y1343357D02*
X113760Y1343357D01*
X113760Y1345532D02*
X116240Y1345532D01*
X116240Y1347707D02*
X113760Y1347707D01*
X113760Y1349882D02*
X116240Y1349882D01*
X116240Y1352057D02*
X113760Y1352057D01*
X113760Y1354232D02*
X116240Y1354232D01*
X116240Y1356407D02*
X113760Y1356407D01*
X118760Y1357487D02*
X121240Y1357487D01*
X121240Y1339007D01*
X118760Y1339007D01*
X118760Y1357487D01*
X118760Y1341182D02*
X121240Y1341182D01*
X121240Y1343357D02*
X118760Y1343357D01*
X118760Y1345532D02*
X121240Y1345532D01*
X121240Y1347707D02*
X118760Y1347707D01*
X118760Y1349882D02*
X121240Y1349882D01*
X121240Y1352057D02*
X118760Y1352057D01*
X118760Y1354232D02*
X121240Y1354232D01*
X121240Y1356407D02*
X118760Y1356407D01*
X123760Y1357487D02*
X126240Y1357487D01*
X126240Y1339007D01*
X123760Y1339007D01*
X123760Y1357487D01*
X123760Y1341182D02*
X126240Y1341182D01*
X126240Y1343357D02*
X123760Y1343357D01*
X123760Y1345532D02*
X126240Y1345532D01*
X126240Y1347707D02*
X123760Y1347707D01*
X123760Y1349882D02*
X126240Y1349882D01*
X126240Y1352057D02*
X123760Y1352057D01*
X123760Y1354232D02*
X126240Y1354232D01*
X126240Y1356407D02*
X123760Y1356407D01*
X128760Y1357487D02*
X131240Y1357487D01*
X131240Y1339007D01*
X128760Y1339007D01*
X128760Y1357487D01*
X128760Y1341182D02*
X131240Y1341182D01*
X131240Y1343357D02*
X128760Y1343357D01*
X128760Y1345532D02*
X131240Y1345532D01*
X131240Y1347707D02*
X128760Y1347707D01*
X128760Y1349882D02*
X131240Y1349882D01*
X131240Y1352057D02*
X128760Y1352057D01*
X128760Y1354232D02*
X131240Y1354232D01*
X131240Y1356407D02*
X128760Y1356407D01*
X133760Y1357487D02*
X136240Y1357487D01*
X136240Y1339007D01*
X133760Y1339007D01*
X133760Y1357487D01*
X133760Y1341182D02*
X136240Y1341182D01*
X136240Y1343357D02*
X133760Y1343357D01*
X133760Y1345532D02*
X136240Y1345532D01*
X136240Y1347707D02*
X133760Y1347707D01*
X133760Y1349882D02*
X136240Y1349882D01*
X136240Y1352057D02*
X133760Y1352057D01*
X133760Y1354232D02*
X136240Y1354232D01*
X136240Y1356407D02*
X133760Y1356407D01*
X138760Y1357487D02*
X141240Y1357487D01*
X141240Y1339007D01*
X138760Y1339007D01*
X138760Y1357487D01*
X138760Y1341182D02*
X141240Y1341182D01*
X141240Y1343357D02*
X138760Y1343357D01*
X138760Y1345532D02*
X141240Y1345532D01*
X141240Y1347707D02*
X138760Y1347707D01*
X138760Y1349882D02*
X141240Y1349882D01*
X141240Y1352057D02*
X138760Y1352057D01*
X138760Y1354232D02*
X141240Y1354232D01*
X141240Y1356407D02*
X138760Y1356407D01*
X143760Y1357487D02*
X146240Y1357487D01*
X146240Y1339007D01*
X143760Y1339007D01*
X143760Y1357487D01*
X143760Y1341182D02*
X146240Y1341182D01*
X146240Y1343357D02*
X143760Y1343357D01*
X143760Y1345532D02*
X146240Y1345532D01*
X146240Y1347707D02*
X143760Y1347707D01*
X143760Y1349882D02*
X146240Y1349882D01*
X146240Y1352057D02*
X143760Y1352057D01*
X143760Y1354232D02*
X146240Y1354232D01*
X146240Y1356407D02*
X143760Y1356407D01*
X148760Y1357487D02*
X151240Y1357487D01*
X151240Y1339007D01*
X148760Y1339007D01*
X148760Y1357487D01*
X148760Y1341182D02*
X151240Y1341182D01*
X151240Y1343357D02*
X148760Y1343357D01*
X148760Y1345532D02*
X151240Y1345532D01*
X151240Y1347707D02*
X148760Y1347707D01*
X148760Y1349882D02*
X151240Y1349882D01*
X151240Y1352057D02*
X148760Y1352057D01*
X148760Y1354232D02*
X151240Y1354232D01*
X151240Y1356407D02*
X148760Y1356407D01*
X173760Y1357487D02*
X176240Y1357487D01*
X176240Y1339007D01*
X173760Y1339007D01*
X173760Y1357487D01*
X173760Y1341182D02*
X176240Y1341182D01*
X176240Y1343357D02*
X173760Y1343357D01*
X173760Y1345532D02*
X176240Y1345532D01*
X176240Y1347707D02*
X173760Y1347707D01*
X173760Y1349882D02*
X176240Y1349882D01*
X176240Y1352057D02*
X173760Y1352057D01*
X173760Y1354232D02*
X176240Y1354232D01*
X176240Y1356407D02*
X173760Y1356407D01*
X178760Y1357487D02*
X181240Y1357487D01*
X181240Y1339007D01*
X178760Y1339007D01*
X178760Y1357487D01*
X178760Y1341182D02*
X181240Y1341182D01*
X181240Y1343357D02*
X178760Y1343357D01*
X178760Y1345532D02*
X181240Y1345532D01*
X181240Y1347707D02*
X178760Y1347707D01*
X178760Y1349882D02*
X181240Y1349882D01*
X181240Y1352057D02*
X178760Y1352057D01*
X178760Y1354232D02*
X181240Y1354232D01*
X181240Y1356407D02*
X178760Y1356407D01*
X183760Y1357487D02*
X186240Y1357487D01*
X186240Y1339007D01*
X183760Y1339007D01*
X183760Y1357487D01*
X183760Y1341182D02*
X186240Y1341182D01*
X186240Y1343357D02*
X183760Y1343357D01*
X183760Y1345532D02*
X186240Y1345532D01*
X186240Y1347707D02*
X183760Y1347707D01*
X183760Y1349882D02*
X186240Y1349882D01*
X186240Y1352057D02*
X183760Y1352057D01*
X183760Y1354232D02*
X186240Y1354232D01*
X186240Y1356407D02*
X183760Y1356407D01*
X188760Y1357487D02*
X191240Y1357487D01*
X191240Y1339007D01*
X188760Y1339007D01*
X188760Y1357487D01*
X188760Y1341182D02*
X191240Y1341182D01*
X191240Y1343357D02*
X188760Y1343357D01*
X188760Y1345532D02*
X191240Y1345532D01*
X191240Y1347707D02*
X188760Y1347707D01*
X188760Y1349882D02*
X191240Y1349882D01*
X191240Y1352057D02*
X188760Y1352057D01*
X188760Y1354232D02*
X191240Y1354232D01*
X191240Y1356407D02*
X188760Y1356407D01*
X193760Y1357487D02*
X196240Y1357487D01*
X196240Y1339007D01*
X193760Y1339007D01*
X193760Y1357487D01*
X193760Y1341182D02*
X196240Y1341182D01*
X196240Y1343357D02*
X193760Y1343357D01*
X193760Y1345532D02*
X196240Y1345532D01*
X196240Y1347707D02*
X193760Y1347707D01*
X193760Y1349882D02*
X196240Y1349882D01*
X196240Y1352057D02*
X193760Y1352057D01*
X193760Y1354232D02*
X196240Y1354232D01*
X196240Y1356407D02*
X193760Y1356407D01*
X198760Y1357487D02*
X201240Y1357487D01*
X201240Y1339007D01*
X198760Y1339007D01*
X198760Y1357487D01*
X198760Y1341182D02*
X201240Y1341182D01*
X201240Y1343357D02*
X198760Y1343357D01*
X198760Y1345532D02*
X201240Y1345532D01*
X201240Y1347707D02*
X198760Y1347707D01*
X198760Y1349882D02*
X201240Y1349882D01*
X201240Y1352057D02*
X198760Y1352057D01*
X198760Y1354232D02*
X201240Y1354232D01*
X201240Y1356407D02*
X198760Y1356407D01*
X203760Y1357487D02*
X206240Y1357487D01*
X206240Y1339007D01*
X203760Y1339007D01*
X203760Y1357487D01*
X203760Y1341182D02*
X206240Y1341182D01*
X206240Y1343357D02*
X203760Y1343357D01*
X203760Y1345532D02*
X206240Y1345532D01*
X206240Y1347707D02*
X203760Y1347707D01*
X203760Y1349882D02*
X206240Y1349882D01*
X206240Y1352057D02*
X203760Y1352057D01*
X203760Y1354232D02*
X206240Y1354232D01*
X206240Y1356407D02*
X203760Y1356407D01*
X208760Y1357487D02*
X211240Y1357487D01*
X211240Y1339007D01*
X208760Y1339007D01*
X208760Y1357487D01*
X208760Y1341182D02*
X211240Y1341182D01*
X211240Y1343357D02*
X208760Y1343357D01*
X208760Y1345532D02*
X211240Y1345532D01*
X211240Y1347707D02*
X208760Y1347707D01*
X208760Y1349882D02*
X211240Y1349882D01*
X211240Y1352057D02*
X208760Y1352057D01*
X208760Y1354232D02*
X211240Y1354232D01*
X211240Y1356407D02*
X208760Y1356407D01*
X213760Y1357487D02*
X216240Y1357487D01*
X216240Y1339007D01*
X213760Y1339007D01*
X213760Y1357487D01*
X213760Y1341182D02*
X216240Y1341182D01*
X216240Y1343357D02*
X213760Y1343357D01*
X213760Y1345532D02*
X216240Y1345532D01*
X216240Y1347707D02*
X213760Y1347707D01*
X213760Y1349882D02*
X216240Y1349882D01*
X216240Y1352057D02*
X213760Y1352057D01*
X213760Y1354232D02*
X216240Y1354232D01*
X216240Y1356407D02*
X213760Y1356407D01*
X218760Y1357487D02*
X221240Y1357487D01*
X221240Y1339007D01*
X218760Y1339007D01*
X218760Y1357487D01*
X218760Y1341182D02*
X221240Y1341182D01*
X221240Y1343357D02*
X218760Y1343357D01*
X218760Y1345532D02*
X221240Y1345532D01*
X221240Y1347707D02*
X218760Y1347707D01*
X218760Y1349882D02*
X221240Y1349882D01*
X221240Y1352057D02*
X218760Y1352057D01*
X218760Y1354232D02*
X221240Y1354232D01*
X221240Y1356407D02*
X218760Y1356407D01*
X223760Y1357487D02*
X226240Y1357487D01*
X226240Y1339007D01*
X223760Y1339007D01*
X223760Y1357487D01*
X223760Y1341182D02*
X226240Y1341182D01*
X226240Y1343357D02*
X223760Y1343357D01*
X223760Y1345532D02*
X226240Y1345532D01*
X226240Y1347707D02*
X223760Y1347707D01*
X223760Y1349882D02*
X226240Y1349882D01*
X226240Y1352057D02*
X223760Y1352057D01*
X223760Y1354232D02*
X226240Y1354232D01*
X226240Y1356407D02*
X223760Y1356407D01*
X228760Y1357487D02*
X231240Y1357487D01*
X231240Y1339007D01*
X228760Y1339007D01*
X228760Y1357487D01*
X228760Y1341182D02*
X231240Y1341182D01*
X231240Y1343357D02*
X228760Y1343357D01*
X228760Y1345532D02*
X231240Y1345532D01*
X231240Y1347707D02*
X228760Y1347707D01*
X228760Y1349882D02*
X231240Y1349882D01*
X231240Y1352057D02*
X228760Y1352057D01*
X228760Y1354232D02*
X231240Y1354232D01*
X231240Y1356407D02*
X228760Y1356407D01*
X233760Y1357487D02*
X236240Y1357487D01*
X236240Y1339007D01*
X233760Y1339007D01*
X233760Y1357487D01*
X233760Y1341182D02*
X236240Y1341182D01*
X236240Y1343357D02*
X233760Y1343357D01*
X233760Y1345532D02*
X236240Y1345532D01*
X236240Y1347707D02*
X233760Y1347707D01*
X233760Y1349882D02*
X236240Y1349882D01*
X236240Y1352057D02*
X233760Y1352057D01*
X233760Y1354232D02*
X236240Y1354232D01*
X236240Y1356407D02*
X233760Y1356407D01*
X238760Y1357487D02*
X241240Y1357487D01*
X241240Y1339007D01*
X238760Y1339007D01*
X238760Y1357487D01*
X238760Y1341182D02*
X241240Y1341182D01*
X241240Y1343357D02*
X238760Y1343357D01*
X238760Y1345532D02*
X241240Y1345532D01*
X241240Y1347707D02*
X238760Y1347707D01*
X238760Y1349882D02*
X241240Y1349882D01*
X241240Y1352057D02*
X238760Y1352057D01*
X238760Y1354232D02*
X241240Y1354232D01*
X241240Y1356407D02*
X238760Y1356407D01*
X243760Y1357487D02*
X246240Y1357487D01*
X246240Y1339007D01*
X243760Y1339007D01*
X243760Y1357487D01*
X243760Y1341182D02*
X246240Y1341182D01*
X246240Y1343357D02*
X243760Y1343357D01*
X243760Y1345532D02*
X246240Y1345532D01*
X246240Y1347707D02*
X243760Y1347707D01*
X243760Y1349882D02*
X246240Y1349882D01*
X246240Y1352057D02*
X243760Y1352057D01*
X243760Y1354232D02*
X246240Y1354232D01*
X246240Y1356407D02*
X243760Y1356407D01*
X248760Y1357487D02*
X251240Y1357487D01*
X251240Y1339007D01*
X248760Y1339007D01*
X248760Y1357487D01*
X248760Y1341182D02*
X251240Y1341182D01*
X251240Y1343357D02*
X248760Y1343357D01*
X248760Y1345532D02*
X251240Y1345532D01*
X251240Y1347707D02*
X248760Y1347707D01*
X248760Y1349882D02*
X251240Y1349882D01*
X251240Y1352057D02*
X248760Y1352057D01*
X248760Y1354232D02*
X251240Y1354232D01*
X251240Y1356407D02*
X248760Y1356407D01*
X253760Y1357487D02*
X256240Y1357487D01*
X256240Y1339007D01*
X253760Y1339007D01*
X253760Y1357487D01*
X253760Y1341182D02*
X256240Y1341182D01*
X256240Y1343357D02*
X253760Y1343357D01*
X253760Y1345532D02*
X256240Y1345532D01*
X256240Y1347707D02*
X253760Y1347707D01*
X253760Y1349882D02*
X256240Y1349882D01*
X256240Y1352057D02*
X253760Y1352057D01*
X253760Y1354232D02*
X256240Y1354232D01*
X256240Y1356407D02*
X253760Y1356407D01*
X258760Y1357487D02*
X261240Y1357487D01*
X261240Y1339007D01*
X258760Y1339007D01*
X258760Y1357487D01*
X258760Y1341182D02*
X261240Y1341182D01*
X261240Y1343357D02*
X258760Y1343357D01*
X258760Y1345532D02*
X261240Y1345532D01*
X261240Y1347707D02*
X258760Y1347707D01*
X258760Y1349882D02*
X261240Y1349882D01*
X261240Y1352057D02*
X258760Y1352057D01*
X258760Y1354232D02*
X261240Y1354232D01*
X261240Y1356407D02*
X258760Y1356407D01*
X263760Y1357487D02*
X266240Y1357487D01*
X266240Y1339007D01*
X263760Y1339007D01*
X263760Y1357487D01*
X263760Y1341182D02*
X266240Y1341182D01*
X266240Y1343357D02*
X263760Y1343357D01*
X263760Y1345532D02*
X266240Y1345532D01*
X266240Y1347707D02*
X263760Y1347707D01*
X263760Y1349882D02*
X266240Y1349882D01*
X266240Y1352057D02*
X263760Y1352057D01*
X263760Y1354232D02*
X266240Y1354232D01*
X266240Y1356407D02*
X263760Y1356407D01*
X268760Y1357487D02*
X271240Y1357487D01*
X271240Y1339007D01*
X268760Y1339007D01*
X268760Y1357487D01*
X268760Y1341182D02*
X271240Y1341182D01*
X271240Y1343357D02*
X268760Y1343357D01*
X268760Y1345532D02*
X271240Y1345532D01*
X271240Y1347707D02*
X268760Y1347707D01*
X268760Y1349882D02*
X271240Y1349882D01*
X271240Y1352057D02*
X268760Y1352057D01*
X268760Y1354232D02*
X271240Y1354232D01*
X271240Y1356407D02*
X268760Y1356407D01*
X273760Y1357487D02*
X276240Y1357487D01*
X276240Y1339007D01*
X273760Y1339007D01*
X273760Y1357487D01*
X273760Y1341182D02*
X276240Y1341182D01*
X276240Y1343357D02*
X273760Y1343357D01*
X273760Y1345532D02*
X276240Y1345532D01*
X276240Y1347707D02*
X273760Y1347707D01*
X273760Y1349882D02*
X276240Y1349882D01*
X276240Y1352057D02*
X273760Y1352057D01*
X273760Y1354232D02*
X276240Y1354232D01*
X276240Y1356407D02*
X273760Y1356407D01*
X278760Y1357487D02*
X281240Y1357487D01*
X281240Y1339007D01*
X278760Y1339007D01*
X278760Y1357487D01*
X278760Y1341182D02*
X281240Y1341182D01*
X281240Y1343357D02*
X278760Y1343357D01*
X278760Y1345532D02*
X281240Y1345532D01*
X281240Y1347707D02*
X278760Y1347707D01*
X278760Y1349882D02*
X281240Y1349882D01*
X281240Y1352057D02*
X278760Y1352057D01*
X278760Y1354232D02*
X281240Y1354232D01*
X281240Y1356407D02*
X278760Y1356407D01*
D11*
X10000Y902497D03*
X10000Y944497D03*
X23000Y923497D03*
X370000Y944497D03*
X370000Y902497D03*
X357000Y923497D03*
D12*
X226060Y967257D03*
X238760Y967257D03*
X251460Y967257D03*
X264160Y967257D03*
X213360Y967257D03*
X226060Y979957D03*
X238760Y979957D03*
X251460Y979957D03*
X264160Y979957D03*
X213360Y979957D03*
D13*
X251460Y944397D03*
D14*
X143893Y736881D02*
X138301Y736881D01*
X143893Y736881D02*
X143893Y725193D01*
X138301Y725193D01*
X138301Y736881D01*
X138301Y727362D02*
X143893Y727362D01*
X143893Y729531D02*
X138301Y729531D01*
X138301Y731700D02*
X143893Y731700D01*
X143893Y733869D02*
X138301Y733869D01*
X138301Y736038D02*
X143893Y736038D01*
X133479Y736881D02*
X127887Y736881D01*
X133479Y736881D02*
X133479Y725193D01*
X127887Y725193D01*
X127887Y736881D01*
X127887Y727362D02*
X133479Y727362D01*
X133479Y729531D02*
X127887Y729531D01*
X127887Y731700D02*
X133479Y731700D01*
X133479Y733869D02*
X127887Y733869D01*
X127887Y736038D02*
X133479Y736038D01*
D15*
X24440Y763577D03*
X82240Y763577D03*
D12*
X370840Y1315237D03*
X12446Y854481D03*
D16*
X160909Y1272565D02*
X166243Y1272565D01*
X160909Y1272565D02*
X160909Y1284249D01*
X166243Y1284249D01*
X166243Y1272565D01*
X166243Y1274737D02*
X160909Y1274737D01*
X160909Y1276909D02*
X166243Y1276909D01*
X166243Y1279081D02*
X160909Y1279081D01*
X160909Y1281253D02*
X166243Y1281253D01*
X166243Y1283425D02*
X160909Y1283425D01*
X169037Y1272565D02*
X174371Y1272565D01*
X169037Y1272565D02*
X169037Y1284249D01*
X174371Y1284249D01*
X174371Y1272565D01*
X174371Y1274737D02*
X169037Y1274737D01*
X169037Y1276909D02*
X174371Y1276909D01*
X174371Y1279081D02*
X169037Y1279081D01*
X169037Y1281253D02*
X174371Y1281253D01*
X174371Y1283425D02*
X169037Y1283425D01*
D10*
X483824Y1357487D02*
X486304Y1357487D01*
X486304Y1339007D01*
X483824Y1339007D01*
X483824Y1357487D01*
X483824Y1341182D02*
X486304Y1341182D01*
X486304Y1343357D02*
X483824Y1343357D01*
X483824Y1345532D02*
X486304Y1345532D01*
X486304Y1347707D02*
X483824Y1347707D01*
X483824Y1349882D02*
X486304Y1349882D01*
X486304Y1352057D02*
X483824Y1352057D01*
X483824Y1354232D02*
X486304Y1354232D01*
X486304Y1356407D02*
X483824Y1356407D01*
X488824Y1357487D02*
X491304Y1357487D01*
X491304Y1339007D01*
X488824Y1339007D01*
X488824Y1357487D01*
X488824Y1341182D02*
X491304Y1341182D01*
X491304Y1343357D02*
X488824Y1343357D01*
X488824Y1345532D02*
X491304Y1345532D01*
X491304Y1347707D02*
X488824Y1347707D01*
X488824Y1349882D02*
X491304Y1349882D01*
X491304Y1352057D02*
X488824Y1352057D01*
X488824Y1354232D02*
X491304Y1354232D01*
X491304Y1356407D02*
X488824Y1356407D01*
X493824Y1357487D02*
X496304Y1357487D01*
X496304Y1339007D01*
X493824Y1339007D01*
X493824Y1357487D01*
X493824Y1341182D02*
X496304Y1341182D01*
X496304Y1343357D02*
X493824Y1343357D01*
X493824Y1345532D02*
X496304Y1345532D01*
X496304Y1347707D02*
X493824Y1347707D01*
X493824Y1349882D02*
X496304Y1349882D01*
X496304Y1352057D02*
X493824Y1352057D01*
X493824Y1354232D02*
X496304Y1354232D01*
X496304Y1356407D02*
X493824Y1356407D01*
X498824Y1357487D02*
X501304Y1357487D01*
X501304Y1339007D01*
X498824Y1339007D01*
X498824Y1357487D01*
X498824Y1341182D02*
X501304Y1341182D01*
X501304Y1343357D02*
X498824Y1343357D01*
X498824Y1345532D02*
X501304Y1345532D01*
X501304Y1347707D02*
X498824Y1347707D01*
X498824Y1349882D02*
X501304Y1349882D01*
X501304Y1352057D02*
X498824Y1352057D01*
X498824Y1354232D02*
X501304Y1354232D01*
X501304Y1356407D02*
X498824Y1356407D01*
X503824Y1357487D02*
X506304Y1357487D01*
X506304Y1339007D01*
X503824Y1339007D01*
X503824Y1357487D01*
X503824Y1341182D02*
X506304Y1341182D01*
X506304Y1343357D02*
X503824Y1343357D01*
X503824Y1345532D02*
X506304Y1345532D01*
X506304Y1347707D02*
X503824Y1347707D01*
X503824Y1349882D02*
X506304Y1349882D01*
X506304Y1352057D02*
X503824Y1352057D01*
X503824Y1354232D02*
X506304Y1354232D01*
X506304Y1356407D02*
X503824Y1356407D01*
X508824Y1357487D02*
X511304Y1357487D01*
X511304Y1339007D01*
X508824Y1339007D01*
X508824Y1357487D01*
X508824Y1341182D02*
X511304Y1341182D01*
X511304Y1343357D02*
X508824Y1343357D01*
X508824Y1345532D02*
X511304Y1345532D01*
X511304Y1347707D02*
X508824Y1347707D01*
X508824Y1349882D02*
X511304Y1349882D01*
X511304Y1352057D02*
X508824Y1352057D01*
X508824Y1354232D02*
X511304Y1354232D01*
X511304Y1356407D02*
X508824Y1356407D01*
X513824Y1357487D02*
X516304Y1357487D01*
X516304Y1339007D01*
X513824Y1339007D01*
X513824Y1357487D01*
X513824Y1341182D02*
X516304Y1341182D01*
X516304Y1343357D02*
X513824Y1343357D01*
X513824Y1345532D02*
X516304Y1345532D01*
X516304Y1347707D02*
X513824Y1347707D01*
X513824Y1349882D02*
X516304Y1349882D01*
X516304Y1352057D02*
X513824Y1352057D01*
X513824Y1354232D02*
X516304Y1354232D01*
X516304Y1356407D02*
X513824Y1356407D01*
X518824Y1357487D02*
X521304Y1357487D01*
X521304Y1339007D01*
X518824Y1339007D01*
X518824Y1357487D01*
X518824Y1341182D02*
X521304Y1341182D01*
X521304Y1343357D02*
X518824Y1343357D01*
X518824Y1345532D02*
X521304Y1345532D01*
X521304Y1347707D02*
X518824Y1347707D01*
X518824Y1349882D02*
X521304Y1349882D01*
X521304Y1352057D02*
X518824Y1352057D01*
X518824Y1354232D02*
X521304Y1354232D01*
X521304Y1356407D02*
X518824Y1356407D01*
X523824Y1357487D02*
X526304Y1357487D01*
X526304Y1339007D01*
X523824Y1339007D01*
X523824Y1357487D01*
X523824Y1341182D02*
X526304Y1341182D01*
X526304Y1343357D02*
X523824Y1343357D01*
X523824Y1345532D02*
X526304Y1345532D01*
X526304Y1347707D02*
X523824Y1347707D01*
X523824Y1349882D02*
X526304Y1349882D01*
X526304Y1352057D02*
X523824Y1352057D01*
X523824Y1354232D02*
X526304Y1354232D01*
X526304Y1356407D02*
X523824Y1356407D01*
X528824Y1357487D02*
X531304Y1357487D01*
X531304Y1339007D01*
X528824Y1339007D01*
X528824Y1357487D01*
X528824Y1341182D02*
X531304Y1341182D01*
X531304Y1343357D02*
X528824Y1343357D01*
X528824Y1345532D02*
X531304Y1345532D01*
X531304Y1347707D02*
X528824Y1347707D01*
X528824Y1349882D02*
X531304Y1349882D01*
X531304Y1352057D02*
X528824Y1352057D01*
X528824Y1354232D02*
X531304Y1354232D01*
X531304Y1356407D02*
X528824Y1356407D01*
X533824Y1357487D02*
X536304Y1357487D01*
X536304Y1339007D01*
X533824Y1339007D01*
X533824Y1357487D01*
X533824Y1341182D02*
X536304Y1341182D01*
X536304Y1343357D02*
X533824Y1343357D01*
X533824Y1345532D02*
X536304Y1345532D01*
X536304Y1347707D02*
X533824Y1347707D01*
X533824Y1349882D02*
X536304Y1349882D01*
X536304Y1352057D02*
X533824Y1352057D01*
X533824Y1354232D02*
X536304Y1354232D01*
X536304Y1356407D02*
X533824Y1356407D01*
X558824Y1357487D02*
X561304Y1357487D01*
X561304Y1339007D01*
X558824Y1339007D01*
X558824Y1357487D01*
X558824Y1341182D02*
X561304Y1341182D01*
X561304Y1343357D02*
X558824Y1343357D01*
X558824Y1345532D02*
X561304Y1345532D01*
X561304Y1347707D02*
X558824Y1347707D01*
X558824Y1349882D02*
X561304Y1349882D01*
X561304Y1352057D02*
X558824Y1352057D01*
X558824Y1354232D02*
X561304Y1354232D01*
X561304Y1356407D02*
X558824Y1356407D01*
X563824Y1357487D02*
X566304Y1357487D01*
X566304Y1339007D01*
X563824Y1339007D01*
X563824Y1357487D01*
X563824Y1341182D02*
X566304Y1341182D01*
X566304Y1343357D02*
X563824Y1343357D01*
X563824Y1345532D02*
X566304Y1345532D01*
X566304Y1347707D02*
X563824Y1347707D01*
X563824Y1349882D02*
X566304Y1349882D01*
X566304Y1352057D02*
X563824Y1352057D01*
X563824Y1354232D02*
X566304Y1354232D01*
X566304Y1356407D02*
X563824Y1356407D01*
X568824Y1357487D02*
X571304Y1357487D01*
X571304Y1339007D01*
X568824Y1339007D01*
X568824Y1357487D01*
X568824Y1341182D02*
X571304Y1341182D01*
X571304Y1343357D02*
X568824Y1343357D01*
X568824Y1345532D02*
X571304Y1345532D01*
X571304Y1347707D02*
X568824Y1347707D01*
X568824Y1349882D02*
X571304Y1349882D01*
X571304Y1352057D02*
X568824Y1352057D01*
X568824Y1354232D02*
X571304Y1354232D01*
X571304Y1356407D02*
X568824Y1356407D01*
X573824Y1357487D02*
X576304Y1357487D01*
X576304Y1339007D01*
X573824Y1339007D01*
X573824Y1357487D01*
X573824Y1341182D02*
X576304Y1341182D01*
X576304Y1343357D02*
X573824Y1343357D01*
X573824Y1345532D02*
X576304Y1345532D01*
X576304Y1347707D02*
X573824Y1347707D01*
X573824Y1349882D02*
X576304Y1349882D01*
X576304Y1352057D02*
X573824Y1352057D01*
X573824Y1354232D02*
X576304Y1354232D01*
X576304Y1356407D02*
X573824Y1356407D01*
X578824Y1357487D02*
X581304Y1357487D01*
X581304Y1339007D01*
X578824Y1339007D01*
X578824Y1357487D01*
X578824Y1341182D02*
X581304Y1341182D01*
X581304Y1343357D02*
X578824Y1343357D01*
X578824Y1345532D02*
X581304Y1345532D01*
X581304Y1347707D02*
X578824Y1347707D01*
X578824Y1349882D02*
X581304Y1349882D01*
X581304Y1352057D02*
X578824Y1352057D01*
X578824Y1354232D02*
X581304Y1354232D01*
X581304Y1356407D02*
X578824Y1356407D01*
X583824Y1357487D02*
X586304Y1357487D01*
X586304Y1339007D01*
X583824Y1339007D01*
X583824Y1357487D01*
X583824Y1341182D02*
X586304Y1341182D01*
X586304Y1343357D02*
X583824Y1343357D01*
X583824Y1345532D02*
X586304Y1345532D01*
X586304Y1347707D02*
X583824Y1347707D01*
X583824Y1349882D02*
X586304Y1349882D01*
X586304Y1352057D02*
X583824Y1352057D01*
X583824Y1354232D02*
X586304Y1354232D01*
X586304Y1356407D02*
X583824Y1356407D01*
X588824Y1357487D02*
X591304Y1357487D01*
X591304Y1339007D01*
X588824Y1339007D01*
X588824Y1357487D01*
X588824Y1341182D02*
X591304Y1341182D01*
X591304Y1343357D02*
X588824Y1343357D01*
X588824Y1345532D02*
X591304Y1345532D01*
X591304Y1347707D02*
X588824Y1347707D01*
X588824Y1349882D02*
X591304Y1349882D01*
X591304Y1352057D02*
X588824Y1352057D01*
X588824Y1354232D02*
X591304Y1354232D01*
X591304Y1356407D02*
X588824Y1356407D01*
X593824Y1357487D02*
X596304Y1357487D01*
X596304Y1339007D01*
X593824Y1339007D01*
X593824Y1357487D01*
X593824Y1341182D02*
X596304Y1341182D01*
X596304Y1343357D02*
X593824Y1343357D01*
X593824Y1345532D02*
X596304Y1345532D01*
X596304Y1347707D02*
X593824Y1347707D01*
X593824Y1349882D02*
X596304Y1349882D01*
X596304Y1352057D02*
X593824Y1352057D01*
X593824Y1354232D02*
X596304Y1354232D01*
X596304Y1356407D02*
X593824Y1356407D01*
X598824Y1357487D02*
X601304Y1357487D01*
X601304Y1339007D01*
X598824Y1339007D01*
X598824Y1357487D01*
X598824Y1341182D02*
X601304Y1341182D01*
X601304Y1343357D02*
X598824Y1343357D01*
X598824Y1345532D02*
X601304Y1345532D01*
X601304Y1347707D02*
X598824Y1347707D01*
X598824Y1349882D02*
X601304Y1349882D01*
X601304Y1352057D02*
X598824Y1352057D01*
X598824Y1354232D02*
X601304Y1354232D01*
X601304Y1356407D02*
X598824Y1356407D01*
X603824Y1357487D02*
X606304Y1357487D01*
X606304Y1339007D01*
X603824Y1339007D01*
X603824Y1357487D01*
X603824Y1341182D02*
X606304Y1341182D01*
X606304Y1343357D02*
X603824Y1343357D01*
X603824Y1345532D02*
X606304Y1345532D01*
X606304Y1347707D02*
X603824Y1347707D01*
X603824Y1349882D02*
X606304Y1349882D01*
X606304Y1352057D02*
X603824Y1352057D01*
X603824Y1354232D02*
X606304Y1354232D01*
X606304Y1356407D02*
X603824Y1356407D01*
X608824Y1357487D02*
X611304Y1357487D01*
X611304Y1339007D01*
X608824Y1339007D01*
X608824Y1357487D01*
X608824Y1341182D02*
X611304Y1341182D01*
X611304Y1343357D02*
X608824Y1343357D01*
X608824Y1345532D02*
X611304Y1345532D01*
X611304Y1347707D02*
X608824Y1347707D01*
X608824Y1349882D02*
X611304Y1349882D01*
X611304Y1352057D02*
X608824Y1352057D01*
X608824Y1354232D02*
X611304Y1354232D01*
X611304Y1356407D02*
X608824Y1356407D01*
X613824Y1357487D02*
X616304Y1357487D01*
X616304Y1339007D01*
X613824Y1339007D01*
X613824Y1357487D01*
X613824Y1341182D02*
X616304Y1341182D01*
X616304Y1343357D02*
X613824Y1343357D01*
X613824Y1345532D02*
X616304Y1345532D01*
X616304Y1347707D02*
X613824Y1347707D01*
X613824Y1349882D02*
X616304Y1349882D01*
X616304Y1352057D02*
X613824Y1352057D01*
X613824Y1354232D02*
X616304Y1354232D01*
X616304Y1356407D02*
X613824Y1356407D01*
X618824Y1357487D02*
X621304Y1357487D01*
X621304Y1339007D01*
X618824Y1339007D01*
X618824Y1357487D01*
X618824Y1341182D02*
X621304Y1341182D01*
X621304Y1343357D02*
X618824Y1343357D01*
X618824Y1345532D02*
X621304Y1345532D01*
X621304Y1347707D02*
X618824Y1347707D01*
X618824Y1349882D02*
X621304Y1349882D01*
X621304Y1352057D02*
X618824Y1352057D01*
X618824Y1354232D02*
X621304Y1354232D01*
X621304Y1356407D02*
X618824Y1356407D01*
X623824Y1357487D02*
X626304Y1357487D01*
X626304Y1339007D01*
X623824Y1339007D01*
X623824Y1357487D01*
X623824Y1341182D02*
X626304Y1341182D01*
X626304Y1343357D02*
X623824Y1343357D01*
X623824Y1345532D02*
X626304Y1345532D01*
X626304Y1347707D02*
X623824Y1347707D01*
X623824Y1349882D02*
X626304Y1349882D01*
X626304Y1352057D02*
X623824Y1352057D01*
X623824Y1354232D02*
X626304Y1354232D01*
X626304Y1356407D02*
X623824Y1356407D01*
X628824Y1357487D02*
X631304Y1357487D01*
X631304Y1339007D01*
X628824Y1339007D01*
X628824Y1357487D01*
X628824Y1341182D02*
X631304Y1341182D01*
X631304Y1343357D02*
X628824Y1343357D01*
X628824Y1345532D02*
X631304Y1345532D01*
X631304Y1347707D02*
X628824Y1347707D01*
X628824Y1349882D02*
X631304Y1349882D01*
X631304Y1352057D02*
X628824Y1352057D01*
X628824Y1354232D02*
X631304Y1354232D01*
X631304Y1356407D02*
X628824Y1356407D01*
X633824Y1357487D02*
X636304Y1357487D01*
X636304Y1339007D01*
X633824Y1339007D01*
X633824Y1357487D01*
X633824Y1341182D02*
X636304Y1341182D01*
X636304Y1343357D02*
X633824Y1343357D01*
X633824Y1345532D02*
X636304Y1345532D01*
X636304Y1347707D02*
X633824Y1347707D01*
X633824Y1349882D02*
X636304Y1349882D01*
X636304Y1352057D02*
X633824Y1352057D01*
X633824Y1354232D02*
X636304Y1354232D01*
X636304Y1356407D02*
X633824Y1356407D01*
X638824Y1357487D02*
X641304Y1357487D01*
X641304Y1339007D01*
X638824Y1339007D01*
X638824Y1357487D01*
X638824Y1341182D02*
X641304Y1341182D01*
X641304Y1343357D02*
X638824Y1343357D01*
X638824Y1345532D02*
X641304Y1345532D01*
X641304Y1347707D02*
X638824Y1347707D01*
X638824Y1349882D02*
X641304Y1349882D01*
X641304Y1352057D02*
X638824Y1352057D01*
X638824Y1354232D02*
X641304Y1354232D01*
X641304Y1356407D02*
X638824Y1356407D01*
X643824Y1357487D02*
X646304Y1357487D01*
X646304Y1339007D01*
X643824Y1339007D01*
X643824Y1357487D01*
X643824Y1341182D02*
X646304Y1341182D01*
X646304Y1343357D02*
X643824Y1343357D01*
X643824Y1345532D02*
X646304Y1345532D01*
X646304Y1347707D02*
X643824Y1347707D01*
X643824Y1349882D02*
X646304Y1349882D01*
X646304Y1352057D02*
X643824Y1352057D01*
X643824Y1354232D02*
X646304Y1354232D01*
X646304Y1356407D02*
X643824Y1356407D01*
X648824Y1357487D02*
X651304Y1357487D01*
X651304Y1339007D01*
X648824Y1339007D01*
X648824Y1357487D01*
X648824Y1341182D02*
X651304Y1341182D01*
X651304Y1343357D02*
X648824Y1343357D01*
X648824Y1345532D02*
X651304Y1345532D01*
X651304Y1347707D02*
X648824Y1347707D01*
X648824Y1349882D02*
X651304Y1349882D01*
X651304Y1352057D02*
X648824Y1352057D01*
X648824Y1354232D02*
X651304Y1354232D01*
X651304Y1356407D02*
X648824Y1356407D01*
X653824Y1357487D02*
X656304Y1357487D01*
X656304Y1339007D01*
X653824Y1339007D01*
X653824Y1357487D01*
X653824Y1341182D02*
X656304Y1341182D01*
X656304Y1343357D02*
X653824Y1343357D01*
X653824Y1345532D02*
X656304Y1345532D01*
X656304Y1347707D02*
X653824Y1347707D01*
X653824Y1349882D02*
X656304Y1349882D01*
X656304Y1352057D02*
X653824Y1352057D01*
X653824Y1354232D02*
X656304Y1354232D01*
X656304Y1356407D02*
X653824Y1356407D01*
X658824Y1357487D02*
X661304Y1357487D01*
X661304Y1339007D01*
X658824Y1339007D01*
X658824Y1357487D01*
X658824Y1341182D02*
X661304Y1341182D01*
X661304Y1343357D02*
X658824Y1343357D01*
X658824Y1345532D02*
X661304Y1345532D01*
X661304Y1347707D02*
X658824Y1347707D01*
X658824Y1349882D02*
X661304Y1349882D01*
X661304Y1352057D02*
X658824Y1352057D01*
X658824Y1354232D02*
X661304Y1354232D01*
X661304Y1356407D02*
X658824Y1356407D01*
X663824Y1357487D02*
X666304Y1357487D01*
X666304Y1339007D01*
X663824Y1339007D01*
X663824Y1357487D01*
X663824Y1341182D02*
X666304Y1341182D01*
X666304Y1343357D02*
X663824Y1343357D01*
X663824Y1345532D02*
X666304Y1345532D01*
X666304Y1347707D02*
X663824Y1347707D01*
X663824Y1349882D02*
X666304Y1349882D01*
X666304Y1352057D02*
X663824Y1352057D01*
X663824Y1354232D02*
X666304Y1354232D01*
X666304Y1356407D02*
X663824Y1356407D01*
D11*
X395064Y902497D03*
X395064Y944497D03*
X408064Y923497D03*
X755064Y944497D03*
X755064Y902497D03*
X742064Y923497D03*
D12*
X611124Y967257D03*
X623824Y967257D03*
X636524Y967257D03*
X649224Y967257D03*
X598424Y967257D03*
X611124Y979957D03*
X623824Y979957D03*
X636524Y979957D03*
X649224Y979957D03*
X598424Y979957D03*
D13*
X636524Y944397D03*
D14*
X528957Y736881D02*
X523365Y736881D01*
X528957Y736881D02*
X528957Y725193D01*
X523365Y725193D01*
X523365Y736881D01*
X523365Y727362D02*
X528957Y727362D01*
X528957Y729531D02*
X523365Y729531D01*
X523365Y731700D02*
X528957Y731700D01*
X528957Y733869D02*
X523365Y733869D01*
X523365Y736038D02*
X528957Y736038D01*
X518543Y736881D02*
X512951Y736881D01*
X518543Y736881D02*
X518543Y725193D01*
X512951Y725193D01*
X512951Y736881D01*
X512951Y727362D02*
X518543Y727362D01*
X518543Y729531D02*
X512951Y729531D01*
X512951Y731700D02*
X518543Y731700D01*
X518543Y733869D02*
X512951Y733869D01*
X512951Y736038D02*
X518543Y736038D01*
D15*
X409504Y763577D03*
X467304Y763577D03*
D12*
X755904Y1315237D03*
X397510Y854481D03*
D16*
X545973Y1272565D02*
X551307Y1272565D01*
X545973Y1272565D02*
X545973Y1284249D01*
X551307Y1284249D01*
X551307Y1272565D01*
X551307Y1274737D02*
X545973Y1274737D01*
X545973Y1276909D02*
X551307Y1276909D01*
X551307Y1279081D02*
X545973Y1279081D01*
X545973Y1281253D02*
X551307Y1281253D01*
X551307Y1283425D02*
X545973Y1283425D01*
X554101Y1272565D02*
X559435Y1272565D01*
X554101Y1272565D02*
X554101Y1284249D01*
X559435Y1284249D01*
X559435Y1272565D01*
X559435Y1274737D02*
X554101Y1274737D01*
X554101Y1276909D02*
X559435Y1276909D01*
X559435Y1279081D02*
X554101Y1279081D01*
X554101Y1281253D02*
X559435Y1281253D01*
X559435Y1283425D02*
X554101Y1283425D01*
D10*
X868913Y1357487D02*
X871393Y1357487D01*
X871393Y1339007D01*
X868913Y1339007D01*
X868913Y1357487D01*
X868913Y1341182D02*
X871393Y1341182D01*
X871393Y1343357D02*
X868913Y1343357D01*
X868913Y1345532D02*
X871393Y1345532D01*
X871393Y1347707D02*
X868913Y1347707D01*
X868913Y1349882D02*
X871393Y1349882D01*
X871393Y1352057D02*
X868913Y1352057D01*
X868913Y1354232D02*
X871393Y1354232D01*
X871393Y1356407D02*
X868913Y1356407D01*
X873913Y1357487D02*
X876393Y1357487D01*
X876393Y1339007D01*
X873913Y1339007D01*
X873913Y1357487D01*
X873913Y1341182D02*
X876393Y1341182D01*
X876393Y1343357D02*
X873913Y1343357D01*
X873913Y1345532D02*
X876393Y1345532D01*
X876393Y1347707D02*
X873913Y1347707D01*
X873913Y1349882D02*
X876393Y1349882D01*
X876393Y1352057D02*
X873913Y1352057D01*
X873913Y1354232D02*
X876393Y1354232D01*
X876393Y1356407D02*
X873913Y1356407D01*
X878913Y1357487D02*
X881393Y1357487D01*
X881393Y1339007D01*
X878913Y1339007D01*
X878913Y1357487D01*
X878913Y1341182D02*
X881393Y1341182D01*
X881393Y1343357D02*
X878913Y1343357D01*
X878913Y1345532D02*
X881393Y1345532D01*
X881393Y1347707D02*
X878913Y1347707D01*
X878913Y1349882D02*
X881393Y1349882D01*
X881393Y1352057D02*
X878913Y1352057D01*
X878913Y1354232D02*
X881393Y1354232D01*
X881393Y1356407D02*
X878913Y1356407D01*
X883913Y1357487D02*
X886393Y1357487D01*
X886393Y1339007D01*
X883913Y1339007D01*
X883913Y1357487D01*
X883913Y1341182D02*
X886393Y1341182D01*
X886393Y1343357D02*
X883913Y1343357D01*
X883913Y1345532D02*
X886393Y1345532D01*
X886393Y1347707D02*
X883913Y1347707D01*
X883913Y1349882D02*
X886393Y1349882D01*
X886393Y1352057D02*
X883913Y1352057D01*
X883913Y1354232D02*
X886393Y1354232D01*
X886393Y1356407D02*
X883913Y1356407D01*
X888913Y1357487D02*
X891393Y1357487D01*
X891393Y1339007D01*
X888913Y1339007D01*
X888913Y1357487D01*
X888913Y1341182D02*
X891393Y1341182D01*
X891393Y1343357D02*
X888913Y1343357D01*
X888913Y1345532D02*
X891393Y1345532D01*
X891393Y1347707D02*
X888913Y1347707D01*
X888913Y1349882D02*
X891393Y1349882D01*
X891393Y1352057D02*
X888913Y1352057D01*
X888913Y1354232D02*
X891393Y1354232D01*
X891393Y1356407D02*
X888913Y1356407D01*
X893913Y1357487D02*
X896393Y1357487D01*
X896393Y1339007D01*
X893913Y1339007D01*
X893913Y1357487D01*
X893913Y1341182D02*
X896393Y1341182D01*
X896393Y1343357D02*
X893913Y1343357D01*
X893913Y1345532D02*
X896393Y1345532D01*
X896393Y1347707D02*
X893913Y1347707D01*
X893913Y1349882D02*
X896393Y1349882D01*
X896393Y1352057D02*
X893913Y1352057D01*
X893913Y1354232D02*
X896393Y1354232D01*
X896393Y1356407D02*
X893913Y1356407D01*
X898913Y1357487D02*
X901393Y1357487D01*
X901393Y1339007D01*
X898913Y1339007D01*
X898913Y1357487D01*
X898913Y1341182D02*
X901393Y1341182D01*
X901393Y1343357D02*
X898913Y1343357D01*
X898913Y1345532D02*
X901393Y1345532D01*
X901393Y1347707D02*
X898913Y1347707D01*
X898913Y1349882D02*
X901393Y1349882D01*
X901393Y1352057D02*
X898913Y1352057D01*
X898913Y1354232D02*
X901393Y1354232D01*
X901393Y1356407D02*
X898913Y1356407D01*
X903913Y1357487D02*
X906393Y1357487D01*
X906393Y1339007D01*
X903913Y1339007D01*
X903913Y1357487D01*
X903913Y1341182D02*
X906393Y1341182D01*
X906393Y1343357D02*
X903913Y1343357D01*
X903913Y1345532D02*
X906393Y1345532D01*
X906393Y1347707D02*
X903913Y1347707D01*
X903913Y1349882D02*
X906393Y1349882D01*
X906393Y1352057D02*
X903913Y1352057D01*
X903913Y1354232D02*
X906393Y1354232D01*
X906393Y1356407D02*
X903913Y1356407D01*
X908913Y1357487D02*
X911393Y1357487D01*
X911393Y1339007D01*
X908913Y1339007D01*
X908913Y1357487D01*
X908913Y1341182D02*
X911393Y1341182D01*
X911393Y1343357D02*
X908913Y1343357D01*
X908913Y1345532D02*
X911393Y1345532D01*
X911393Y1347707D02*
X908913Y1347707D01*
X908913Y1349882D02*
X911393Y1349882D01*
X911393Y1352057D02*
X908913Y1352057D01*
X908913Y1354232D02*
X911393Y1354232D01*
X911393Y1356407D02*
X908913Y1356407D01*
X913913Y1357487D02*
X916393Y1357487D01*
X916393Y1339007D01*
X913913Y1339007D01*
X913913Y1357487D01*
X913913Y1341182D02*
X916393Y1341182D01*
X916393Y1343357D02*
X913913Y1343357D01*
X913913Y1345532D02*
X916393Y1345532D01*
X916393Y1347707D02*
X913913Y1347707D01*
X913913Y1349882D02*
X916393Y1349882D01*
X916393Y1352057D02*
X913913Y1352057D01*
X913913Y1354232D02*
X916393Y1354232D01*
X916393Y1356407D02*
X913913Y1356407D01*
X918913Y1357487D02*
X921393Y1357487D01*
X921393Y1339007D01*
X918913Y1339007D01*
X918913Y1357487D01*
X918913Y1341182D02*
X921393Y1341182D01*
X921393Y1343357D02*
X918913Y1343357D01*
X918913Y1345532D02*
X921393Y1345532D01*
X921393Y1347707D02*
X918913Y1347707D01*
X918913Y1349882D02*
X921393Y1349882D01*
X921393Y1352057D02*
X918913Y1352057D01*
X918913Y1354232D02*
X921393Y1354232D01*
X921393Y1356407D02*
X918913Y1356407D01*
X943913Y1357487D02*
X946393Y1357487D01*
X946393Y1339007D01*
X943913Y1339007D01*
X943913Y1357487D01*
X943913Y1341182D02*
X946393Y1341182D01*
X946393Y1343357D02*
X943913Y1343357D01*
X943913Y1345532D02*
X946393Y1345532D01*
X946393Y1347707D02*
X943913Y1347707D01*
X943913Y1349882D02*
X946393Y1349882D01*
X946393Y1352057D02*
X943913Y1352057D01*
X943913Y1354232D02*
X946393Y1354232D01*
X946393Y1356407D02*
X943913Y1356407D01*
X948913Y1357487D02*
X951393Y1357487D01*
X951393Y1339007D01*
X948913Y1339007D01*
X948913Y1357487D01*
X948913Y1341182D02*
X951393Y1341182D01*
X951393Y1343357D02*
X948913Y1343357D01*
X948913Y1345532D02*
X951393Y1345532D01*
X951393Y1347707D02*
X948913Y1347707D01*
X948913Y1349882D02*
X951393Y1349882D01*
X951393Y1352057D02*
X948913Y1352057D01*
X948913Y1354232D02*
X951393Y1354232D01*
X951393Y1356407D02*
X948913Y1356407D01*
X953913Y1357487D02*
X956393Y1357487D01*
X956393Y1339007D01*
X953913Y1339007D01*
X953913Y1357487D01*
X953913Y1341182D02*
X956393Y1341182D01*
X956393Y1343357D02*
X953913Y1343357D01*
X953913Y1345532D02*
X956393Y1345532D01*
X956393Y1347707D02*
X953913Y1347707D01*
X953913Y1349882D02*
X956393Y1349882D01*
X956393Y1352057D02*
X953913Y1352057D01*
X953913Y1354232D02*
X956393Y1354232D01*
X956393Y1356407D02*
X953913Y1356407D01*
X958913Y1357487D02*
X961393Y1357487D01*
X961393Y1339007D01*
X958913Y1339007D01*
X958913Y1357487D01*
X958913Y1341182D02*
X961393Y1341182D01*
X961393Y1343357D02*
X958913Y1343357D01*
X958913Y1345532D02*
X961393Y1345532D01*
X961393Y1347707D02*
X958913Y1347707D01*
X958913Y1349882D02*
X961393Y1349882D01*
X961393Y1352057D02*
X958913Y1352057D01*
X958913Y1354232D02*
X961393Y1354232D01*
X961393Y1356407D02*
X958913Y1356407D01*
X963913Y1357487D02*
X966393Y1357487D01*
X966393Y1339007D01*
X963913Y1339007D01*
X963913Y1357487D01*
X963913Y1341182D02*
X966393Y1341182D01*
X966393Y1343357D02*
X963913Y1343357D01*
X963913Y1345532D02*
X966393Y1345532D01*
X966393Y1347707D02*
X963913Y1347707D01*
X963913Y1349882D02*
X966393Y1349882D01*
X966393Y1352057D02*
X963913Y1352057D01*
X963913Y1354232D02*
X966393Y1354232D01*
X966393Y1356407D02*
X963913Y1356407D01*
X968913Y1357487D02*
X971393Y1357487D01*
X971393Y1339007D01*
X968913Y1339007D01*
X968913Y1357487D01*
X968913Y1341182D02*
X971393Y1341182D01*
X971393Y1343357D02*
X968913Y1343357D01*
X968913Y1345532D02*
X971393Y1345532D01*
X971393Y1347707D02*
X968913Y1347707D01*
X968913Y1349882D02*
X971393Y1349882D01*
X971393Y1352057D02*
X968913Y1352057D01*
X968913Y1354232D02*
X971393Y1354232D01*
X971393Y1356407D02*
X968913Y1356407D01*
X973913Y1357487D02*
X976393Y1357487D01*
X976393Y1339007D01*
X973913Y1339007D01*
X973913Y1357487D01*
X973913Y1341182D02*
X976393Y1341182D01*
X976393Y1343357D02*
X973913Y1343357D01*
X973913Y1345532D02*
X976393Y1345532D01*
X976393Y1347707D02*
X973913Y1347707D01*
X973913Y1349882D02*
X976393Y1349882D01*
X976393Y1352057D02*
X973913Y1352057D01*
X973913Y1354232D02*
X976393Y1354232D01*
X976393Y1356407D02*
X973913Y1356407D01*
X978913Y1357487D02*
X981393Y1357487D01*
X981393Y1339007D01*
X978913Y1339007D01*
X978913Y1357487D01*
X978913Y1341182D02*
X981393Y1341182D01*
X981393Y1343357D02*
X978913Y1343357D01*
X978913Y1345532D02*
X981393Y1345532D01*
X981393Y1347707D02*
X978913Y1347707D01*
X978913Y1349882D02*
X981393Y1349882D01*
X981393Y1352057D02*
X978913Y1352057D01*
X978913Y1354232D02*
X981393Y1354232D01*
X981393Y1356407D02*
X978913Y1356407D01*
X983913Y1357487D02*
X986393Y1357487D01*
X986393Y1339007D01*
X983913Y1339007D01*
X983913Y1357487D01*
X983913Y1341182D02*
X986393Y1341182D01*
X986393Y1343357D02*
X983913Y1343357D01*
X983913Y1345532D02*
X986393Y1345532D01*
X986393Y1347707D02*
X983913Y1347707D01*
X983913Y1349882D02*
X986393Y1349882D01*
X986393Y1352057D02*
X983913Y1352057D01*
X983913Y1354232D02*
X986393Y1354232D01*
X986393Y1356407D02*
X983913Y1356407D01*
X988913Y1357487D02*
X991393Y1357487D01*
X991393Y1339007D01*
X988913Y1339007D01*
X988913Y1357487D01*
X988913Y1341182D02*
X991393Y1341182D01*
X991393Y1343357D02*
X988913Y1343357D01*
X988913Y1345532D02*
X991393Y1345532D01*
X991393Y1347707D02*
X988913Y1347707D01*
X988913Y1349882D02*
X991393Y1349882D01*
X991393Y1352057D02*
X988913Y1352057D01*
X988913Y1354232D02*
X991393Y1354232D01*
X991393Y1356407D02*
X988913Y1356407D01*
X993913Y1357487D02*
X996393Y1357487D01*
X996393Y1339007D01*
X993913Y1339007D01*
X993913Y1357487D01*
X993913Y1341182D02*
X996393Y1341182D01*
X996393Y1343357D02*
X993913Y1343357D01*
X993913Y1345532D02*
X996393Y1345532D01*
X996393Y1347707D02*
X993913Y1347707D01*
X993913Y1349882D02*
X996393Y1349882D01*
X996393Y1352057D02*
X993913Y1352057D01*
X993913Y1354232D02*
X996393Y1354232D01*
X996393Y1356407D02*
X993913Y1356407D01*
X998913Y1357487D02*
X1001393Y1357487D01*
X1001393Y1339007D01*
X998913Y1339007D01*
X998913Y1357487D01*
X998913Y1341182D02*
X1001393Y1341182D01*
X1001393Y1343357D02*
X998913Y1343357D01*
X998913Y1345532D02*
X1001393Y1345532D01*
X1001393Y1347707D02*
X998913Y1347707D01*
X998913Y1349882D02*
X1001393Y1349882D01*
X1001393Y1352057D02*
X998913Y1352057D01*
X998913Y1354232D02*
X1001393Y1354232D01*
X1001393Y1356407D02*
X998913Y1356407D01*
X1003913Y1357487D02*
X1006393Y1357487D01*
X1006393Y1339007D01*
X1003913Y1339007D01*
X1003913Y1357487D01*
X1003913Y1341182D02*
X1006393Y1341182D01*
X1006393Y1343357D02*
X1003913Y1343357D01*
X1003913Y1345532D02*
X1006393Y1345532D01*
X1006393Y1347707D02*
X1003913Y1347707D01*
X1003913Y1349882D02*
X1006393Y1349882D01*
X1006393Y1352057D02*
X1003913Y1352057D01*
X1003913Y1354232D02*
X1006393Y1354232D01*
X1006393Y1356407D02*
X1003913Y1356407D01*
X1008913Y1357487D02*
X1011393Y1357487D01*
X1011393Y1339007D01*
X1008913Y1339007D01*
X1008913Y1357487D01*
X1008913Y1341182D02*
X1011393Y1341182D01*
X1011393Y1343357D02*
X1008913Y1343357D01*
X1008913Y1345532D02*
X1011393Y1345532D01*
X1011393Y1347707D02*
X1008913Y1347707D01*
X1008913Y1349882D02*
X1011393Y1349882D01*
X1011393Y1352057D02*
X1008913Y1352057D01*
X1008913Y1354232D02*
X1011393Y1354232D01*
X1011393Y1356407D02*
X1008913Y1356407D01*
X1013913Y1357487D02*
X1016393Y1357487D01*
X1016393Y1339007D01*
X1013913Y1339007D01*
X1013913Y1357487D01*
X1013913Y1341182D02*
X1016393Y1341182D01*
X1016393Y1343357D02*
X1013913Y1343357D01*
X1013913Y1345532D02*
X1016393Y1345532D01*
X1016393Y1347707D02*
X1013913Y1347707D01*
X1013913Y1349882D02*
X1016393Y1349882D01*
X1016393Y1352057D02*
X1013913Y1352057D01*
X1013913Y1354232D02*
X1016393Y1354232D01*
X1016393Y1356407D02*
X1013913Y1356407D01*
X1018913Y1357487D02*
X1021393Y1357487D01*
X1021393Y1339007D01*
X1018913Y1339007D01*
X1018913Y1357487D01*
X1018913Y1341182D02*
X1021393Y1341182D01*
X1021393Y1343357D02*
X1018913Y1343357D01*
X1018913Y1345532D02*
X1021393Y1345532D01*
X1021393Y1347707D02*
X1018913Y1347707D01*
X1018913Y1349882D02*
X1021393Y1349882D01*
X1021393Y1352057D02*
X1018913Y1352057D01*
X1018913Y1354232D02*
X1021393Y1354232D01*
X1021393Y1356407D02*
X1018913Y1356407D01*
X1023913Y1357487D02*
X1026393Y1357487D01*
X1026393Y1339007D01*
X1023913Y1339007D01*
X1023913Y1357487D01*
X1023913Y1341182D02*
X1026393Y1341182D01*
X1026393Y1343357D02*
X1023913Y1343357D01*
X1023913Y1345532D02*
X1026393Y1345532D01*
X1026393Y1347707D02*
X1023913Y1347707D01*
X1023913Y1349882D02*
X1026393Y1349882D01*
X1026393Y1352057D02*
X1023913Y1352057D01*
X1023913Y1354232D02*
X1026393Y1354232D01*
X1026393Y1356407D02*
X1023913Y1356407D01*
X1028913Y1357487D02*
X1031393Y1357487D01*
X1031393Y1339007D01*
X1028913Y1339007D01*
X1028913Y1357487D01*
X1028913Y1341182D02*
X1031393Y1341182D01*
X1031393Y1343357D02*
X1028913Y1343357D01*
X1028913Y1345532D02*
X1031393Y1345532D01*
X1031393Y1347707D02*
X1028913Y1347707D01*
X1028913Y1349882D02*
X1031393Y1349882D01*
X1031393Y1352057D02*
X1028913Y1352057D01*
X1028913Y1354232D02*
X1031393Y1354232D01*
X1031393Y1356407D02*
X1028913Y1356407D01*
X1033913Y1357487D02*
X1036393Y1357487D01*
X1036393Y1339007D01*
X1033913Y1339007D01*
X1033913Y1357487D01*
X1033913Y1341182D02*
X1036393Y1341182D01*
X1036393Y1343357D02*
X1033913Y1343357D01*
X1033913Y1345532D02*
X1036393Y1345532D01*
X1036393Y1347707D02*
X1033913Y1347707D01*
X1033913Y1349882D02*
X1036393Y1349882D01*
X1036393Y1352057D02*
X1033913Y1352057D01*
X1033913Y1354232D02*
X1036393Y1354232D01*
X1036393Y1356407D02*
X1033913Y1356407D01*
X1038913Y1357487D02*
X1041393Y1357487D01*
X1041393Y1339007D01*
X1038913Y1339007D01*
X1038913Y1357487D01*
X1038913Y1341182D02*
X1041393Y1341182D01*
X1041393Y1343357D02*
X1038913Y1343357D01*
X1038913Y1345532D02*
X1041393Y1345532D01*
X1041393Y1347707D02*
X1038913Y1347707D01*
X1038913Y1349882D02*
X1041393Y1349882D01*
X1041393Y1352057D02*
X1038913Y1352057D01*
X1038913Y1354232D02*
X1041393Y1354232D01*
X1041393Y1356407D02*
X1038913Y1356407D01*
X1043913Y1357487D02*
X1046393Y1357487D01*
X1046393Y1339007D01*
X1043913Y1339007D01*
X1043913Y1357487D01*
X1043913Y1341182D02*
X1046393Y1341182D01*
X1046393Y1343357D02*
X1043913Y1343357D01*
X1043913Y1345532D02*
X1046393Y1345532D01*
X1046393Y1347707D02*
X1043913Y1347707D01*
X1043913Y1349882D02*
X1046393Y1349882D01*
X1046393Y1352057D02*
X1043913Y1352057D01*
X1043913Y1354232D02*
X1046393Y1354232D01*
X1046393Y1356407D02*
X1043913Y1356407D01*
X1048913Y1357487D02*
X1051393Y1357487D01*
X1051393Y1339007D01*
X1048913Y1339007D01*
X1048913Y1357487D01*
X1048913Y1341182D02*
X1051393Y1341182D01*
X1051393Y1343357D02*
X1048913Y1343357D01*
X1048913Y1345532D02*
X1051393Y1345532D01*
X1051393Y1347707D02*
X1048913Y1347707D01*
X1048913Y1349882D02*
X1051393Y1349882D01*
X1051393Y1352057D02*
X1048913Y1352057D01*
X1048913Y1354232D02*
X1051393Y1354232D01*
X1051393Y1356407D02*
X1048913Y1356407D01*
D11*
X780153Y902497D03*
X780153Y944497D03*
X793153Y923497D03*
X1140153Y944497D03*
X1140153Y902497D03*
X1127153Y923497D03*
D12*
X996213Y967257D03*
X1008913Y967257D03*
X1021613Y967257D03*
X1034313Y967257D03*
X983513Y967257D03*
X996213Y979957D03*
X1008913Y979957D03*
X1021613Y979957D03*
X1034313Y979957D03*
X983513Y979957D03*
D13*
X1021613Y944397D03*
D14*
X914046Y736881D02*
X908454Y736881D01*
X914046Y736881D02*
X914046Y725193D01*
X908454Y725193D01*
X908454Y736881D01*
X908454Y727362D02*
X914046Y727362D01*
X914046Y729531D02*
X908454Y729531D01*
X908454Y731700D02*
X914046Y731700D01*
X914046Y733869D02*
X908454Y733869D01*
X908454Y736038D02*
X914046Y736038D01*
X903632Y736881D02*
X898040Y736881D01*
X903632Y736881D02*
X903632Y725193D01*
X898040Y725193D01*
X898040Y736881D01*
X898040Y727362D02*
X903632Y727362D01*
X903632Y729531D02*
X898040Y729531D01*
X898040Y731700D02*
X903632Y731700D01*
X903632Y733869D02*
X898040Y733869D01*
X898040Y736038D02*
X903632Y736038D01*
D15*
X794593Y763577D03*
X852393Y763577D03*
D12*
X1140993Y1315237D03*
X782599Y854481D03*
D16*
X931062Y1272565D02*
X936396Y1272565D01*
X931062Y1272565D02*
X931062Y1284249D01*
X936396Y1284249D01*
X936396Y1272565D01*
X936396Y1274737D02*
X931062Y1274737D01*
X931062Y1276909D02*
X936396Y1276909D01*
X936396Y1279081D02*
X931062Y1279081D01*
X931062Y1281253D02*
X936396Y1281253D01*
X936396Y1283425D02*
X931062Y1283425D01*
X939190Y1272565D02*
X944524Y1272565D01*
X939190Y1272565D02*
X939190Y1284249D01*
X944524Y1284249D01*
X944524Y1272565D01*
X944524Y1274737D02*
X939190Y1274737D01*
X939190Y1276909D02*
X944524Y1276909D01*
X944524Y1279081D02*
X939190Y1279081D01*
X939190Y1281253D02*
X944524Y1281253D01*
X944524Y1283425D02*
X939190Y1283425D01*
D12*
X-26238Y1299997D03*
X1176401Y1299997D03*
D17*
X-35293Y63500D02*
X-35290Y63722D01*
X-35282Y63944D01*
X-35268Y64166D01*
X-35249Y64388D01*
X-35225Y64608D01*
X-35195Y64829D01*
X-35160Y65048D01*
X-35119Y65267D01*
X-35073Y65484D01*
X-35022Y65700D01*
X-34965Y65915D01*
X-34903Y66129D01*
X-34836Y66340D01*
X-34764Y66551D01*
X-34686Y66759D01*
X-34604Y66965D01*
X-34516Y67169D01*
X-34424Y67372D01*
X-34326Y67571D01*
X-34224Y67768D01*
X-34117Y67963D01*
X-34005Y68155D01*
X-33888Y68344D01*
X-33767Y68531D01*
X-33641Y68714D01*
X-33511Y68894D01*
X-33376Y69071D01*
X-33238Y69244D01*
X-33095Y69414D01*
X-32947Y69581D01*
X-32796Y69744D01*
X-32641Y69903D01*
X-32482Y70058D01*
X-32319Y70209D01*
X-32152Y70357D01*
X-31982Y70500D01*
X-31809Y70638D01*
X-31632Y70773D01*
X-31452Y70903D01*
X-31269Y71029D01*
X-31082Y71150D01*
X-30893Y71267D01*
X-30701Y71379D01*
X-30506Y71486D01*
X-30309Y71588D01*
X-30110Y71686D01*
X-29907Y71778D01*
X-29703Y71866D01*
X-29497Y71948D01*
X-29289Y72026D01*
X-29078Y72098D01*
X-28867Y72165D01*
X-28653Y72227D01*
X-28438Y72284D01*
X-28222Y72335D01*
X-28005Y72381D01*
X-27786Y72422D01*
X-27567Y72457D01*
X-27346Y72487D01*
X-27126Y72511D01*
X-26904Y72530D01*
X-26682Y72544D01*
X-26460Y72552D01*
X-26238Y72555D01*
X-26016Y72552D01*
X-25794Y72544D01*
X-25572Y72530D01*
X-25350Y72511D01*
X-25130Y72487D01*
X-24909Y72457D01*
X-24690Y72422D01*
X-24471Y72381D01*
X-24254Y72335D01*
X-24038Y72284D01*
X-23823Y72227D01*
X-23609Y72165D01*
X-23398Y72098D01*
X-23187Y72026D01*
X-22979Y71948D01*
X-22773Y71866D01*
X-22569Y71778D01*
X-22366Y71686D01*
X-22167Y71588D01*
X-21970Y71486D01*
X-21775Y71379D01*
X-21583Y71267D01*
X-21394Y71150D01*
X-21207Y71029D01*
X-21024Y70903D01*
X-20844Y70773D01*
X-20667Y70638D01*
X-20494Y70500D01*
X-20324Y70357D01*
X-20157Y70209D01*
X-19994Y70058D01*
X-19835Y69903D01*
X-19680Y69744D01*
X-19529Y69581D01*
X-19381Y69414D01*
X-19238Y69244D01*
X-19100Y69071D01*
X-18965Y68894D01*
X-18835Y68714D01*
X-18709Y68531D01*
X-18588Y68344D01*
X-18471Y68155D01*
X-18359Y67963D01*
X-18252Y67768D01*
X-18150Y67571D01*
X-18052Y67372D01*
X-17960Y67169D01*
X-17872Y66965D01*
X-17790Y66759D01*
X-17712Y66551D01*
X-17640Y66340D01*
X-17573Y66129D01*
X-17511Y65915D01*
X-17454Y65700D01*
X-17403Y65484D01*
X-17357Y65267D01*
X-17316Y65048D01*
X-17281Y64829D01*
X-17251Y64608D01*
X-17227Y64388D01*
X-17208Y64166D01*
X-17194Y63944D01*
X-17186Y63722D01*
X-17183Y63500D01*
X-17186Y63278D01*
X-17194Y63056D01*
X-17208Y62834D01*
X-17227Y62612D01*
X-17251Y62392D01*
X-17281Y62171D01*
X-17316Y61952D01*
X-17357Y61733D01*
X-17403Y61516D01*
X-17454Y61300D01*
X-17511Y61085D01*
X-17573Y60871D01*
X-17640Y60660D01*
X-17712Y60449D01*
X-17790Y60241D01*
X-17872Y60035D01*
X-17960Y59831D01*
X-18052Y59628D01*
X-18150Y59429D01*
X-18252Y59232D01*
X-18359Y59037D01*
X-18471Y58845D01*
X-18588Y58656D01*
X-18709Y58469D01*
X-18835Y58286D01*
X-18965Y58106D01*
X-19100Y57929D01*
X-19238Y57756D01*
X-19381Y57586D01*
X-19529Y57419D01*
X-19680Y57256D01*
X-19835Y57097D01*
X-19994Y56942D01*
X-20157Y56791D01*
X-20324Y56643D01*
X-20494Y56500D01*
X-20667Y56362D01*
X-20844Y56227D01*
X-21024Y56097D01*
X-21207Y55971D01*
X-21394Y55850D01*
X-21583Y55733D01*
X-21775Y55621D01*
X-21970Y55514D01*
X-22167Y55412D01*
X-22366Y55314D01*
X-22569Y55222D01*
X-22773Y55134D01*
X-22979Y55052D01*
X-23187Y54974D01*
X-23398Y54902D01*
X-23609Y54835D01*
X-23823Y54773D01*
X-24038Y54716D01*
X-24254Y54665D01*
X-24471Y54619D01*
X-24690Y54578D01*
X-24909Y54543D01*
X-25130Y54513D01*
X-25350Y54489D01*
X-25572Y54470D01*
X-25794Y54456D01*
X-26016Y54448D01*
X-26238Y54445D01*
X-26460Y54448D01*
X-26682Y54456D01*
X-26904Y54470D01*
X-27126Y54489D01*
X-27346Y54513D01*
X-27567Y54543D01*
X-27786Y54578D01*
X-28005Y54619D01*
X-28222Y54665D01*
X-28438Y54716D01*
X-28653Y54773D01*
X-28867Y54835D01*
X-29078Y54902D01*
X-29289Y54974D01*
X-29497Y55052D01*
X-29703Y55134D01*
X-29907Y55222D01*
X-30110Y55314D01*
X-30309Y55412D01*
X-30506Y55514D01*
X-30701Y55621D01*
X-30893Y55733D01*
X-31082Y55850D01*
X-31269Y55971D01*
X-31452Y56097D01*
X-31632Y56227D01*
X-31809Y56362D01*
X-31982Y56500D01*
X-32152Y56643D01*
X-32319Y56791D01*
X-32482Y56942D01*
X-32641Y57097D01*
X-32796Y57256D01*
X-32947Y57419D01*
X-33095Y57586D01*
X-33238Y57756D01*
X-33376Y57929D01*
X-33511Y58106D01*
X-33641Y58286D01*
X-33767Y58469D01*
X-33888Y58656D01*
X-34005Y58845D01*
X-34117Y59037D01*
X-34224Y59232D01*
X-34326Y59429D01*
X-34424Y59628D01*
X-34516Y59831D01*
X-34604Y60035D01*
X-34686Y60241D01*
X-34764Y60449D01*
X-34836Y60660D01*
X-34903Y60871D01*
X-34965Y61085D01*
X-35022Y61300D01*
X-35073Y61516D01*
X-35119Y61733D01*
X-35160Y61952D01*
X-35195Y62171D01*
X-35225Y62392D01*
X-35249Y62612D01*
X-35268Y62834D01*
X-35282Y63056D01*
X-35290Y63278D01*
X-35293Y63500D01*
D18*
X-26238Y63500D03*
M02*
