M48
;GenerationSoftware,Autodesk,EAGLE,9.6.2*%
;CreationDate,2021-09-28T16:44:05Z*%
FMAT,2
ICI,OFF
METRIC,TZ,000.000
T4C0.305
T3C0.400
T2C0.508
T1C0.650
%
G90
M71
T1
X85239Y76358
X35557Y59992
X29777Y59992
X74066Y59992
X68286Y59992
X112572Y59992
X106792Y59992
X2444Y76358
X8224Y76358
X40950Y76358
X46730Y76358
X79459Y76358
T2
X89870Y38354
X15395Y39624
X14125Y39624
X12855Y39624
X11585Y39624
X16665Y39624
X15395Y38354
X14125Y38354
X12855Y38354
X11585Y38354
X16665Y38354
X102161Y96726
X103431Y96726
X98351Y96726
X99621Y97996
X53904Y39624
X52634Y39624
X51364Y39624
X50094Y39624
X55174Y39624
X53904Y38354
X52634Y38354
X51364Y38354
X50094Y38354
X55174Y38354
X100891Y97996
X102161Y97996
X103431Y97996
X98351Y97996
X92410Y39624
X91140Y39624
X89870Y39624
X88600Y39624
X93680Y39624
X92410Y38354
X91140Y38354
X99621Y96726
X88600Y38354
X93680Y38354
X22606Y96726
X23876Y96726
X25146Y96726
X26416Y96726
X21336Y96726
X22606Y97996
X23876Y97996
X25146Y97996
X26416Y97996
X21336Y97996
X61112Y96726
X62382Y96726
X63652Y96726
X64922Y96726
X59842Y96726
X61112Y97996
X62382Y97996
X63652Y97996
X64922Y97996
X59842Y97996
X100891Y96726
T3
X36985Y63642
X28349Y63642
X28349Y59462
X36985Y59462
X75494Y63642
X66858Y63642
X66858Y59462
X75494Y59462
X48158Y72708
X48158Y76888
X39522Y76888
X78031Y76888
X114000Y63642
X105364Y63642
X1016Y72708
X9652Y72708
X9652Y76888
X1016Y76888
X105364Y59462
X114000Y59462
X39522Y72708
X78031Y72708
X86667Y72708
X86667Y76888
T4
X36731Y49530
X33556Y50800
X34191Y44450
X34191Y39370
X34191Y34290
X34191Y29210
X34191Y24130
X34191Y19050
X34191Y13970
X34191Y8890
X36731Y6350
X36731Y11430
X36731Y16510
X36731Y21590
X36731Y26670
X36731Y31750
X36731Y36830
X31651Y41910
X31651Y36830
X31651Y31750
X31651Y26670
X31651Y21590
X31651Y16510
X31651Y11430
X31651Y6350
X31270Y46990
X26571Y46990
X31905Y54356
X33683Y55880
X16411Y44577
X13871Y44577
X11331Y44577
X23523Y43815
X25555Y4064
X6251Y6350
X1171Y6350
X29111Y8890
X18697Y8890
X13617Y8890
X8537Y8890
X3711Y8890
X6251Y11430
X1171Y11430
X29111Y13970
X13617Y13970
X8537Y13970
X3711Y13970
X10442Y15748
X6251Y16510
X1171Y16510
X29111Y19050
X12474Y18034
X8537Y19050
X3711Y19050
X21491Y21590
X11331Y21590
X6251Y21590
X1171Y21590
X29111Y24130
X26571Y41910
X29111Y39370
X18570Y39370
X26571Y36830
X16411Y36830
X11331Y36830
X6251Y36830
X29111Y34290
X13871Y34290
X8791Y34290
X29111Y29210
X13871Y29210
X8791Y29210
X21491Y26670
X16411Y26670
X11331Y26670
X6251Y26670
X11331Y31750
X6251Y31750
X3711Y34290
X3711Y39370
X3711Y24130
X3711Y29210
X1171Y26670
X1171Y31750
X1171Y36830
X21491Y15240
X29111Y44450
X29111Y49530
X29111Y54610
X17427Y3048
X21618Y4318
X25555Y9144
X25555Y11684
X25555Y16764
X25555Y21844
X25555Y26924
X19586Y41783
X10001Y5080
X7394Y44831
X27460Y43053
X7394Y45847
X27968Y42545
X4600Y54844
X5108Y24003
X4346Y53844
X4473Y22733
X13490Y33020
X21237Y33020
X20602Y48768
X22380Y44831
X20602Y49657
X23269Y45847
X7267Y42164
X6378Y42291
X20602Y47752
X21999Y45720
X6886Y23368
X6886Y39116
X26571Y63246
X23142Y33909
X25809Y33909
X23650Y35179
X25301Y35179
X18570Y36322
X24793Y36322
X33032Y57785
X31905Y57785
X21872Y12573
X22507Y20574
X23878Y20574
X23878Y12573
X20602Y4699
X19332Y4699
X18062Y4699
X35080Y57912
X12347Y6604
X19332Y9525
X71371Y52256
X40061Y57531
X61778Y50419
X60254Y50419
X60166Y57404
X57841Y21590
X56698Y19050
X48570Y21590
X45903Y55880
X45903Y58420
X45903Y53340
X45903Y50800
X45903Y48260
X47300Y57150
X47300Y54610
X47300Y52070
X47300Y49530
X47300Y46990
X48570Y58420
X48570Y55880
X48570Y53340
X48570Y50800
X48570Y48260
X48570Y45720
X47681Y44577
X49840Y46990
X52380Y46990
X54920Y46990
X51110Y48260
X53650Y48260
X56190Y48260
X56190Y45720
X53650Y45720
X51110Y45720
X49840Y49530
X52380Y49530
X54920Y49530
X56190Y50800
X56190Y53340
X56190Y55880
X56190Y58420
X56190Y60960
X56190Y63500
X54920Y52070
X54920Y54610
X54920Y57150
X54920Y59690
X54920Y62230
X54920Y64389
X53650Y63500
X53650Y60960
X53650Y58420
X51110Y58420
X43363Y58420
X40823Y58420
X42220Y59690
X42220Y62230
X42220Y64389
X39680Y59690
X39680Y62230
X39680Y64389
X44506Y58420
X39680Y52070
X42220Y49530
X39680Y47117
X42220Y44450
X52380Y57150
X49840Y57150
X51110Y56007
X53650Y56007
X51110Y50292
X53650Y50292
X52126Y3810
X61016Y3810
X57460Y64389
X57460Y62230
X57460Y59690
X57460Y56769
X60000Y59690
X58730Y63500
X58730Y60960
X58984Y58420
X59238Y57150
X65080Y57150
X65080Y52070
X64064Y61087
X62794Y57658
X63048Y54610
X67366Y57150
X67620Y62230
X71430Y62230
X73970Y63500
X68890Y63500
X68890Y60960
X73970Y60960
X75240Y54610
X75240Y49530
X72065Y50800
X72700Y44450
X72700Y39370
X72700Y34290
X72700Y29210
X72700Y24130
X72700Y19050
X72700Y13970
X72700Y8890
X75240Y6350
X75240Y11430
X75240Y16510
X75240Y21590
X75240Y26670
X75240Y31750
X75240Y36830
X70160Y41910
X70160Y36830
X70160Y31750
X70160Y26670
X70160Y21590
X70160Y16510
X70160Y11430
X70160Y6350
X69779Y46990
X65080Y46990
X70414Y54356
X72192Y55880
X54920Y44577
X52380Y44577
X49840Y44577
X62032Y43815
X64064Y4064
X44760Y6350
X39680Y6350
X67620Y8890
X57206Y8890
X52126Y8890
X47046Y8890
X42220Y8890
X44760Y11430
X39680Y11430
X67620Y13970
X52126Y13970
X47046Y13970
X42220Y13970
X48951Y15748
X44760Y16510
X39680Y16510
X67620Y19050
X50983Y18034
X47046Y19050
X42220Y19050
X60000Y21590
X49840Y21590
X44760Y21590
X39680Y21590
X67620Y24130
X65080Y41910
X67620Y39370
X57079Y39370
X65080Y36830
X54920Y36830
X49840Y36830
X44760Y36830
X67620Y34290
X52380Y34290
X47300Y34290
X67620Y29210
X52380Y29210
X47300Y29210
X60000Y26670
X54920Y26670
X49840Y26670
X44760Y26670
X49840Y31750
X44760Y31750
X42220Y34290
X42220Y39370
X42220Y24130
X42220Y29210
X39680Y26670
X39680Y31750
X39680Y36830
X60000Y15240
X67620Y44450
X67620Y49530
X67620Y54610
X55936Y3048
X60127Y4318
X64064Y9144
X64064Y11684
X64064Y16764
X64064Y21844
X64064Y26924
X58095Y41783
X48510Y5080
X45903Y44831
X65969Y43053
X45903Y45847
X66477Y42545
X43109Y54844
X43617Y24003
X42855Y53844
X42982Y22733
X51999Y33020
X59746Y33020
X59111Y48768
X60889Y44831
X59111Y49657
X61778Y45847
X45776Y42164
X44887Y42291
X59111Y47752
X60508Y45720
X45395Y23368
X45395Y39116
X65080Y63246
X61651Y33909
X64318Y33909
X62159Y35179
X63810Y35179
X57079Y36322
X63302Y36322
X71541Y57785
X70414Y57785
X60381Y12573
X61016Y20574
X62387Y20574
X62387Y12573
X59111Y4699
X57841Y4699
X56571Y4699
X73589Y57912
X50856Y6604
X57841Y9525
X109877Y52256
X78567Y57531
X100284Y50419
X98760Y50419
X98672Y57404
X96347Y21590
X95204Y19050
X87076Y21590
X84409Y55880
X84409Y58420
X84409Y53340
X84409Y50800
X84409Y48260
X85806Y57150
X85806Y54610
X85806Y52070
X85806Y49530
X85806Y46990
X87076Y58420
X87076Y55880
X87076Y53340
X87076Y50800
X87076Y48260
X87076Y45720
X86187Y44577
X88346Y46990
X90886Y46990
X93426Y46990
X89616Y48260
X92156Y48260
X94696Y48260
X94696Y45720
X92156Y45720
X89616Y45720
X88346Y49530
X90886Y49530
X93426Y49530
X94696Y50800
X94696Y53340
X94696Y55880
X94696Y58420
X94696Y60960
X94696Y63500
X93426Y52070
X93426Y54610
X93426Y57150
X93426Y59690
X93426Y62230
X93426Y64389
X92156Y63500
X92156Y60960
X92156Y58420
X89616Y58420
X81869Y58420
X79329Y58420
X80726Y59690
X80726Y62230
X80726Y64389
X78186Y59690
X78186Y62230
X78186Y64389
X83012Y58420
X78186Y52070
X80726Y49530
X78186Y47117
X80726Y44450
X90886Y57150
X88346Y57150
X89616Y56007
X92156Y56007
X89616Y50292
X92156Y50292
X90632Y3810
X99522Y3810
X95966Y64389
X95966Y62230
X95966Y59690
X95966Y56769
X98506Y59690
X97236Y63500
X97236Y60960
X97490Y58420
X97744Y57150
X103586Y57150
X103586Y52070
X102570Y61087
X101300Y57658
X101554Y54610
X105872Y57150
X106126Y62230
X109936Y62230
X112476Y63500
X107396Y63500
X107396Y60960
X112476Y60960
X113746Y54610
X113746Y49530
X110571Y50800
X111206Y44450
X111206Y39370
X111206Y34290
X111206Y29210
X111206Y24130
X111206Y19050
X111206Y13970
X111206Y8890
X113746Y6350
X113746Y11430
X113746Y16510
X113746Y21590
X113746Y26670
X113746Y31750
X113746Y36830
X108666Y41910
X108666Y36830
X108666Y31750
X108666Y26670
X108666Y21590
X108666Y16510
X108666Y11430
X108666Y6350
X108285Y46990
X103586Y46990
X108920Y54356
X110698Y55880
X93426Y44577
X90886Y44577
X88346Y44577
X100538Y43815
X102570Y4064
X83266Y6350
X78186Y6350
X106126Y8890
X95712Y8890
X90632Y8890
X85552Y8890
X80726Y8890
X83266Y11430
X78186Y11430
X106126Y13970
X90632Y13970
X85552Y13970
X80726Y13970
X87457Y15748
X83266Y16510
X78186Y16510
X106126Y19050
X89489Y18034
X85552Y19050
X80726Y19050
X98506Y21590
X88346Y21590
X83266Y21590
X78186Y21590
X106126Y24130
X103586Y41910
X106126Y39370
X95585Y39370
X103586Y36830
X93426Y36830
X88346Y36830
X83266Y36830
X106126Y34290
X90886Y34290
X85806Y34290
X106126Y29210
X90886Y29210
X85806Y29210
X98506Y26670
X93426Y26670
X88346Y26670
X83266Y26670
X88346Y31750
X83266Y31750
X80726Y34290
X80726Y39370
X80726Y24130
X80726Y29210
X78186Y26670
X78186Y31750
X78186Y36830
X98506Y15240
X106126Y44450
X106126Y49530
X106126Y54610
X94442Y3048
X98633Y4318
X102570Y9144
X102570Y11684
X102570Y16764
X102570Y21844
X102570Y26924
X96601Y41783
X87016Y5080
X84409Y44831
X104475Y43053
X84409Y45847
X104983Y42545
X81615Y54844
X82123Y24003
X81361Y53844
X81488Y22733
X90505Y33020
X98252Y33020
X97617Y48768
X99395Y44831
X97617Y49657
X100284Y45847
X84282Y42164
X83393Y42291
X97617Y47752
X99014Y45720
X83901Y23368
X83901Y39116
X103586Y63246
X100157Y33909
X102824Y33909
X100665Y35179
X102316Y35179
X95585Y36322
X101808Y36322
X110047Y57785
X108920Y57785
X98887Y12573
X99522Y20574
X100893Y20574
X100893Y12573
X97617Y4699
X96347Y4699
X95077Y4699
X112095Y57912
X89362Y6604
X96347Y9525
X5139Y84094
X36449Y78819
X14732Y85931
X16256Y85931
X16344Y78946
X18669Y114760
X19812Y117300
X27940Y114760
X30607Y80470
X30607Y77930
X30607Y83010
X30607Y85550
X30607Y88090
X29210Y79200
X29210Y81740
X29210Y84280
X29210Y86820
X29210Y89360
X27940Y77930
X27940Y80470
X27940Y83010
X27940Y85550
X27940Y88090
X27940Y90630
X28829Y91773
X26670Y89360
X24130Y89360
X21590Y89360
X25400Y88090
X22860Y88090
X20320Y88090
X20320Y90630
X22860Y90630
X25400Y90630
X26670Y86820
X24130Y86820
X21590Y86820
X20320Y85550
X20320Y83010
X20320Y80470
X20320Y77930
X20320Y75390
X20320Y72850
X21590Y84280
X21590Y81740
X21590Y79200
X21590Y76660
X21590Y74120
X21590Y71961
X22860Y72850
X22860Y75390
X22860Y77930
X25400Y77930
X33147Y77930
X35687Y77930
X34290Y76660
X34290Y74120
X34290Y71961
X36830Y76660
X36830Y74120
X36830Y71961
X32004Y77930
X36830Y84280
X34290Y86820
X36830Y89233
X34290Y91900
X24130Y79200
X26670Y79200
X25400Y80343
X22860Y80343
X25400Y86058
X22860Y86058
X24384Y132540
X15494Y132540
X19050Y71961
X19050Y74120
X19050Y76660
X19050Y79581
X16510Y76660
X17780Y72850
X17780Y75390
X17526Y77930
X17272Y79200
X11430Y79200
X11430Y84280
X12446Y75263
X13716Y78692
X13462Y81740
X9144Y79200
X8890Y74120
X5080Y74120
X2540Y72850
X7620Y72850
X7620Y75390
X2540Y75390
X1270Y81740
X1270Y86820
X4445Y85550
X3810Y91900
X3810Y96980
X3810Y102060
X3810Y107140
X3810Y112220
X3810Y117300
X3810Y122380
X3810Y127460
X1270Y130000
X1270Y124920
X1270Y119840
X1270Y114760
X1270Y109680
X1270Y104600
X1270Y99520
X6350Y94440
X6350Y99520
X6350Y104600
X6350Y109680
X6350Y114760
X6350Y119840
X6350Y124920
X6350Y130000
X6731Y89360
X11430Y89360
X6096Y81994
X4318Y80470
X21590Y91773
X24130Y91773
X26670Y91773
X14478Y92535
X12446Y132286
X31750Y130000
X36830Y130000
X8890Y127460
X19304Y127460
X24384Y127460
X29464Y127460
X34290Y127460
X31750Y124920
X36830Y124920
X8890Y122380
X24384Y122380
X29464Y122380
X34290Y122380
X27559Y120602
X31750Y119840
X36830Y119840
X8890Y117300
X25527Y118316
X29464Y117300
X34290Y117300
X16510Y114760
X26670Y114760
X31750Y114760
X36830Y114760
X8890Y112220
X11430Y94440
X8890Y96980
X19431Y96980
X11430Y99520
X21590Y99520
X26670Y99520
X31750Y99520
X8890Y102060
X24130Y102060
X29210Y102060
X8890Y107140
X24130Y107140
X29210Y107140
X16510Y109680
X21590Y109680
X26670Y109680
X31750Y109680
X26670Y104600
X31750Y104600
X34290Y102060
X34290Y96980
X34290Y112220
X34290Y107140
X36830Y109680
X36830Y104600
X36830Y99520
X16510Y121110
X8890Y91900
X8890Y86820
X8890Y81740
X20574Y133302
X16383Y132032
X12446Y127206
X12446Y124666
X12446Y119586
X12446Y114506
X12446Y109426
X18415Y94567
X28000Y131270
X30607Y91519
X10541Y93297
X30607Y90503
X10033Y93805
X33401Y81506
X32893Y112347
X33655Y82506
X33528Y113617
X24511Y103330
X16764Y103330
X17399Y87582
X15621Y91519
X17399Y86693
X14732Y90503
X30734Y94186
X31623Y94059
X17399Y88598
X16002Y90630
X31115Y112982
X31115Y97234
X11430Y73104
X14859Y102441
X12192Y102441
X14351Y101171
X12700Y101171
X19431Y100028
X13208Y100028
X4969Y78565
X6096Y78565
X16129Y123777
X15494Y115776
X14123Y115776
X14123Y123777
X17399Y131651
X18669Y131651
X19939Y131651
X2921Y78438
X25654Y129746
X18669Y126825
X43645Y84094
X74955Y78819
X53238Y85931
X54762Y85931
X54850Y78946
X57175Y114760
X58318Y117300
X66446Y114760
X69113Y80470
X69113Y77930
X69113Y83010
X69113Y85550
X69113Y88090
X67716Y79200
X67716Y81740
X67716Y84280
X67716Y86820
X67716Y89360
X66446Y77930
X66446Y80470
X66446Y83010
X66446Y85550
X66446Y88090
X66446Y90630
X67335Y91773
X65176Y89360
X62636Y89360
X60096Y89360
X63906Y88090
X61366Y88090
X58826Y88090
X58826Y90630
X61366Y90630
X63906Y90630
X65176Y86820
X62636Y86820
X60096Y86820
X58826Y85550
X58826Y83010
X58826Y80470
X58826Y77930
X58826Y75390
X58826Y72850
X60096Y84280
X60096Y81740
X60096Y79200
X60096Y76660
X60096Y74120
X60096Y71961
X61366Y72850
X61366Y75390
X61366Y77930
X63906Y77930
X71653Y77930
X74193Y77930
X72796Y76660
X72796Y74120
X72796Y71961
X75336Y76660
X75336Y74120
X75336Y71961
X70510Y77930
X75336Y84280
X72796Y86820
X75336Y89233
X72796Y91900
X62636Y79200
X65176Y79200
X63906Y80343
X61366Y80343
X63906Y86058
X61366Y86058
X62890Y132540
X54000Y132540
X57556Y71961
X57556Y74120
X57556Y76660
X57556Y79581
X55016Y76660
X56286Y72850
X56286Y75390
X56032Y77930
X55778Y79200
X49936Y79200
X49936Y84280
X50952Y75263
X52222Y78692
X51968Y81740
X47650Y79200
X47396Y74120
X43586Y74120
X41046Y72850
X46126Y72850
X46126Y75390
X41046Y75390
X39776Y81740
X39776Y86820
X42951Y85550
X42316Y91900
X42316Y96980
X42316Y102060
X42316Y107140
X42316Y112220
X42316Y117300
X42316Y122380
X42316Y127460
X39776Y130000
X39776Y124920
X39776Y119840
X39776Y114760
X39776Y109680
X39776Y104600
X39776Y99520
X44856Y94440
X44856Y99520
X44856Y104600
X44856Y109680
X44856Y114760
X44856Y119840
X44856Y124920
X44856Y130000
X45237Y89360
X49936Y89360
X44602Y81994
X42824Y80470
X60096Y91773
X62636Y91773
X65176Y91773
X52984Y92535
X50952Y132286
X70256Y130000
X75336Y130000
X47396Y127460
X57810Y127460
X62890Y127460
X67970Y127460
X72796Y127460
X70256Y124920
X75336Y124920
X47396Y122380
X62890Y122380
X67970Y122380
X72796Y122380
X66065Y120602
X70256Y119840
X75336Y119840
X47396Y117300
X64033Y118316
X67970Y117300
X72796Y117300
X55016Y114760
X65176Y114760
X70256Y114760
X75336Y114760
X47396Y112220
X49936Y94440
X47396Y96980
X57937Y96980
X49936Y99520
X60096Y99520
X65176Y99520
X70256Y99520
X47396Y102060
X62636Y102060
X67716Y102060
X47396Y107140
X62636Y107140
X67716Y107140
X55016Y109680
X60096Y109680
X65176Y109680
X70256Y109680
X65176Y104600
X70256Y104600
X72796Y102060
X72796Y96980
X72796Y112220
X72796Y107140
X75336Y109680
X75336Y104600
X75336Y99520
X55016Y121110
X47396Y91900
X47396Y86820
X47396Y81740
X59080Y133302
X54889Y132032
X50952Y127206
X50952Y124666
X50952Y119586
X50952Y114506
X50952Y109426
X56921Y94567
X66506Y131270
X69113Y91519
X49047Y93297
X69113Y90503
X48539Y93805
X71907Y81506
X71399Y112347
X72161Y82506
X72034Y113617
X63017Y103330
X55270Y103330
X55905Y87582
X54127Y91519
X55905Y86693
X53238Y90503
X69240Y94186
X70129Y94059
X55905Y88598
X54508Y90630
X69621Y112982
X69621Y97234
X49936Y73104
X32862Y52256
X50698Y102441
X52857Y101171
X51206Y101171
X57937Y100028
X51714Y100028
X43475Y78565
X44602Y78565
X54635Y123777
X54000Y115776
X52629Y115776
X52629Y123777
X55905Y131651
X57175Y131651
X58445Y131651
X41427Y78438
X64160Y129746
X57175Y126825
X82154Y84094
X113464Y78819
X91747Y85931
X93271Y85931
X93359Y78946
X95684Y114760
X96827Y117300
X104955Y114760
X107622Y80470
X107622Y77930
X107622Y83010
X107622Y85550
X107622Y88090
X106225Y79200
X106225Y81740
X106225Y84280
X106225Y86820
X106225Y89360
X104955Y77930
X104955Y80470
X104955Y83010
X104955Y85550
X104955Y88090
X104955Y90630
X105844Y91773
X103685Y89360
X101145Y89360
X98605Y89360
X102415Y88090
X99875Y88090
X97335Y88090
X97335Y90630
X99875Y90630
X102415Y90630
X103685Y86820
X101145Y86820
X98605Y86820
X97335Y85550
X97335Y83010
X97335Y80470
X97335Y77930
X97335Y75390
X97335Y72850
X98605Y84280
X98605Y81740
X98605Y79200
X98605Y76660
X98605Y74120
X98605Y71961
X99875Y72850
X99875Y75390
X99875Y77930
X102415Y77930
X110162Y77930
X112702Y77930
X111305Y76660
X111305Y74120
X111305Y71961
X113845Y76660
X113845Y74120
X113845Y71961
X109019Y77930
X113845Y84280
X111305Y86820
X113845Y89233
X111305Y91900
X101145Y79200
X103685Y79200
X102415Y80343
X99875Y80343
X102415Y86058
X99875Y86058
X101399Y132540
X92509Y132540
X96065Y71961
X96065Y74120
X96065Y76660
X96065Y79581
X93525Y76660
X94795Y72850
X94795Y75390
X94541Y77930
X94287Y79200
X88445Y79200
X88445Y84280
X89461Y75263
X90731Y78692
X90477Y81740
X86159Y79200
X85905Y74120
X82095Y74120
X79555Y72850
X84635Y72850
X84635Y75390
X79555Y75390
X78285Y81740
X78285Y86820
X81460Y85550
X80825Y91900
X80825Y96980
X80825Y102060
X80825Y107140
X80825Y112220
X80825Y117300
X80825Y122380
X80825Y127460
X78285Y130000
X78285Y124920
X78285Y119840
X78285Y114760
X78285Y109680
X78285Y104600
X78285Y99520
X83365Y94440
X83365Y99520
X83365Y104600
X83365Y109680
X83365Y114760
X83365Y119840
X83365Y124920
X83365Y130000
X83746Y89360
X88445Y89360
X83111Y81994
X81333Y80470
X98605Y91773
X101145Y91773
X103685Y91773
X91493Y92535
X89461Y132286
X108765Y130000
X113845Y130000
X85905Y127460
X96319Y127460
X101399Y127460
X106479Y127460
X111305Y127460
X108765Y124920
X113845Y124920
X85905Y122380
X101399Y122380
X106479Y122380
X111305Y122380
X104574Y120602
X108765Y119840
X113845Y119840
X85905Y117300
X102542Y118316
X106479Y117300
X111305Y117300
X93525Y114760
X103685Y114760
X108765Y114760
X113845Y114760
X85905Y112220
X88445Y94440
X85905Y96980
X96446Y96980
X88445Y99520
X98605Y99520
X103685Y99520
X108765Y99520
X85905Y102060
X101145Y102060
X106225Y102060
X85905Y107140
X101145Y107140
X106225Y107140
X93525Y109680
X98605Y109680
X103685Y109680
X108765Y109680
X103685Y104600
X53365Y102441
X111305Y102060
X111305Y96980
X111305Y112220
X111305Y107140
X113845Y109680
X113845Y104600
X113845Y99520
X93525Y121110
X85905Y91900
X85905Y86820
X85905Y81740
X97589Y133302
X93398Y132032
X89461Y127206
X89461Y124666
X89461Y119586
X89461Y114506
X89461Y109426
X95430Y94567
X105015Y131270
X107622Y91519
X87556Y93297
X107622Y90503
X87048Y93805
X110416Y81506
X109908Y112347
X110670Y82506
X110543Y113617
X101526Y103330
X93779Y103330
X94414Y87582
X92636Y91519
X94414Y86693
X91747Y90503
X107749Y94186
X108638Y94059
X94414Y88598
X93017Y90630
X108130Y112982
X108130Y97234
X88445Y73104
X91874Y102441
X89207Y102441
X91366Y101171
X89715Y101171
X96446Y100028
X90223Y100028
X81984Y78565
X83111Y78565
X93144Y123777
X92509Y115776
X91138Y115776
X91138Y123777
X94414Y131651
X95684Y131651
X96954Y131651
X79936Y78438
X102669Y129746
X95684Y126825
X1552Y57531
X23269Y50419
X21745Y50419
X21657Y57404
X19332Y21590
X18189Y19050
X10061Y21590
X7394Y55880
X7394Y58420
X7394Y53340
X7394Y50800
X7394Y48260
X37001Y46100
X37001Y41900
X35701Y44000
X1001Y41900
X1001Y46100
X2301Y44000
X8791Y57150
X8791Y54610
X8791Y52070
X8791Y49530
X8791Y46990
X10061Y58420
X10061Y55880
X10061Y53340
X10061Y50800
X10061Y48260
X10061Y45720
X9172Y44577
X11331Y46990
X13871Y46990
X75510Y46100
X75510Y41900
X74210Y44000
X39510Y41900
X39510Y46100
X40810Y44000
X16411Y46990
X12601Y48260
X15141Y48260
X17681Y48260
X17681Y45720
X15141Y45720
X12601Y45720
X11331Y49530
X13871Y49530
X16411Y49530
X17681Y50800
X17681Y53340
X17681Y55880
X17681Y58420
X114016Y46100
X114016Y41900
X112716Y44000
X78016Y41900
X78016Y46100
X79316Y44000
X17681Y60960
X17681Y63500
X16411Y52070
X16411Y54610
X16411Y57150
X16411Y59690
X16411Y62230
X16411Y64389
X15141Y63500
X15141Y60960
X15141Y58420
X12601Y58420
X4854Y58420
X2314Y58420
X1000Y90250
X1000Y94450
X2300Y92350
X37000Y94450
X37000Y90250
X35700Y92350
X3711Y59690
X3711Y62230
X3711Y64389
X1171Y59690
X1171Y62230
X1171Y64389
X5997Y58420
X1171Y52070
X3711Y49530
X1171Y47117
X3711Y44450
X13871Y57150
X11331Y57150
X12601Y56007
X39506Y90250
X39506Y94450
X40806Y92350
X75506Y94450
X75506Y90250
X74206Y92350
X15141Y56007
X12601Y50292
X15141Y50292
X13617Y3810
X22507Y3810
X18951Y64389
X18951Y62230
X18951Y59690
X18951Y56769
X21491Y59690
X20221Y63500
X20221Y60960
X20475Y58420
X20729Y57150
X78015Y90250
X78015Y94450
X79315Y92350
X114015Y94450
X114015Y90250
X112715Y92350
X26571Y57150
X26571Y52070
X25555Y61087
X24285Y57658
X24539Y54610
X28857Y57150
X29111Y62230
X32921Y62230
X35461Y63500
X30381Y63500
X30381Y60960
X35461Y60960
X36731Y54610
X108765Y104600
M30